<svg xmlns="http://www.w3.org/2000/svg" width="484.2" height="203.8" viewBox="0 0 484.2 203.8">
  <defs>
    <style>
      .cls-1 {
        fill: #4f2fef;
      }

      .cls-2 {
        fill: #fff;
      }

      .cls-3 {
        fill: #58f4e1;
      }

      .cls-4 {
        fill: #fefefe;
      }
    </style>
  </defs>
  <g id="Layer_2" data-name="Layer 2">
    <g id="Layer_1-2" data-name="Layer 1">
      <g>
        <rect class="cls-1" y="93.5" width="484.2" height="36.77"/>
        <rect class="cls-1" y="22.7" width="484.2" height="36.77"/>
        <g>
          <path class="cls-2" d="M57.2,44.6c-7.2,0-12.9-1.8-17.1-5.5s-6.3-8.8-6.3-15.5a27.7,27.7,0,0,1,2-10.8,19,19,0,0,1,5.7-7.3C46.3,1.8,52.7,0,60.6,0A57.8,57.8,0,0,1,76,2.1c2,.6,2.9,2.2,2.9,4.7s-1,5.2-3.2,5.2l-3.5-.5L68,11a7.7,7.7,0,0,0-6.6,3,11,11,0,0,0-2.3,7.1,12.7,12.7,0,0,0,2.1,7.2,7.2,7.2,0,0,0,5.9,3.3h9a3,3,0,0,1,3.4,2.9,16.4,16.4,0,0,1,.2,2.2,19.5,19.5,0,0,1-.2,2.3c-.3,1.4-1.4,2.4-3.4,3.1a47.9,47.9,0,0,1-8.6,1.7A100.8,100.8,0,0,1,57.2,44.6Z"/>
          <path class="cls-2" d="M114.3,44.6a45.2,45.2,0,0,1-13.2-1.9,27.5,27.5,0,0,1-9.5-5.1A23.4,23.4,0,0,1,86,30.5a18,18,0,0,1-1.9-8.2A18.6,18.6,0,0,1,86,14.1,23.4,23.4,0,0,1,91.6,7a27.5,27.5,0,0,1,9.5-5.1A41.5,41.5,0,0,1,114,0a42.9,42.9,0,0,1,12.5,1.7,24.1,24.1,0,0,1,8.7,4.8c4.4,4.1,6.7,8.9,6.7,14.5a19,19,0,0,1-1.9,8.3,23.6,23.6,0,0,1-5.2,7.5,24.8,24.8,0,0,1-8.7,5.4A37,37,0,0,1,114.3,44.6Zm11.9-23.3a6.9,6.9,0,0,0-2.1-5c-1.3-1.4-3.4-2.1-6.2-2.1a9.2,9.2,0,0,0-6.6,2.2,6.9,6.9,0,0,0-2.5,5.4,6.2,6.2,0,0,0,2.6,5.1,9.9,9.9,0,0,0,6.2,1.9,8.7,8.7,0,0,0,6.1-2.3A7.3,7.3,0,0,0,126.2,21.3Z"/>
          <path class="cls-2" d="M188.6,1.4H195a4.8,4.8,0,0,1,2.8.6,3.4,3.4,0,0,1,.9,2.7c.2,6.1.4,12.7.4,19.7s-.2,12.1-.5,15.3a3.9,3.9,0,0,1-1,2.5,2.9,2.9,0,0,1-2.4,1.2H185.1a9.2,9.2,0,0,1-4.6-1.5c-9.3-5.5-15.1-8.8-17.5-10-.5-.2-.9-.2-1.2.2s-.4.9-.4,1.9v6.6a2,2,0,0,1-.9,1.8c-.8.7-3,1-6.4,1h-2.9a2.6,2.6,0,0,1-2.2-1.2,3.8,3.8,0,0,1-.9-2.4c-.2-4.8-.2-10.9-.2-18.1V7.4a12,12,0,0,1,.8-4.7,2.9,2.9,0,0,1,2.8-1.3h6.6a10.1,10.1,0,0,1,4.2,1.1C174.7,9,181.9,12.7,184,13.7a1.6,1.6,0,0,0,1.6.2,1.6,1.6,0,0,0,.6-1.4V4.1a2.9,2.9,0,0,1,.6-1.9A2.1,2.1,0,0,1,188.6,1.4Z"/>
          <path class="cls-2" d="M258.8,44.6a44.7,44.7,0,0,1-13.2-1.9,27.5,27.5,0,0,1-9.5-5.1,22,22,0,0,1-5.6-7.1,18,18,0,0,1-1.9-8.2,18.6,18.6,0,0,1,1.9-8.2A23.4,23.4,0,0,1,236.1,7a27.5,27.5,0,0,1,9.5-5.1A40.6,40.6,0,0,1,258.5,0a42.2,42.2,0,0,1,12.4,1.7,24.1,24.1,0,0,1,8.7,4.8c4.5,4.1,6.8,8.9,6.8,14.5a20.5,20.5,0,0,1-1.9,8.3,23.6,23.6,0,0,1-5.2,7.5,26.8,26.8,0,0,1-8.7,5.4A37,37,0,0,1,258.8,44.6Zm11.8-23.3a6.8,6.8,0,0,0-2-5c-1.4-1.4-3.4-2.1-6.2-2.1a9.2,9.2,0,0,0-6.6,2.2,6.9,6.9,0,0,0-2.5,5.4,6.2,6.2,0,0,0,2.6,5.1,9.9,9.9,0,0,0,6.2,1.9,8.9,8.9,0,0,0,6.1-2.3A7.2,7.2,0,0,0,270.6,21.3Z"/>
          <path class="cls-2" d="M325.3,43.4a24.2,24.2,0,0,1-6.3-2.2,20.2,20.2,0,0,1-2.4-1.7,4.3,4.3,0,0,1-1.6-3.4,11.4,11.4,0,0,1,.5-3.3c.5-2,1.4-3,2.8-3s1.8.5,4.2,1.4a17.2,17.2,0,0,0,5.6,1.3c2.1,0,3.1-.8,3.1-2.4a3.8,3.8,0,0,0-1.5-2.7,18.1,18.1,0,0,0-3.7-2.3,47.8,47.8,0,0,1-4.2-2.6,12.1,12.1,0,0,1-5.2-10.2c0-3.8,1.9-6.8,5.6-9S330.9,0,336.8,0,347.5.6,351,1.8s5.3,2.9,5.3,5.1a7.8,7.8,0,0,1-1.1,4.1c-.7,1.2-1.5,1.8-2.3,1.8a11.5,11.5,0,0,1-2.8-1,12.3,12.3,0,0,0-4.3-.9c-2.5,0-3.8,1-3.8,3a3.3,3.3,0,0,0,1.8,2.6,25.6,25.6,0,0,0,4.4,2.3c1.7.7,3.4,1.6,5.1,2.5a13.3,13.3,0,0,1,4.4,3.8,9.3,9.3,0,0,1,1.8,5.8,9.4,9.4,0,0,1-2.2,6.2,14.2,14.2,0,0,1-5.8,4.4A40.5,40.5,0,0,1,335,44.6,37.4,37.4,0,0,1,325.3,43.4Z"/>
          <path class="cls-2" d="M369.6,1.4h16.1q2.4,0,3.3,1.2a14,14,0,0,1,1.1,5.2c.1,2.7.2,7.7.2,15.3s-.1,13-.4,16.6a4.7,4.7,0,0,1-1.3,2.4,4.3,4.3,0,0,1-2.8,1.2c-2.2.2-4.9.3-7.9.3s-5.8-.1-8.5-.3a4.3,4.3,0,0,1-2.8-1.2,3.9,3.9,0,0,1-1.2-2.4c-.3-3.6-.5-9.1-.5-16.6s.1-12.6.3-15.3a12.6,12.6,0,0,1,1-5.2C366.8,1.8,367.9,1.4,369.6,1.4Z"/>
          <path class="cls-2" d="M438.2,1.4h6.4a5.2,5.2,0,0,1,2.9.6,4.3,4.3,0,0,1,.9,2.7c.2,6.1.3,12.7.3,19.7s-.1,12.1-.4,15.3a4.1,4.1,0,0,1-1.1,2.5,2.9,2.9,0,0,1-2.4,1.2h-10a9.2,9.2,0,0,1-4.6-1.5c-9.3-5.5-15.1-8.8-17.5-10-.5-.2-.9-.2-1.2.2A2.7,2.7,0,0,0,411,34v6.6a1.9,1.9,0,0,1-.8,1.8c-.8.7-3,1-6.5,1h-2.8a2.8,2.8,0,0,1-2.3-1.2,5.4,5.4,0,0,1-.9-2.4c-.1-4.8-.2-10.9-.2-18.1s.1-12,.1-14.2a10.4,10.4,0,0,1,.8-4.7,2.8,2.8,0,0,1,2.7-1.3h6.6a9.4,9.4,0,0,1,4.2,1.1c12.4,6.5,19.7,10.2,21.8,11.2a1.6,1.6,0,0,0,1.6.2,1.6,1.6,0,0,0,.6-1.4V4.1a2.9,2.9,0,0,1,.6-1.9A1.9,1.9,0,0,1,438.2,1.4Z"/>
          <path class="cls-2" d="M69.1,116.6c-7.2,0-12.9-1.8-17.1-5.5s-6.2-8.8-6.2-15.5a26,26,0,0,1,2-10.8,17.9,17.9,0,0,1,5.6-7.3C58.3,73.8,64.7,72,72.6,72a57.6,57.6,0,0,1,15.3,2.1c2,.6,3,2.2,3,4.7S89.8,84,87.6,84l-3.5-.5L79.9,83a8,8,0,0,0-6.6,3A11.6,11.6,0,0,0,71,93.1a12,12,0,0,0,2.2,7.2,7.1,7.1,0,0,0,5.9,3.3H88c2.1,0,3.2,1,3.4,2.9a16.4,16.4,0,0,1,.2,2.2,19.5,19.5,0,0,1-.2,2.3c-.2,1.4-1.3,2.4-3.3,3.1a47.4,47.4,0,0,1-8.7,1.7A99,99,0,0,1,69.1,116.6Z"/>
          <path class="cls-2" d="M126.2,116.6a44.5,44.5,0,0,1-13.1-1.9,29,29,0,0,1-9.6-5.1,21.6,21.6,0,0,1-5.5-7.1,18.1,18.1,0,0,1-2-8.2,18.7,18.7,0,0,1,2-8.2,22,22,0,0,1,5.6-7.1,27.5,27.5,0,0,1,9.5-5.1A40.6,40.6,0,0,1,126,72a42.2,42.2,0,0,1,12.4,1.7,24.1,24.1,0,0,1,8.7,4.8c4.5,4.1,6.7,8.9,6.7,14.5a20.4,20.4,0,0,1-1.8,8.3,25.3,25.3,0,0,1-5.2,7.5,26.3,26.3,0,0,1-8.8,5.4A36.4,36.4,0,0,1,126.2,116.6Zm11.9-23.3a7.2,7.2,0,0,0-2-5q-2.1-2.1-6.3-2.1a9.6,9.6,0,0,0-6.6,2.2,7.1,7.1,0,0,0-2.4,5.4,6.1,6.1,0,0,0,2.5,5.1,10.1,10.1,0,0,0,6.2,1.9,8.5,8.5,0,0,0,6.1-2.3A7,7,0,0,0,138.1,93.3Z"/>
          <path class="cls-2" d="M194.6,112.3a7.2,7.2,0,0,1-3.7,3.1,14,14,0,0,1-5.8,1.2,14.8,14.8,0,0,1-5.7-1.1,7.2,7.2,0,0,1-3.7-3.1q-9-16.7-16.8-32.7a7.1,7.1,0,0,1-.9-2.9c0-2.2,1-3.2,3-3.2l17.3-.2a6.3,6.3,0,0,1,3.4.8,6.4,6.4,0,0,1,2.1,3.1l5.8,14.9a1.3,1.3,0,0,0,1.3,1,1.5,1.5,0,0,0,1.4-1l7.9-17c.5-1.1,1.1-1.7,1.7-1.8H210a1.8,1.8,0,0,1,1.7,1.1,3.1,3.1,0,0,1,.1,1,11.5,11.5,0,0,1-1.3,3.3c-.9,1.8-3.3,6.8-7,15S196.7,108.2,194.6,112.3Z"/>
          <path class="cls-2" d="M222.3,73.4h16.1q2.4,0,3.3,1.2a14,14,0,0,1,1.1,5.2c.1,2.7.2,7.7.2,15.3s-.1,13-.4,16.6a4.7,4.7,0,0,1-1.3,2.4,4.3,4.3,0,0,1-2.8,1.2c-2.2.2-4.9.3-7.9.3s-5.8-.1-8.5-.3a4.3,4.3,0,0,1-2.8-1.2,3.9,3.9,0,0,1-1.2-2.4c-.3-3.6-.5-9.1-.5-16.6s.1-12.6.3-15.3a12.6,12.6,0,0,1,1-5.2C219.5,73.8,220.6,73.4,222.3,73.4Z"/>
          <path class="cls-2" d="M277.8,115.3c-2.6.2-6.5.3-11.5.3l-10.2-.2a9.8,9.8,0,0,1-4.1-1,2.9,2.9,0,0,1-1.5-2.4c-.3-4.4-.4-9.3-.4-14.8s.1-11.4.3-17.6c0-3.9,1.8-5.9,5.3-6.2l11.2-.2,11.9.2a21.5,21.5,0,0,1,8.2,2,17.3,17.3,0,0,1,6.4,4.6,19.8,19.8,0,0,1,5,13.5,21.8,21.8,0,0,1-5.2,14.4,19.4,19.4,0,0,1-6.5,5.1A23.4,23.4,0,0,1,277.8,115.3Zm-2.7-29v14.6a1.8,1.8,0,0,0,.4.9,1.5,1.5,0,0,0,1,.4,7.1,7.1,0,0,0,5.9-2.7,10,10,0,0,0,2-6.2,10.4,10.4,0,0,0-1.9-6.3,5.6,5.6,0,0,0-5-2.6h-1.2A1.7,1.7,0,0,0,275.1,86.3Z"/>
          <path class="cls-2" d="M326.1,98.6v2.5a2.8,2.8,0,0,1-.8,2.4,3.3,3.3,0,0,1-2.1.6H308.1a2.8,2.8,0,0,1-2-.6,3.2,3.2,0,0,1-.7-2.4V98.6a3,3,0,0,1,.7-2.4,3.4,3.4,0,0,1,2.2-.6h15a3.3,3.3,0,0,1,2.1.6A4,4,0,0,1,326.1,98.6Z"/>
          <path class="cls-2" d="M359.4,73.3c1.7,0,2.8.4,3.3,1.3a9.1,9.1,0,0,1,1,4.2c.3,4.6.5,10.1.5,16.7s-.2,11.9-.6,16.2a4.4,4.4,0,0,1-1.3,2.5,4.2,4.2,0,0,1-2.7,1.2l-8,.2-8.5-.2a4.3,4.3,0,0,1-2.9-1.3,3.4,3.4,0,0,1-1.1-2.4c-.3-5.5-.5-10.7-.5-15.7s0-8.3.1-9.9l-2.7-.2c-1.8-.1-2.7-1.2-2.7-3.4a9.7,9.7,0,0,1,.6-4.2q.5-1,2.7-1.5A222.1,222.1,0,0,1,359.4,73.3Z"/>
          <path class="cls-2" d="M378,106.5h2.8a12.8,12.8,0,0,0,6.7-1.7c1.9-1.1,3.3-3,4.3-5.8a19.6,19.6,0,0,1-8.1,1.7c-4,0-7.2-1-9.7-3.1s-3.8-4.9-3.8-8.5a13.7,13.7,0,0,1,3-9.1c3.8-4.6,9.8-6.8,18-6.8s14.1,2,18.2,6a14.4,14.4,0,0,1,3.5,5.3,22.1,22.1,0,0,1,1.3,7.7,21.8,21.8,0,0,1-1.8,8.6,22.7,22.7,0,0,1-5.3,7.7,26.2,26.2,0,0,1-9.9,5.8,50.5,50.5,0,0,1-15,2.5h-4.5a4.1,4.1,0,0,1-3.3-2.1,8,8,0,0,1-1.2-4.3,3.4,3.4,0,0,1,1.3-3.1A7.2,7.2,0,0,1,378,106.5Zm9.8-19.4a7.4,7.4,0,0,0,.9,3.8,2.5,2.5,0,0,0,2.4,1.5,2.5,2.5,0,0,0,2.3-1.5,8,8,0,0,0,.8-3.8,6,6,0,0,0-1-3.7A2.4,2.4,0,0,0,391,82a2.5,2.5,0,0,0-2.2,1.4A5.8,5.8,0,0,0,387.8,87.1Z"/>
          <path class="cls-2" d="M421.4,82.6a6.9,6.9,0,0,1,2.1-5,8.1,8.1,0,0,1,5.7-2,7,7,0,0,1,5.4,2,6.9,6.9,0,0,1,1.7,4.6,6.6,6.6,0,0,1-2.1,4.7,7.2,7.2,0,0,1-5.3,2.1,8,8,0,0,1-5.3-1.7A5.7,5.7,0,0,1,421.4,82.6Zm0,27a6.7,6.7,0,0,1,2.1-4.9,7.6,7.6,0,0,1,5.7-2c2.4,0,4.2.6,5.4,1.9a7.3,7.3,0,0,1,1.7,4.6,6.8,6.8,0,0,1-2.1,4.8,7.2,7.2,0,0,1-5.3,2.1,8.1,8.1,0,0,1-5.3-1.8A5.5,5.5,0,0,1,421.4,109.6Z"/>
        </g>
        <g>
          <path class="cls-3" d="M40.1,39.1c4.2,3.6,9.9,5.5,17.1,5.5a100.8,100.8,0,0,0,10.3-.7,47.9,47.9,0,0,0,8.6-1.7c2-.7,3.1-1.7,3.4-3.1a19.5,19.5,0,0,0,.2-2.3,16.4,16.4,0,0,0-.2-2.2,3,3,0,0,0-3.4-2.9h-9a7.2,7.2,0,0,1-5.9-3.3,11.8,11.8,0,0,1-2-5.6H33.8v.9C33.8,30.3,35.9,35.4,40.1,39.1Z"/>
          <path class="cls-3" d="M397.7,39.7a5.4,5.4,0,0,0,.9,2.4,2.8,2.8,0,0,0,2.3,1.2h2.8c3.5,0,5.7-.3,6.5-1a1.9,1.9,0,0,0,.8-1.8V34a2.7,2.7,0,0,1,.5-1.9c.3-.4.7-.4,1.2-.2,2.4,1.2,8.2,4.5,17.5,10a9.2,9.2,0,0,0,4.6,1.5h10a2.9,2.9,0,0,0,2.4-1.2,4.1,4.1,0,0,0,1.1-2.5c.3-3.2.4-8.3.4-15.3V22.7H397.5C397.5,29.5,397.6,35.1,397.7,39.7Z"/>
          <path class="cls-3" d="M86,30.5a23.4,23.4,0,0,0,5.6,7.1,27.5,27.5,0,0,0,9.5,5.1,45.2,45.2,0,0,0,13.2,1.9,37,37,0,0,0,11.8-2.4,23.6,23.6,0,0,0,8.7-5.5,22.1,22.1,0,0,0,5.2-7.4,19.1,19.1,0,0,0,1.8-6.6H126a7.7,7.7,0,0,1-2.3,3.8,8.7,8.7,0,0,1-6.1,2.3,9.9,9.9,0,0,1-6.2-1.9,5.9,5.9,0,0,1-2.5-4.2H84.1A19.5,19.5,0,0,0,86,30.5Z"/>
          <path class="cls-3" d="M326,25.1a18.1,18.1,0,0,1,3.7,2.3,3.8,3.8,0,0,1,1.5,2.7c0,1.6-1,2.4-3.1,2.4a17.2,17.2,0,0,1-5.6-1.3c-2.4-.9-3.8-1.3-4.2-1.4s-2.3,1-2.8,3a11.4,11.4,0,0,0-.5,3.3,4.3,4.3,0,0,0,1.6,3.4,20.2,20.2,0,0,0,2.4,1.7,24.2,24.2,0,0,0,6.3,2.2,37.4,37.4,0,0,0,9.7,1.2,40.5,40.5,0,0,0,16.5-3.1,14.2,14.2,0,0,0,5.8-4.4,9.4,9.4,0,0,0,2.2-6.2,9.3,9.3,0,0,0-1.8-5.8,13.1,13.1,0,0,0-2.3-2.4H322.2Z"/>
          <path class="cls-3" d="M230.5,30.5a22,22,0,0,0,5.6,7.1,27.5,27.5,0,0,0,9.5,5.1,44.7,44.7,0,0,0,13.2,1.9,37,37,0,0,0,11.8-2.4,25.4,25.4,0,0,0,8.7-5.5,22.1,22.1,0,0,0,5.2-7.4,19.1,19.1,0,0,0,1.8-6.6H270.5a8.5,8.5,0,0,1-2.3,3.8,8.9,8.9,0,0,1-6.1,2.3,9.9,9.9,0,0,1-6.2-1.9,5.9,5.9,0,0,1-2.5-4.2H228.6A17.9,17.9,0,0,0,230.5,30.5Z"/>
          <path class="cls-3" d="M364.9,23.1c0,7.5.2,13,.5,16.6a3.9,3.9,0,0,0,1.2,2.4,4.3,4.3,0,0,0,2.8,1.2c2.7.2,5.5.3,8.5.3s5.7-.1,7.9-.3a4.3,4.3,0,0,0,2.8-1.2,4.7,4.7,0,0,0,1.3-2.4c.3-3.6.4-9.1.4-16.6v-.4H364.9Z"/>
          <path class="cls-3" d="M148.1,39.7a3.8,3.8,0,0,0,.9,2.4,2.6,2.6,0,0,0,2.2,1.2h2.9c3.4,0,5.6-.3,6.4-1a2,2,0,0,0,.9-1.8V34c0-1,.1-1.6.4-1.9s.7-.4,1.2-.2c2.4,1.2,8.2,4.5,17.5,10a9.2,9.2,0,0,0,4.6,1.5h10.1a2.9,2.9,0,0,0,2.4-1.2,3.9,3.9,0,0,0,1-2.5c.3-3.2.5-8.3.5-15.3,0-.6-.1-1.1-.1-1.7H147.9C147.9,29.5,147.9,35.1,148.1,39.7Z"/>
        </g>
        <g>
          <path class="cls-4" d="M81.7,169.4a9.3,9.3,0,0,1-6.3-2,7.3,7.3,0,0,1-2.3-5.7,9.4,9.4,0,0,1,.7-3.9,5.8,5.8,0,0,1,2.1-2.7,11,11,0,0,1,7-2,22.2,22.2,0,0,1,5.7.7c.7.3,1,.8,1,1.8s-.4,1.9-1.1,1.9l-1.3-.2-1.6-.2a3,3,0,0,0-2.4,1.1,4.6,4.6,0,0,0,0,5.2,2.4,2.4,0,0,0,2.1,1.2h3.3c.8,0,1.2.3,1.2,1.1a1.9,1.9,0,0,1,.1.8,2.5,2.5,0,0,1-.1.8c0,.5-.5.9-1.2,1.1a14.2,14.2,0,0,1-3.2.7Z"/>
          <path class="cls-4" d="M99.7,169.4c-5.4,0-8.2-1.9-8.2-5.9a5.1,5.1,0,0,1,2.1-4.4c1.4-1.1,3.5-1.6,6.1-1.6s4.8.5,6.2,1.6a5,5,0,0,1,2,4.4C107.9,167.5,105.2,169.4,99.7,169.4Zm0-3.5c.9,0,1.3-.8,1.3-2.4a4.4,4.4,0,0,0-.2-1.8,1.1,1.1,0,0,0-1.1-.6,1,1,0,0,0-1,.6,4.2,4.2,0,0,0-.3,1.8C98.4,165.1,98.9,165.9,99.7,165.9Z"/>
          <path class="cls-4" d="M111.6,152.9h4.2a1.3,1.3,0,0,1,1,.3,8.1,8.1,0,0,1,.3,1.1c.1,1.8.1,4.2.1,7.3a50.2,50.2,0,0,1-.2,6.4.9.9,0,0,1-.3.7,2.4,2.4,0,0,1-1.1.3h-3.7c-1-.1-1.5-.4-1.5-1a51.1,51.1,0,0,1-.3-6.8c0-3.2.1-5.5.2-6.9a8.1,8.1,0,0,1,.3-1.1A1.3,1.3,0,0,1,111.6,152.9Z"/>
          <path class="cls-4" d="M127.6,169.4c-5.5,0-8.2-1.9-8.2-5.9a5.1,5.1,0,0,1,2.1-4.4c1.4-1.1,3.4-1.6,6.1-1.6s4.7.5,6.1,1.6a5.1,5.1,0,0,1,2.1,4.4C135.8,167.5,133.1,169.4,127.6,169.4Zm0-3.5c.9,0,1.3-.8,1.3-2.4a7.4,7.4,0,0,0-.2-1.8,1.1,1.1,0,0,0-1.1-.6,1,1,0,0,0-1,.6,4.2,4.2,0,0,0-.3,1.8C126.3,165.1,126.8,165.9,127.6,165.9Z"/>
          <path class="cls-4" d="M156.9,168v-5.4a1,1,0,0,0-.4-.9.8.8,0,0,0-.8-.4,1.2,1.2,0,0,0-.9.4,1,1,0,0,0-.4.9v5.3c0,.4-.1.7-.3.8a1.4,1.4,0,0,1-1.1.3h-4.2l-1-.2a1.5,1.5,0,0,1-.2-.8v-5.4a1.2,1.2,0,0,0-.3-.9,1.1,1.1,0,0,0-.9-.4,1.2,1.2,0,0,0-.9.4,1.3,1.3,0,0,0-.4.9V164a36.8,36.8,0,0,1-.1,3.9,1,1,0,0,1-.4.7,1.4,1.4,0,0,1-1.1.3h-4.1a1.2,1.2,0,0,1-.9-.3.9.9,0,0,1-.3-.7,41,41,0,0,1-.2-4.3c0-2,.1-3.4.1-4.1a6.1,6.1,0,0,1,.3-1.4,1.3,1.3,0,0,1,1-.3h4.3c.5,0,.9.1,1,.3a1.6,1.6,0,0,1,.3,1.1h0a6.2,6.2,0,0,1,4.4-1.7,5.7,5.7,0,0,1,2.7.6,3.9,3.9,0,0,1,1.8,1.8,4.9,4.9,0,0,1,2-1.8,6.3,6.3,0,0,1,2.7-.6,5.7,5.7,0,0,1,3.7,1.2,4.2,4.2,0,0,1,1.4,3.2v6c0,.4-.1.7-.3.8a1.4,1.4,0,0,1-1.1.3h-4.2l-1-.2C156.9,168.6,156.9,168.4,156.9,168Z"/>
          <path class="cls-4" d="M166.2,167.9v-7.2c0-2.2.1-4.3.1-6.4a1.8,1.8,0,0,1,.3-1.1c.1-.2.5-.3,1-.3h4.2a1.3,1.3,0,0,1,1,.3,7.5,7.5,0,0,1,.3,1.5c0,.8.1,2.1.1,4.1v.2h.2a5.7,5.7,0,0,1,3.8-1.4,4.5,4.5,0,0,1,3.5,1.4,7.9,7.9,0,0,1,0,9,4.8,4.8,0,0,1-3.6,1.3q-3.3,0-4.2-1.5a1,1,0,0,1-.4.9l-.9.4h-4.1a1.3,1.3,0,0,1-.8-.3A.9.9,0,0,1,166.2,167.9Zm8.3-2.3c.8,0,1.3-.7,1.3-2.1s-.5-2.2-1.3-2.2a1.3,1.3,0,0,0-1,.4,1.3,1.3,0,0,0-.4.9v1.7a1.5,1.5,0,0,0,.4,1A1.7,1.7,0,0,0,174.5,165.6Z"/>
          <path class="cls-4" d="M185.4,157.8h4.3a1.1,1.1,0,0,1,1,.4,2.2,2.2,0,0,1,.3,1.4c.1.8.1,2.2.1,4.2s0,3.4-.1,4.2a2.5,2.5,0,0,1-.4.7,2.4,2.4,0,0,1-1.1.3h-3.8a2.5,2.5,0,0,1-1.2-.3,1.1,1.1,0,0,1-.3-.7,43.3,43.3,0,0,1-.2-4.4,37.9,37.9,0,0,1,.1-4,3.2,3.2,0,0,1,.3-1.4A1.1,1.1,0,0,1,185.4,157.8Zm2.4-5.2a3.4,3.4,0,0,1,2.2.6,1.9,1.9,0,0,1,.7,1.6c0,1.6-1,2.4-3.2,2.4a3.7,3.7,0,0,1-2.1-.6,1.7,1.7,0,0,1-.9-1.6Q184.5,152.6,187.8,152.6Z"/>
          <path class="cls-4" d="M201.5,157.4c4.8,0,7.2,1.6,7.2,4.7.1,1.3.1,2.5.1,3.6v2.2l-.3.9-1.1.2h-4.7l-.9-.2a1.1,1.1,0,0,1-.3-.8h-.1a5,5,0,0,1-3.9,1.5,4.9,4.9,0,0,1-3-.9,2.6,2.6,0,0,1-1.2-2.4,3.2,3.2,0,0,1,.9-2.4,4.1,4.1,0,0,1,2-1.2,7.5,7.5,0,0,1,2.6-.4,12.4,12.4,0,0,1,2.7.3h0a2.4,2.4,0,0,0-.4-1.6,2,2,0,0,0-1.4-.5l-1.6.2-1,.3a3.1,3.1,0,0,1-1.2.6.5.5,0,0,1-.6-.4,1.3,1.3,0,0,1-.3-1,1.7,1.7,0,0,1,.2-.9l.8-.6A13.4,13.4,0,0,1,201.5,157.4Zm-1,9c.6,0,.9-.1.9-.4a9.8,9.8,0,0,0,.1-1.9c0-.3-.2-.4-.7-.4a2.1,2.1,0,0,0-1.2.3,1.5,1.5,0,0,0-.4,1,1.2,1.2,0,0,0,.4,1A1,1,0,0,0,200.5,166.4Z"/>
          <path class="cls-4" d="M223.3,158.4l2-.7,2.7-.2a10.3,10.3,0,0,1,3,.4,5.1,5.1,0,0,1,2.1,1,4,4,0,0,1,1.2,2.9c0,1.7-1.4,2.5-4.3,2.5l-3.1-.3a3.6,3.6,0,0,0,.5,2.1,2.1,2.1,0,0,0,1.7.6,5.6,5.6,0,0,0,2-.3l1.3-.5.8-.3a.9.9,0,0,1,.6.3,1.8,1.8,0,0,1,.4,1.1q0,.8-.3.9a1.9,1.9,0,0,1-.9.5,15.5,15.5,0,0,1-5.9.9,9,9,0,0,1-5.3-1.5,5,5,0,0,1-2-4.1,5.6,5.6,0,0,1,.4-2.3,5.9,5.9,0,0,1,1.3-1.8Zm5.1,1.6c-.9,0-1.4.7-1.5,2.2H228c1,0,1.5-.3,1.5-1S229.1,160,228.4,160Z"/>
          <path class="cls-4" d="M241.4,166.1a1.2,1.2,0,0,0-.5-1l-1.3-.5-1.5-.5a2,2,0,0,1-1.2-.8,2.5,2.5,0,0,1-.6-1.7c0-2.7,2.2-4.1,6.4-4.1a9.3,9.3,0,0,1,4.4.9,2.2,2.2,0,0,1,.7.6c.2.1.2.4.2.9s0,.7-.2.9-.3.3-.5.3a1.9,1.9,0,0,1-1.1-.5,4.1,4.1,0,0,0-1.8-.5.7.7,0,0,0-.7.7.9.9,0,0,0,.5.8l1.2.5,1.5.5a2.3,2.3,0,0,1,1.2,1,2.7,2.7,0,0,1,.5,1.8c0,2.7-2.1,4-6.3,4a12.3,12.3,0,0,1-5.1-.9l-.8-.4a1.3,1.3,0,0,1-.3-1,1.2,1.2,0,0,1,.3-.9l.4-.3a3,3,0,0,1,1.3.5,5.4,5.4,0,0,0,2.2.5C241,166.9,241.4,166.6,241.4,166.1Z"/>
          <path class="cls-4" d="M278.5,168v-5.4a1.2,1.2,0,0,0-.3-.9,1.1,1.1,0,0,0-.9-.4,1.2,1.2,0,0,0-.9.4,1.3,1.3,0,0,0-.4.9v3.2c0,1-.1,1.7-.1,2.1s-.1.7-.3.8a1.3,1.3,0,0,1-1,.3h-4.3l-.9-.2a1,1,0,0,1-.3-.8v-5.4a1.2,1.2,0,0,0-.3-.9.9.9,0,0,0-.8-.4,1,1,0,0,0-.9.4,1.1,1.1,0,0,0-.5.9V164a36.8,36.8,0,0,1-.1,3.9,1,1,0,0,1-.4.7,1.4,1.4,0,0,1-1.1.3H261a1.2,1.2,0,0,1-.9-.3.9.9,0,0,1-.3-.7,41,41,0,0,1-.2-4.3c0-2,.1-3.4.1-4.1a2.9,2.9,0,0,1,.4-1.4q.1-.3.9-.3h4.3c.5,0,.9.1,1,.3a2.3,2.3,0,0,1,.4,1.1h0a5.8,5.8,0,0,1,4.3-1.7,6.4,6.4,0,0,1,2.8.6,3.7,3.7,0,0,1,1.7,1.8,4.9,4.9,0,0,1,2-1.8,6.7,6.7,0,0,1,2.8-.6,5.4,5.4,0,0,1,3.6,1.2,4.2,4.2,0,0,1,1.4,3.2v6c0,.4-.1.7-.3.8a1.4,1.4,0,0,1-1.1.3h-4.2l-1-.2A1.5,1.5,0,0,1,278.5,168Z"/>
          <path class="cls-4" d="M295.5,157.4c4.8,0,7.2,1.6,7.2,4.7.1,1.3.1,2.5.1,3.6v2.2a4.6,4.6,0,0,1-.3.9l-1.1.2h-4.7l-.9-.2a1.1,1.1,0,0,1-.3-.8h0a5.4,5.4,0,0,1-4,1.5,4.9,4.9,0,0,1-3-.9,2.6,2.6,0,0,1-1.2-2.4,3.2,3.2,0,0,1,.9-2.4,4.5,4.5,0,0,1,2.1-1.2,6.9,6.9,0,0,1,2.5-.4,12.4,12.4,0,0,1,2.7.3h0a2.4,2.4,0,0,0-.4-1.6,2,2,0,0,0-1.4-.5l-1.6.2-1,.3a3.1,3.1,0,0,1-1.2.6.6.6,0,0,1-.6-.4,1.3,1.3,0,0,1-.3-1,1.7,1.7,0,0,1,.2-.9l.8-.6A13.4,13.4,0,0,1,295.5,157.4Zm-1,9c.6,0,.9-.1,1-.4v-1.9c0-.3-.2-.4-.7-.4a1.6,1.6,0,0,0-1.1.3,1.2,1.2,0,0,0-.5,1,1.2,1.2,0,0,0,.4,1A1,1,0,0,0,294.5,166.4Z"/>
          <path class="cls-4" d="M306.8,152.9h4.3q.8,0,.9.3a1.8,1.8,0,0,1,.3,1.1c.1,1.8.2,4.2.2,7.3s-.1,5.2-.2,6.4a.9.9,0,0,1-.3.7,2.9,2.9,0,0,1-1.1.3h-3.8c-.9-.1-1.4-.4-1.5-1s-.2-3.5-.2-6.8.1-5.5.2-6.9a1.8,1.8,0,0,1,.3-1.1C306,153,306.4,152.9,306.8,152.9Z"/>
          <path class="cls-4" d="M322.9,157.4c4.7,0,7.2,1.6,7.2,4.7v5.8a1.2,1.2,0,0,1-.3.9l-1,.2h-4.7l-1-.2-.3-.8h0a5.1,5.1,0,0,1-3.9,1.5,4.9,4.9,0,0,1-3-.9,2.6,2.6,0,0,1-1.2-2.4,3.2,3.2,0,0,1,.9-2.4,3.7,3.7,0,0,1,2-1.2,7.5,7.5,0,0,1,2.6-.4,12.4,12.4,0,0,1,2.7.3h0a3.1,3.1,0,0,0-.4-1.6,2,2,0,0,0-1.4-.5l-1.6.2-1,.3-1.2.6a.8.8,0,0,1-.7-.4c-.2-.2-.2-.5-.2-1s0-.8.2-.9a2.8,2.8,0,0,1,.8-.6A13.4,13.4,0,0,1,322.9,157.4Zm-1.1,9c.7,0,1-.1,1-.4a9.8,9.8,0,0,0,.1-1.9c0-.3-.3-.4-.7-.4a2.1,2.1,0,0,0-1.2.3,1.2,1.2,0,0,0-.4,1,1.5,1.5,0,0,0,.3,1A1.2,1.2,0,0,0,321.8,166.4Z"/>
          <path class="cls-4" d="M342.9,157.8h4a1.7,1.7,0,0,1,1,.3,1.3,1.3,0,0,1,.4.9,4.2,4.2,0,0,1,2.1-1.1,6.7,6.7,0,0,1,2.4-.4,4.4,4.4,0,0,1,3.4,1.4,7.1,7.1,0,0,1,1.3,4.5,7.8,7.8,0,0,1-.5,2.8,4.4,4.4,0,0,1-1.2,1.9,6,6,0,0,1-3.7,1.1,4.2,4.2,0,0,1-3.3-1.3h-.2v.2c0,1,0,2.2-.1,3.4a1.8,1.8,0,0,1-.3,1.1c-.1.2-.5.3-1,.3h-4.2a1.1,1.1,0,0,1-1-.4,2.7,2.7,0,0,1-.2-1.1c-.1-1.4-.1-3.1-.1-5.3v-7.2a.8.8,0,0,1,.4-.7A1.1,1.1,0,0,1,342.9,157.8Zm7,7.8c.9,0,1.3-.7,1.3-2.1s-.4-2.2-1.3-2.2a1.2,1.2,0,0,0-.9.4,1,1,0,0,0-.4.9v1.7a1.2,1.2,0,0,0,.4,1Z"/>
          <path class="cls-4" d="M367.2,157.4c4.8,0,7.2,1.6,7.2,4.7.1,1.3.1,2.5.1,3.6v2.2a4.6,4.6,0,0,1-.3.9l-1.1.2h-4.7l-.9-.2a1.1,1.1,0,0,1-.3-.8h0a5.4,5.4,0,0,1-4,1.5,4.9,4.9,0,0,1-3-.9A2.6,2.6,0,0,1,359,166a3.2,3.2,0,0,1,.9-2.4,4.1,4.1,0,0,1,2-1.2,7.5,7.5,0,0,1,2.6-.4,12.4,12.4,0,0,1,2.7.3h0a2.4,2.4,0,0,0-.4-1.6,2,2,0,0,0-1.4-.5l-1.6.2-1,.3-1.2.6a.6.6,0,0,1-.6-.4,1.3,1.3,0,0,1-.3-1,1.7,1.7,0,0,1,.2-.9l.8-.6A13.4,13.4,0,0,1,367.2,157.4Zm-1,9c.6,0,.9-.1,1-.4v-1.9c0-.3-.2-.4-.7-.4a2.1,2.1,0,0,0-1.2.3,1.5,1.5,0,0,0-.4,1,1.2,1.2,0,0,0,.4,1A1,1,0,0,0,366.2,166.4Z"/>
          <path class="cls-4" d="M392.6,158.8v10.1a3.7,3.7,0,0,1-.6,2.1,4.2,4.2,0,0,1-1.8,1.4,12.9,12.9,0,0,1-5.7,1,16.3,16.3,0,0,1-5.9-.9,2.8,2.8,0,0,1-.8-.6c-.2-.1-.2-.5-.2-.9s0-.8.2-1a.8.8,0,0,1,.7-.4l.9.3a8.4,8.4,0,0,0,3.4.8h1.4a4.1,4.1,0,0,0,1.1-.7,2,2,0,0,0,.4-1.3v-1.2c0-.1,0-.2-.1-.2s-.1,0-.1.1a5.7,5.7,0,0,1-3.9,1.7,4.8,4.8,0,0,1-3.5-1.4,5.4,5.4,0,0,1-1.5-4.2,5.6,5.6,0,0,1,1.7-4.4,5.9,5.9,0,0,1,4.1-1.5A4.3,4.3,0,0,1,386,159a1,1,0,0,1,.4-.9l.9-.3h4.1a1.3,1.3,0,0,1,.8.3A.8.8,0,0,1,392.6,158.8Zm-8.3,2.3c-.8,0-1.3.7-1.3,1.9s.5,1.9,1.3,1.9a1.2,1.2,0,0,0,.9-.3.9.9,0,0,0,.5-.8v-1.5a1.1,1.1,0,0,0-.5-.9A1.2,1.2,0,0,0,384.3,161.1Z"/>
          <path class="cls-4" d="M403,157.4c4.8,0,7.2,1.6,7.3,4.7v5.8a1.2,1.2,0,0,1-.3.9,2.3,2.3,0,0,1-1.1.2h-4.6l-1-.2a1.1,1.1,0,0,1-.3-.8h0a5.4,5.4,0,0,1-4,1.5,4.8,4.8,0,0,1-2.9-.9,2.7,2.7,0,0,1-1.3-2.4,3.2,3.2,0,0,1,.9-2.4,4.5,4.5,0,0,1,2.1-1.2,7.1,7.1,0,0,1,2.6-.4,12.4,12.4,0,0,1,2.7.3h0a2.3,2.3,0,0,0-.5-1.6,1.8,1.8,0,0,0-1.4-.5l-1.6.2-.9.3a2.8,2.8,0,0,1-1.3.6.7.7,0,0,1-.6-.4,1.3,1.3,0,0,1-.3-1c0-.4.1-.8.3-.9a1.8,1.8,0,0,1,.8-.6A13.2,13.2,0,0,1,403,157.4Zm-1,9c.6,0,1-.1,1-.4v-1.9c0-.3-.2-.4-.7-.4a2,2,0,0,0-1.1.3,1.2,1.2,0,0,0-.5,1,1.5,1.5,0,0,0,.4,1A1,1,0,0,0,402,166.4Z"/>
          <path class="cls-4" d="M38.3,188.8h4a1.2,1.2,0,0,1,.9.3,1.1,1.1,0,0,1,.5.9,4.3,4.3,0,0,1,2-1.1,7.7,7.7,0,0,1,2.5-.4,4,4,0,0,1,3.3,1.4,6.5,6.5,0,0,1,1.4,4.5,7.8,7.8,0,0,1-.5,2.8,3.8,3.8,0,0,1-1.3,1.9,5.5,5.5,0,0,1-3.6,1.1,4.2,4.2,0,0,1-3.3-1.3H44v.2c0,1,0,2.2-.1,3.4a1.8,1.8,0,0,1-.3,1.1c-.1.2-.5.3-1,.3H38.3a1.1,1.1,0,0,1-1-.4,5.3,5.3,0,0,1-.3-1.1V189.8c0-.3.2-.5.5-.7A1.1,1.1,0,0,1,38.3,188.8Zm7,7.8c.9,0,1.3-.7,1.3-2.1s-.4-2.2-1.3-2.2a1.2,1.2,0,0,0-.9.4,1,1,0,0,0-.4.9v1.7a1.2,1.2,0,0,0,.4,1Z"/>
          <path class="cls-4" d="M62.6,188.4c4.8,0,7.2,1.6,7.2,4.7.1,1.3.1,2.5.1,3.6a11.6,11.6,0,0,1-.1,2.2,1.2,1.2,0,0,1-.3.9l-1,.2H63.8a1.4,1.4,0,0,1-.9-.2,1.1,1.1,0,0,1-.3-.8h-.1a5,5,0,0,1-3.9,1.5,4.9,4.9,0,0,1-3-.9,2.6,2.6,0,0,1-1.2-2.4,3.2,3.2,0,0,1,.9-2.4,4.1,4.1,0,0,1,2-1.2,7.5,7.5,0,0,1,2.6-.4,12.4,12.4,0,0,1,2.7.3h0a2.4,2.4,0,0,0-.4-1.6,2,2,0,0,0-1.4-.5l-1.6.2-1,.3a3.1,3.1,0,0,1-1.2.6.8.8,0,0,1-.7-.4,2.2,2.2,0,0,1-.2-1,1.7,1.7,0,0,1,.2-.9l.8-.6A13.4,13.4,0,0,1,62.6,188.4Zm-1,9c.6,0,.9-.1.9-.4a9.8,9.8,0,0,0,.1-1.9c0-.3-.2-.4-.7-.4a2.1,2.1,0,0,0-1.2.3,1.4,1.4,0,0,0,0,2A1,1,0,0,0,61.6,197.4Z"/>
          <path class="cls-4" d="M73.9,188.8h4.3a1.3,1.3,0,0,1,1,.3,1.2,1.2,0,0,1,.3.9v.8a4.3,4.3,0,0,1,4-2.3,1.9,1.9,0,0,1,1.5.6,2.1,2.1,0,0,1,.6,1.6,3.4,3.4,0,0,1-.5,1.9,1.5,1.5,0,0,1-1.5,1,2.4,2.4,0,0,1-1.2-.4,2.7,2.7,0,0,0-1.3-.5,1.6,1.6,0,0,0-1,.4,1.3,1.3,0,0,0-.5,1.1c0,2.4,0,4-.1,4.7a1.3,1.3,0,0,1-1.5,1H73.9a1.2,1.2,0,0,1-.9-.3.9.9,0,0,1-.3-.7,41,41,0,0,1-.2-4.3,40.2,40.2,0,0,1,.1-4.1,6.1,6.1,0,0,1,.3-1.4A1.3,1.3,0,0,1,73.9,188.8Z"/>
          <path class="cls-4" d="M94.7,188.4c4.8,0,7.2,1.6,7.2,4.7.1,1.3.1,2.5.1,3.6v2.2a1.2,1.2,0,0,1-.3.9l-1.1.2H95.9l-.9-.2a1.1,1.1,0,0,1-.3-.8h0a5.4,5.4,0,0,1-4,1.5,5.1,5.1,0,0,1-3-.9,2.6,2.6,0,0,1-1.2-2.4,3.2,3.2,0,0,1,.9-2.4,4.5,4.5,0,0,1,2.1-1.2A6.9,6.9,0,0,1,92,193a12.4,12.4,0,0,1,2.7.3h0a2.4,2.4,0,0,0-.4-1.6,1.8,1.8,0,0,0-1.4-.5l-1.6.2-.9.3-1.3.6a.7.7,0,0,1-.6-.4,1.3,1.3,0,0,1-.3-1,1.7,1.7,0,0,1,.2-.9l.9-.6A12.5,12.5,0,0,1,94.7,188.4Zm-1,9c.6,0,.9-.1,1-.4v-1.9c0-.3-.2-.4-.7-.4a1.8,1.8,0,0,0-1.1.3,1.2,1.2,0,0,0-.5,1,1.2,1.2,0,0,0,.4,1A1,1,0,0,0,93.7,197.4Z"/>
          <path class="cls-4" d="M114.9,183.9h4.2a1.3,1.3,0,0,1,1,.3,8.1,8.1,0,0,1,.3,1.1c0,1.8.1,4.2.1,7.3s-.1,5.2-.2,6.4a.9.9,0,0,1-.3.7,2.4,2.4,0,0,1-1.1.3h-3.8c-.9-.1-1.4-.4-1.5-1s-.2-3.5-.2-6.8.1-5.5.2-6.9a1.8,1.8,0,0,1,.3-1.1A1.3,1.3,0,0,1,114.9,183.9Z"/>
          <path class="cls-4" d="M130.9,188.4c4.8,0,7.2,1.6,7.2,4.7,0,1.3.1,2.5.1,3.6s-.1,1.8-.1,2.2a1.2,1.2,0,0,1-.3.9l-1,.2h-4.7l-1-.2a1.9,1.9,0,0,1-.2-.8h-.1a5.1,5.1,0,0,1-3.9,1.5,4.9,4.9,0,0,1-3-.9,2.6,2.6,0,0,1-1.2-2.4,3.2,3.2,0,0,1,.9-2.4,3.7,3.7,0,0,1,2-1.2,7.5,7.5,0,0,1,2.6-.4,12.4,12.4,0,0,1,2.7.3h0a2.4,2.4,0,0,0-.4-1.6,2,2,0,0,0-1.4-.5l-1.6.2-1,.3a3.1,3.1,0,0,1-1.2.6.8.8,0,0,1-.7-.4,2.2,2.2,0,0,1-.2-1c0-.4,0-.8.2-.9l.8-.6A13.4,13.4,0,0,1,130.9,188.4Zm-1.1,9c.7,0,1-.1,1-.4a9.8,9.8,0,0,0,.1-1.9c0-.3-.3-.4-.7-.4a2.1,2.1,0,0,0-1.2.3,1.2,1.2,0,0,0-.4,1,1.5,1.5,0,0,0,.3,1A1.2,1.2,0,0,0,129.8,197.4Z"/>
          <path class="cls-4" d="M145.6,197.1a1,1,0,0,0-.5-1,3.3,3.3,0,0,0-1.2-.5l-1.5-.5a2.6,2.6,0,0,1-1.3-.8,3.1,3.1,0,0,1-.5-1.7c0-2.7,2.1-4.1,6.4-4.1a8.9,8.9,0,0,1,4.3.9l.8.6a1.4,1.4,0,0,1,.2.9,1.2,1.2,0,0,1-.3.9.5.5,0,0,1-.5.3,2.7,2.7,0,0,1-1.1-.5,3.4,3.4,0,0,0-1.7-.5.6.6,0,0,0-.7.7.7.7,0,0,0,.5.8,3.3,3.3,0,0,0,1.2.5l1.5.5a2.8,2.8,0,0,1,1.2,1,3.5,3.5,0,0,1,.5,1.8c0,2.7-2.1,4-6.4,4a12.1,12.1,0,0,1-5-.9l-.9-.4c-.2-.2-.2-.5-.2-1s0-.7.2-.9l.5-.3,1.3.5a5.4,5.4,0,0,0,2.1.5C145.3,197.9,145.6,197.6,145.6,197.1Z"/>
          <path class="cls-4" d="M182.7,199v-5.4a1.2,1.2,0,0,0-.3-.9.9.9,0,0,0-.8-.4,1.2,1.2,0,0,0-.9.4,1,1,0,0,0-.4.9v5.3c0,.4-.1.7-.3.8a1.6,1.6,0,0,1-1.1.3h-4.2l-1-.2a1,1,0,0,1-.3-.8v-5.4a1,1,0,0,0-.4-.9.9.9,0,0,0-.8-.4,1.2,1.2,0,0,0-.9.4,1,1,0,0,0-.4.9V195a36.8,36.8,0,0,1-.1,3.9,1.3,1.3,0,0,1-1.5,1h-4.2a1.1,1.1,0,0,1-.8-.3,1.6,1.6,0,0,1-.4-.7c-.1-.9-.1-2.4-.1-4.3a40.2,40.2,0,0,1,.1-4.1,3.2,3.2,0,0,1,.3-1.4,1.3,1.3,0,0,1,1-.3h4.3a1.3,1.3,0,0,1,1,.3,1.6,1.6,0,0,1,.3,1.1h0a6,6,0,0,1,4.3-1.7,6.1,6.1,0,0,1,2.8.6,3.9,3.9,0,0,1,1.8,1.8,4.4,4.4,0,0,1,2-1.8,6,6,0,0,1,2.7-.6,5.2,5.2,0,0,1,3.6,1.2,4.2,4.2,0,0,1,1.5,3.2v6c0,.4-.1.7-.3.8a1.6,1.6,0,0,1-1.1.3H184l-1-.2A1,1,0,0,1,182.7,199Z"/>
          <path class="cls-4" d="M198.7,189.7v5.4a1.5,1.5,0,0,0,.3,1,1.1,1.1,0,0,0,.8.3,1.3,1.3,0,0,0,.8-.3,2.1,2.1,0,0,0,.6-1v-1.3a37.9,37.9,0,0,1,.1-4l.4-.6a2.3,2.3,0,0,1,1.1-.4h4.2a1.1,1.1,0,0,1,.8.3.9.9,0,0,1,.3.6,25.7,25.7,0,0,1,.2,4.4,37.9,37.9,0,0,1-.1,4,3.8,3.8,0,0,1-.3,1.5,1.3,1.3,0,0,1-1,.3h-4.3a1.3,1.3,0,0,1-1-.3,1.9,1.9,0,0,1-.3-1.2h0a7.3,7.3,0,0,1-4.6,1.7,4.6,4.6,0,0,1-3.5-1.1,4.5,4.5,0,0,1-1.3-3.3v-6a1.1,1.1,0,0,1,.3-.8,2.3,2.3,0,0,1,1.1-.2h4.2a1.3,1.3,0,0,1,1,.3A.8.8,0,0,1,198.7,189.7Z"/>
          <path class="cls-4" d="M218.2,194.4v4.3a4.1,4.1,0,0,1-2.4,4.1,14.3,14.3,0,0,1-6.1,1,1,1,0,0,1-.9-.4,2.8,2.8,0,0,1-.3-1.5c0-.7.3-1.1.8-1.1s2.1-.9,2.1-2.2v-8.3a1.6,1.6,0,0,1,.3-1.1,1.1,1.1,0,0,1,1-.4h4.3a1.2,1.2,0,0,1,1.1.4,2.7,2.7,0,0,1,.2,1.1C218.2,191.5,218.2,192.9,218.2,194.4Zm-3.3-10.8a3.4,3.4,0,0,1,2.2.6,1.9,1.9,0,0,1,.7,1.6c0,1.6-1,2.4-3.1,2.4a3.8,3.8,0,0,1-2.2-.6,1.7,1.7,0,0,1-.9-1.6Q211.6,183.6,214.9,183.6Z"/>
          <path class="cls-4" d="M223.9,189.4l2.1-.7,2.6-.2a9.5,9.5,0,0,1,3,.4,5,5,0,0,1,2.2,1,4,4,0,0,1,1.2,2.9c0,1.7-1.4,2.5-4.3,2.5l-3.2-.3a4.4,4.4,0,0,0,.6,2.1,2.1,2.1,0,0,0,1.7.6,6,6,0,0,0,2-.3l1.2-.5.9-.3a.5.5,0,0,1,.5.3,1.4,1.4,0,0,1,.4,1.1q0,.8-.3.9a1.2,1.2,0,0,1-.8.5,15.8,15.8,0,0,1-6,.9,8.6,8.6,0,0,1-5.2-1.5,4.8,4.8,0,0,1-2.1-4.1,5.6,5.6,0,0,1,.5-2.3,5.7,5.7,0,0,1,1.2-1.8ZM229,191c-.9,0-1.4.7-1.4,2.2h1.1c.9,0,1.4-.3,1.4-1S229.7,191,229,191Z"/>
          <path class="cls-4" d="M238.6,188.8h4.3a1.3,1.3,0,0,1,1,.3,1.2,1.2,0,0,1,.3.9v.8a4.3,4.3,0,0,1,4-2.3,2,2,0,0,1,1.5.6,2.1,2.1,0,0,1,.6,1.6,3.4,3.4,0,0,1-.5,1.9,1.5,1.5,0,0,1-1.5,1,2.4,2.4,0,0,1-1.2-.4,3.1,3.1,0,0,0-1.3-.5,1.6,1.6,0,0,0-1,.4,1.3,1.3,0,0,0-.5,1.1c0,2.4,0,4-.1,4.7a1.3,1.3,0,0,1-1.5,1h-4.2a1.1,1.1,0,0,1-.8-.3.9.9,0,0,1-.3-.7,24.4,24.4,0,0,1-.2-4.3,40.2,40.2,0,0,1,.1-4.1,3.2,3.2,0,0,1,.3-1.4A1.3,1.3,0,0,1,238.6,188.8Z"/>
          <path class="cls-4" d="M254.7,189.4l2.1-.7,2.6-.2a9.5,9.5,0,0,1,3,.4,4.1,4.1,0,0,1,2.1,1,3.7,3.7,0,0,1,1.3,2.9c0,1.7-1.5,2.5-4.3,2.5l-3.2-.3a3.5,3.5,0,0,0,.6,2.1,1.8,1.8,0,0,0,1.6.6,5.6,5.6,0,0,0,2-.3l1.3-.5.8-.3a.6.6,0,0,1,.6.3,1.4,1.4,0,0,1,.4,1.1q0,.8-.3.9a1.6,1.6,0,0,1-.8.5,15.8,15.8,0,0,1-6,.9,8.4,8.4,0,0,1-5.2-1.5,4.8,4.8,0,0,1-2.1-4.1,5.6,5.6,0,0,1,.5-2.3,5.7,5.7,0,0,1,1.2-1.8Zm5.1,1.6c-.9,0-1.4.7-1.5,2.2h1.1c1,0,1.5-.3,1.5-1S260.5,191,259.8,191Z"/>
          <path class="cls-4" d="M272.8,197.1a1.2,1.2,0,0,0-.5-1l-1.3-.5-1.4-.5a2.2,2.2,0,0,1-1.3-.8,3.1,3.1,0,0,1-.5-1.7c0-2.7,2.1-4.1,6.3-4.1a9,9,0,0,1,4.4.9l.8.6a1.4,1.4,0,0,1,.2.9,1.2,1.2,0,0,1-.3.9.5.5,0,0,1-.5.3,2.7,2.7,0,0,1-1.1-.5,3.4,3.4,0,0,0-1.7-.5.7.7,0,0,0-.8.7c0,.4.2.6.6.8a3.3,3.3,0,0,0,1.2.5l1.4.5a3.1,3.1,0,0,1,1.3,1,3.5,3.5,0,0,1,.5,1.8c0,2.7-2.1,4-6.4,4a12.1,12.1,0,0,1-5-.9l-.9-.4a1.3,1.3,0,0,1-.3-1,1.2,1.2,0,0,1,.3-.9c.2-.2.3-.3.5-.3a3.4,3.4,0,0,1,1.2.5,6.3,6.3,0,0,0,2.2.5C272.4,197.9,272.8,197.6,272.8,197.1Z"/>
          <path class="cls-4" d="M294.1,189.4l2.1-.7,2.6-.2a9.5,9.5,0,0,1,3,.4,5,5,0,0,1,2.2,1,4,4,0,0,1,1.2,2.9c0,1.7-1.4,2.5-4.3,2.5l-3.2-.3a4.4,4.4,0,0,0,.6,2.1,2.1,2.1,0,0,0,1.7.6,6,6,0,0,0,2-.3l1.2-.5.9-.3a.9.9,0,0,1,.6.3,1.8,1.8,0,0,1,.3,1.1q0,.8-.3.9a1.2,1.2,0,0,1-.8.5,15.8,15.8,0,0,1-6,.9,8.6,8.6,0,0,1-5.2-1.5,4.8,4.8,0,0,1-2.1-4.1,5.6,5.6,0,0,1,.5-2.3,5.7,5.7,0,0,1,1.2-1.8Zm5.1,1.6c-.9,0-1.4.7-1.4,2.2h1.1c.9,0,1.4-.3,1.4-1S299.9,191,299.2,191Z"/>
          <path class="cls-4" d="M316.9,199v-5.4a1,1,0,0,0-.4-.9.9.9,0,0,0-.8-.4,1.2,1.2,0,0,0-.9.4,1,1,0,0,0-.4.9V195a36.8,36.8,0,0,1-.1,3.9,1.3,1.3,0,0,1-1.5,1h-4.2a1.1,1.1,0,0,1-.8-.3.9.9,0,0,1-.3-.7,41,41,0,0,1-.2-4.3,40.2,40.2,0,0,1,.1-4.1,3.2,3.2,0,0,1,.3-1.4,1.3,1.3,0,0,1,1-.3h4.3a1.3,1.3,0,0,1,1,.3,1.6,1.6,0,0,1,.3,1.1h0a5.7,5.7,0,0,1,4.1-1.7,5.9,5.9,0,0,1,3.9,1.2,4.2,4.2,0,0,1,1.4,3.2v6c0,.4-.1.7-.3.8a1.4,1.4,0,0,1-1.1.3h-4.2l-1-.2A1,1,0,0,1,316.9,199Z"/>
          <path class="cls-4" d="M336.5,183.9h4.2a1.3,1.3,0,0,1,1,.3,8.1,8.1,0,0,1,.3,1.1c0,1.8.1,4.2.1,7.3s-.1,5.2-.2,6.4a.9.9,0,0,1-.3.7,2.4,2.4,0,0,1-1.1.3h-3.8c-.9-.1-1.4-.4-1.4-1a51.1,51.1,0,0,1-.3-6.8c0-3.2.1-5.5.2-6.9a8.1,8.1,0,0,1,.3-1.1A1.3,1.3,0,0,1,336.5,183.9Z"/>
          <path class="cls-4" d="M352.5,188.4c4.8,0,7.2,1.6,7.2,4.7,0,1.3.1,2.5.1,3.6a11.6,11.6,0,0,1-.1,2.2,1.2,1.2,0,0,1-.3.9l-1,.2h-4.7l-1-.2a1.9,1.9,0,0,1-.2-.8h-.1a5.1,5.1,0,0,1-3.9,1.5,4.9,4.9,0,0,1-3-.9,2.6,2.6,0,0,1-1.2-2.4,3.2,3.2,0,0,1,.9-2.4,3.7,3.7,0,0,1,2-1.2,7.5,7.5,0,0,1,2.6-.4,12.4,12.4,0,0,1,2.7.3h0a2.4,2.4,0,0,0-.4-1.6,2,2,0,0,0-1.4-.5l-1.6.2-1,.3a3.1,3.1,0,0,1-1.2.6.8.8,0,0,1-.7-.4,2.2,2.2,0,0,1-.2-1c0-.4,0-.8.2-.9l.8-.6A13.4,13.4,0,0,1,352.5,188.4Zm-1.1,9c.7,0,1-.1,1-.4a9.8,9.8,0,0,0,.1-1.9c0-.3-.3-.4-.7-.4a2.1,2.1,0,0,0-1.2.3,1.4,1.4,0,0,0,0,2A.9.9,0,0,0,351.4,197.4Z"/>
          <path class="cls-4" d="M376,197.1a1,1,0,0,0-.5-1,3.3,3.3,0,0,0-1.2-.5l-1.5-.5a2.6,2.6,0,0,1-1.3-.8,3.1,3.1,0,0,1-.5-1.7c0-2.7,2.1-4.1,6.4-4.1a8.9,8.9,0,0,1,4.3.9,2.8,2.8,0,0,1,.8.6,1.4,1.4,0,0,1,.2.9,2,2,0,0,1-.2.9.9.9,0,0,1-.6.3,2.7,2.7,0,0,1-1.1-.5,3.4,3.4,0,0,0-1.7-.5.6.6,0,0,0-.7.7.7.7,0,0,0,.5.8,3.3,3.3,0,0,0,1.2.5l1.5.5a2.8,2.8,0,0,1,1.2,1,3.5,3.5,0,0,1,.5,1.8c0,2.7-2.1,4-6.4,4a12.1,12.1,0,0,1-5-.9l-.9-.4c-.2-.2-.2-.5-.2-1a2,2,0,0,1,.2-.9l.5-.3,1.3.5a5.4,5.4,0,0,0,2.1.5C375.7,197.9,376,197.6,376,197.1Z"/>
          <path class="cls-4" d="M393.2,188.4c4.8,0,7.2,1.6,7.3,4.7v5.8a1.2,1.2,0,0,1-.3.9,2.3,2.3,0,0,1-1.1.2h-4.6l-1-.2a1.1,1.1,0,0,1-.3-.8h0a5.4,5.4,0,0,1-4,1.5,4.8,4.8,0,0,1-2.9-.9,2.6,2.6,0,0,1-1.2-2.4,3.2,3.2,0,0,1,.8-2.4,4.5,4.5,0,0,1,2.1-1.2,7.5,7.5,0,0,1,2.6-.4,12.4,12.4,0,0,1,2.7.3h0a2.3,2.3,0,0,0-.5-1.6,1.7,1.7,0,0,0-1.4-.5l-1.5.2-1,.3a2.8,2.8,0,0,1-1.3.6.7.7,0,0,1-.6-.4,1.3,1.3,0,0,1-.3-1c0-.4.1-.8.3-.9a2.8,2.8,0,0,1,.8-.6A13.2,13.2,0,0,1,393.2,188.4Zm-1,9c.7,0,1-.1,1-.4v-1.9c0-.3-.2-.4-.7-.4a2,2,0,0,0-1.1.3,1.2,1.2,0,0,0-.4,1,1.5,1.5,0,0,0,.3,1A1.2,1.2,0,0,0,392.2,197.4Z"/>
          <path class="cls-4" d="M404.6,183.9h4.2a1.3,1.3,0,0,1,1,.3,2.9,2.9,0,0,1,.3,1.1c.1,1.8.1,4.2.1,7.3s0,5.2-.1,6.4a1.6,1.6,0,0,1-.4.7,2.4,2.4,0,0,1-1.1.3h-3.7c-1-.1-1.5-.4-1.5-1a56.8,56.8,0,0,1-.2-6.8c0-3.2,0-5.5.1-6.9a8.1,8.1,0,0,1,.3-1.1A1.3,1.3,0,0,1,404.6,183.9Z"/>
          <path class="cls-4" d="M419.5,189.7v5.4a1.5,1.5,0,0,0,.3,1,.9.9,0,0,0,.7.3,1.6,1.6,0,0,0,.9-.3l.6-1v-1.3a37.9,37.9,0,0,1,.1-4c0-.2.2-.4.4-.6a1.9,1.9,0,0,1,1-.4h4.2a1.4,1.4,0,0,1,.9.3.9.9,0,0,1,.3.6,43.3,43.3,0,0,1,.2,4.4c0,2-.1,3.3-.1,4a3.4,3.4,0,0,1-.4,1.5c-.1.2-.5.3-.9.3h-4.3c-.5,0-.9-.1-1-.3a2.8,2.8,0,0,1-.4-1.2h0a7.1,7.1,0,0,1-4.6,1.7,4.8,4.8,0,0,1-3.5-1.1,4.5,4.5,0,0,1-1.2-3.3c0-1.4-.1-2.6-.1-3.7s.1-1.9.1-2.3a1.1,1.1,0,0,1,.3-.8l1-.2h4.3c.4,0,.8.1.9.3A.8.8,0,0,1,419.5,189.7Z"/>
          <path class="cls-4" d="M446.2,199.9h-4.1c-.9,0-1.3-.6-1.3-1.5a8,8,0,0,1-2.1,1.5,5.7,5.7,0,0,1-2.4.5,4.5,4.5,0,0,1-3.6-1.4c-1-1-1.4-2.5-1.4-4.5s.8-4.3,2.5-5.3a6.6,6.6,0,0,1,3.2-.8,5.9,5.9,0,0,1,3.1.8c.3.2.5.2.5-.2v-3.2a2.8,2.8,0,0,1,.1-.9,1.4,1.4,0,0,1,.2-.7,1.3,1.3,0,0,1,1-.3h4.2a1.3,1.3,0,0,1,1,.3,1.8,1.8,0,0,1,.3,1.1c0,2.1.1,4.2.1,6.4v7.2a.8.8,0,0,1-.4.7A1.3,1.3,0,0,1,446.2,199.9Zm-7.3-7.8c-.9,0-1.3.7-1.3,2.2s.4,2.1,1.3,2.1a1.2,1.2,0,0,0,.9-.3,1.2,1.2,0,0,0,.4-1v-1.7a1.4,1.4,0,0,0-1.3-1.3Z"/>
        </g>
        <g>
          <path class="cls-3" d="M250.1,93.5v3.7c0,5.5.1,10.4.4,14.8a2.9,2.9,0,0,0,1.5,2.4,9.8,9.8,0,0,0,4.1,1l10.2.2c5,0,8.9-.1,11.5-.3a23.4,23.4,0,0,0,8.9-2.3,19.4,19.4,0,0,0,6.5-5.1,21.8,21.8,0,0,0,5.2-14.4h-14a9.6,9.6,0,0,1-2,6,7.1,7.1,0,0,1-5.9,2.7,1.5,1.5,0,0,1-1-.4,1.8,1.8,0,0,1-.4-.9V93.5Z"/>
          <path class="cls-3" d="M339.1,111.7a3.4,3.4,0,0,0,1.1,2.4,4.3,4.3,0,0,0,2.9,1.3l8.5.2,8-.2a4.2,4.2,0,0,0,2.7-1.2,4.4,4.4,0,0,0,1.3-2.5q.6-6.5.6-16.2v-2H338.6V96C338.6,101,338.8,106.2,339.1,111.7Z"/>
          <path class="cls-3" d="M52,111.1c4.2,3.6,9.9,5.5,17.1,5.5a99,99,0,0,0,10.3-.7,47.4,47.4,0,0,0,8.7-1.7c2-.7,3.1-1.7,3.3-3.1a19.5,19.5,0,0,0,.2-2.3,16.4,16.4,0,0,0-.2-2.2c-.2-1.9-1.3-2.9-3.4-2.9H79.1a7.1,7.1,0,0,1-5.9-3.3A12,12,0,0,1,71,93.5H45.8v2.1C45.8,102.3,47.8,107.4,52,111.1Z"/>
          <path class="cls-3" d="M308.3,95.6a3.4,3.4,0,0,0-2.2.6,3,3,0,0,0-.7,2.4v2.5a3.2,3.2,0,0,0,.7,2.4,2.8,2.8,0,0,0,2,.6h15.1a3.3,3.3,0,0,0,2.1-.6,2.8,2.8,0,0,0,.8-2.4V98.6a4,4,0,0,0-.7-2.4,3.3,3.3,0,0,0-2.1-.6Z"/>
          <path class="cls-3" d="M96.1,93.5a2.5,2.5,0,0,0-.1.8,18.1,18.1,0,0,0,2,8.2,21.6,21.6,0,0,0,5.5,7.1,29,29,0,0,0,9.6,5.1,44.5,44.5,0,0,0,13.1,1.9,36.4,36.4,0,0,0,11.8-2.4,24.9,24.9,0,0,0,8.8-5.5,23.7,23.7,0,0,0,5.2-7.4,21.1,21.1,0,0,0,1.8-7.8H138.1a7.3,7.3,0,0,1-2.5,5,8.5,8.5,0,0,1-6.1,2.3,10.1,10.1,0,0,1-6.2-1.9,6.1,6.1,0,0,1-2.5-5.1v-.3Z"/>
          <path class="cls-3" d="M374,97.7c2.5,2.1,5.7,3.1,9.7,3.1a19.6,19.6,0,0,0,8.1-1.7c-1,2.8-2.4,4.7-4.3,5.8a12.8,12.8,0,0,1-6.7,1.7H378a7.2,7.2,0,0,0-3.5.8,3.4,3.4,0,0,0-1.3,3.1,8,8,0,0,0,1.2,4.3,4.1,4.1,0,0,0,3.3,2.1h4.5a50.5,50.5,0,0,0,15-2.5,26.2,26.2,0,0,0,9.9-5.8,21.7,21.7,0,0,0,5.3-7.7,21,21,0,0,0,1.7-7.4H370.9A10,10,0,0,0,374,97.7Z"/>
          <path class="cls-3" d="M429.2,102.7a7.6,7.6,0,0,0-5.7,2,6.7,6.7,0,0,0-2.1,4.9,5.5,5.5,0,0,0,2.2,4.7,8.1,8.1,0,0,0,5.3,1.8,7.2,7.2,0,0,0,5.3-2.1,6.8,6.8,0,0,0,2.1-4.8,7.3,7.3,0,0,0-1.7-4.6C433.4,103.3,431.6,102.7,429.2,102.7Z"/>
          <path class="cls-3" d="M217.6,95.1c0,7.5.2,13,.5,16.6a3.9,3.9,0,0,0,1.2,2.4,4.3,4.3,0,0,0,2.8,1.2c2.7.2,5.5.3,8.5.3s5.7-.1,7.9-.3a4.3,4.3,0,0,0,2.8-1.2,4.7,4.7,0,0,0,1.3-2.4c.3-3.6.4-9.1.4-16.6V93.5H217.6Z"/>
          <path class="cls-3" d="M179.4,115.5a14.8,14.8,0,0,0,5.7,1.1,14,14,0,0,0,5.8-1.2,7.2,7.2,0,0,0,3.7-3.1c2.1-4.1,5.1-10.3,8.9-18.5v-.3H165.8c3.1,6.3,6.4,12.5,9.9,18.9A7.2,7.2,0,0,0,179.4,115.5Z"/>
        </g>
      </g>
    </g>
  </g>
</svg>
