<svg xmlns="http://www.w3.org/2000/svg" width="484.2" height="196.6" viewBox="0 0 484.2 196.6">
  <defs>
    <style>
      .cls-1 {
        isolation: isolate;
      }

      .cls-2 {
        fill: #4f2fef;
      }

      .cls-3 {
        fill: #fff;
      }

      .cls-4 {
        mix-blend-mode: multiply;
      }

      .cls-5 {
        fill: #58f4e1;
      }
    </style>
  </defs>
  <g class="cls-1">
    <g id="Layer_2" data-name="Layer 2">
      <g id="Layer_1-2" data-name="Layer 1">
        <rect class="cls-2" y="99.6" width="484.2" height="36.77"/>
        <rect class="cls-2" y="159.9" width="484.2" height="36.77"/>
        <rect class="cls-2" y="21" width="484.2" height="36.77"/>
        <g>
          <path class="cls-3" d="M67.6,1.5l19.8-.2,16.5.2a12.1,12.1,0,0,1,8,3.6,10,10,0,0,1,3.6,7.6,8.3,8.3,0,0,1-4.6,7.8c-.3.2-.5.4-.5.6s.2.4.5.5a11,11,0,0,1,7.8,10.8,13.1,13.1,0,0,1-3.9,9.2c-2.6,2.7-6.6,4.2-11.9,4.4l-11.7.4-23.9-.2a4.1,4.1,0,0,1-3-1.2A4.3,4.3,0,0,1,63,42.3c-.4-3.8-.5-9.3-.5-16.4s.1-13.3.4-18.4A9.2,9.2,0,0,1,64,3Q64.9,1.7,67.6,1.5Zm20.9,8.6v5.2c0,.9.5,1.3,1.5,1.3,4.3,0,6.5-1.3,6.5-3.7s-1.9-4.2-5.8-4.2H90C89,8.7,88.5,9.2,88.5,10.1Zm0,17.6V36a1.3,1.3,0,0,0,.4,1,1.2,1.2,0,0,0,1,.4,12.4,12.4,0,0,0,6.4-1.5A5.4,5.4,0,0,0,98.8,31a4.5,4.5,0,0,0-2.6-4.5,10,10,0,0,0-4.6-1H90.3C89.1,25.6,88.5,26.3,88.5,27.7Z"/>
          <path class="cls-3" d="M168.1,34c.8.8,3.7,4,8.6,9.6a1.9,1.9,0,0,1,.5,1c0,1.1-.5,1.7-1.5,1.7H162.1a4.6,4.6,0,0,1-3.4-1.5l-5.5-8.3-.8-.5c-.7-.3-1,0-1,.8v6.6c0,1.8-1.2,2.8-3.6,2.9l-7.9.2-10.4-.3a4.1,4.1,0,0,1-2.9-1.3,5.1,5.1,0,0,1-1.4-2.6c-.3-3.8-.5-9.7-.5-17.7s.2-13.9.4-17.6,2.1-5.5,5.6-5.5h27.1a17.1,17.1,0,0,1,13,5.9,19.6,19.6,0,0,1,5,13,16.1,16.1,0,0,1-1.9,7.8A15.4,15.4,0,0,1,168.1,34ZM151.3,14.8l.2,11.9c0,.8.4,1.2,1.3,1.2a8.8,8.8,0,0,0,6.2-2.2,6.8,6.8,0,0,0,2.3-5.2,7.2,7.2,0,0,0-2.1-5.2,8.5,8.5,0,0,0-6.3-2.2C151.8,13.1,151.3,13.7,151.3,14.8Z"/>
          <path class="cls-3" d="M185.2,45a5.9,5.9,0,0,1-1.6-3.9c-.2-1.8-.4-7.2-.4-16.3s.2-14.9.5-17.7,1.8-5.4,4.5-5.5h38.2c2.5,0,3.8,1.6,3.8,4.8s-1.1,3.7-3.3,3.7H212.8a2.9,2.9,0,0,0-2.2.9,3.6,3.6,0,0,0-.8,2.3v4.6c0,1.3.6,2,1.8,2h11.6a3.7,3.7,0,0,1,1.6.2,2.2,2.2,0,0,1,1,1.1,7.4,7.4,0,0,1,.4,3c0,1.4-.2,2.4-.7,2.8a3.3,3.3,0,0,1-2.4.7H212.7a2.7,2.7,0,0,0-2.2.8,3.7,3.7,0,0,0-.7,2.5V34c0,1.9.9,2.8,2.7,2.8h15.9a3.4,3.4,0,0,1,2,.6q.9.8.9,3a6.9,6.9,0,0,1-1.1,4,2.9,2.9,0,0,1-2.5,1.8H188.2A4.1,4.1,0,0,1,185.2,45Z"/>
          <path class="cls-3" d="M260,47.5c-7.6,0-13.7-1.9-18.2-5.8s-6.6-9.5-6.6-16.6a29,29,0,0,1,2.1-11.4,19.4,19.4,0,0,1,6.1-7.9C248.5,1.9,255.3,0,263.7,0a61.1,61.1,0,0,1,16.4,2.2c2.1.7,3.2,2.4,3.2,5.1s-1.2,5.5-3.5,5.5l-3.8-.5a24.8,24.8,0,0,0-4.4-.5,8.5,8.5,0,0,0-7.1,3.1,12.3,12.3,0,0,0-2.4,7.6,13.4,13.4,0,0,0,2.3,7.7,7.5,7.5,0,0,0,6.3,3.4l9.5.2c2.2,0,3.4,1,3.6,3.1a9,9,0,0,1,.2,2.3,9.7,9.7,0,0,1-.2,2.4c-.2,1.6-1.4,2.7-3.6,3.4a51.2,51.2,0,0,1-9.2,1.8A87.8,87.8,0,0,1,260,47.5Z"/>
          <path class="cls-3" d="M351.7,42.2a3.8,3.8,0,0,1-1.3,2.6,4.2,4.2,0,0,1-3,1.3l-8.6.3-8-.3c-2.4-.2-3.6-1.2-3.7-3.1s-.1-1.6-.2-2.8-.1-2.2-.1-3.1a4,4,0,0,0-.7-2.1,2.8,2.8,0,0,0-2.2-.8h-4.8a2.6,2.6,0,0,0-2.1.8,3.3,3.3,0,0,0-.7,2.1c-.1.9-.1,1.9-.2,3.1s-.1,2.1-.1,2.8-1.4,2.9-3.7,3.1l-8.4.3-9.1-.3a4.2,4.2,0,0,1-3-1.3,3.8,3.8,0,0,1-1.3-2.6c-.3-3.7-.5-9.8-.5-18.1s.1-13.7.3-16.2.5-4.2,1.1-5.1,1.8-1.4,3.6-1.4h15.6a5.2,5.2,0,0,1,3.8,1.5,5.4,5.4,0,0,1,1.6,4V20.3c0,1.6.7,2.3,2,2.3h7.1c1.3,0,2-.7,2-2.3V6.9a5.7,5.7,0,0,1,1.5-4,5.4,5.4,0,0,1,3.8-1.5h14.8c1.8,0,3,.5,3.6,1.4s1,2.6,1.1,5.1.3,7.9.3,16.2S352,38.5,351.7,42.2Z"/>
          <path class="cls-3" d="M400.9,4.5l20.9,35.3a6.9,6.9,0,0,1,1.3,3.6,2.2,2.2,0,0,1-1.2,2.1,4.4,4.4,0,0,1-2.6.7H398.7c-2.1,0-3.5-.4-4.1-1.1s-.4-.7-.7-1.4l-1.8-3.9q-.9-1.9-3.9-2.1H376.1l-2,.2a2.3,2.3,0,0,0-1.2,1.2l-2.5,5.1a3.8,3.8,0,0,1-1.4,1.6,4.6,4.6,0,0,1-2.2.4H361c-1.7,0-2.5-.6-2.7-1.8v-.5a5.1,5.1,0,0,1,.9-2.8l20-35.3c2-3.3,5.1-5,9.4-5h5.1C397.1.8,399.5,2,400.9,4.5ZM380.2,20.8l-2.9,5.9a1.9,1.9,0,0,0-.3,1c0,1.1.5,1.7,1.6,1.7h5.8a2.6,2.6,0,0,0,1.9-.7,2.8,2.8,0,0,0,.5-1.2,3.6,3.6,0,0,0-.2-1L384.2,21c-.6-1.1-1.2-1.7-2-1.7A2.3,2.3,0,0,0,380.2,20.8Z"/>
          <path class="cls-3" d="M24.2,123a26.6,26.6,0,0,1-6.8-2.4l-2.6-1.7a4.6,4.6,0,0,1-1.6-3.7,14.2,14.2,0,0,1,.4-3.6c.6-2,1.6-3.1,3-3.1a29.9,29.9,0,0,1,4.5,1.5,20.5,20.5,0,0,0,6,1.4c2.2,0,3.3-.9,3.3-2.6a3.6,3.6,0,0,0-1.6-2.8,23.8,23.8,0,0,0-3.9-2.5c-1.5-.8-3-1.8-4.6-2.8a14,14,0,0,1-3.9-4.4,13.3,13.3,0,0,1-1.6-6.5c0-4,2-7.3,6.1-9.6s9.1-3.5,15.5-3.5,11.4.7,15.1,2,5.6,3.1,5.6,5.4A9,9,0,0,1,56,88.5c-.8,1.2-1.6,1.9-2.5,1.9a19.2,19.2,0,0,1-2.9-1,12,12,0,0,0-4.6-1c-2.7,0-4,1-4,3.1a3.4,3.4,0,0,0,1.9,2.8,27.9,27.9,0,0,0,4.6,2.5L54,99.4a13.9,13.9,0,0,1,4.6,4.1,9.8,9.8,0,0,1,2,6.2,10.3,10.3,0,0,1-2.4,6.6,15.2,15.2,0,0,1-6.1,4.7,44.4,44.4,0,0,1-17.7,3.2A40.8,40.8,0,0,1,24.2,123Z"/>
          <path class="cls-3" d="M107.4,81.2l20.9,35.4a8,8,0,0,1,1.3,3.5,2.4,2.4,0,0,1-1.2,2.2,6,6,0,0,1-2.7.7H105.1c-2.1,0-3.4-.4-4-1.2a6.9,6.9,0,0,1-.7-1.3l-1.9-4q-.7-1.8-3.9-2.1h-12a5.8,5.8,0,0,0-2.1.3c-.5.1-.8.5-1.1,1.1L76.9,121a3.4,3.4,0,0,1-1.4,1.5,4.6,4.6,0,0,1-2.3.5H67.5q-2.6,0-2.7-1.8a1.1,1.1,0,0,1-.1-.5,4.6,4.6,0,0,1,1-2.9l20-35.2c1.9-3.4,5-5,9.3-5h5.1C103.6,77.6,106,78.8,107.4,81.2ZM86.7,97.6l-3,5.8a2,2,0,0,0-.2,1c0,1.1.5,1.7,1.6,1.7h5.8c.9,0,1.5-.2,1.8-.7a1.6,1.6,0,0,0,.5-1.2,3.4,3.4,0,0,0-.1-1l-2.5-5.5c-.5-1.1-1.2-1.7-2-1.7S87.2,96.6,86.7,97.6Z"/>
          <path class="cls-3" d="M162.3,93.6v12.8a7.7,7.7,0,0,0,.9,4.2c.6.9,1.8,1.4,3.6,1.4h16.2c2,0,2.9,1.5,2.9,4.4a10.8,10.8,0,0,1-.8,5c-.6,1-1.7,1.5-3.4,1.6l-17.8.2H141.3a6.3,6.3,0,0,1-3.8-1.1,4.5,4.5,0,0,1-1.6-3.1c-.3-3.7-.5-9.6-.5-17.6s.1-13.4.3-16.2.6-4.6,1.2-5.5,1.7-1.4,3.5-1.4h17.1c1.8,0,3,.5,3.6,1.4a11.2,11.2,0,0,1,1,4.6C162.2,86.2,162.3,89.4,162.3,93.6Z"/>
          <path class="cls-3" d="M231.6,81.2l20.9,35.4a7.6,7.6,0,0,1,1.2,3.5,2.3,2.3,0,0,1-1.1,2.2,6,6,0,0,1-2.7.7H229.3c-2.1,0-3.4-.4-4-1.2a6.9,6.9,0,0,1-.7-1.3l-1.9-4q-.7-1.8-3.9-2.1H206.7a5.3,5.3,0,0,0-2,.3,1.8,1.8,0,0,0-1.2,1.1l-2.4,5.2c-.5.8-.9,1.3-1.5,1.5a4.2,4.2,0,0,1-2.2.5h-5.7q-2.5,0-2.7-1.8a1.1,1.1,0,0,1-.1-.5,4.6,4.6,0,0,1,1-2.9l20-35.2c1.9-3.4,5-5,9.3-5h5.1C227.7,77.6,230.1,78.8,231.6,81.2ZM210.8,97.6l-2.9,5.8a2.2,2.2,0,0,0-.3,1,1.5,1.5,0,0,0,1.6,1.7h5.9c.9,0,1.5-.2,1.8-.7a1.6,1.6,0,0,0,.5-1.2,1.8,1.8,0,0,0-.2-1l-2.4-5.5c-.5-1.1-1.2-1.7-2-1.7A2.4,2.4,0,0,0,210.8,97.6Z"/>
          <path class="cls-3" d="M302.9,110.7l8.6,9.6a2.1,2.1,0,0,1,.5,1.1c0,1.1-.5,1.6-1.5,1.6H296.9a5.1,5.1,0,0,1-3.4-1.4l-5.5-8.4-.8-.5c-.6-.2-1,.1-1,.9v6.5c0,1.8-1.2,2.8-3.6,2.9s-5,.2-7.9.2l-10.3-.3a4.2,4.2,0,0,1-3-1.3,3.8,3.8,0,0,1-1.3-2.6c-.4-3.8-.5-9.6-.5-17.7s.1-13.9.3-17.5,2.2-5.6,5.6-5.6h13.2l13.9.2a16.8,16.8,0,0,1,13,5.9,18.8,18.8,0,0,1,5.1,12.9,16.2,16.2,0,0,1-2,7.8A14.7,14.7,0,0,1,302.9,110.7ZM286.2,91.6v11.8c0,.8.4,1.2,1.3,1.2a8.5,8.5,0,0,0,6.3-2.2,7,7,0,0,0,2.2-5.2A7.3,7.3,0,0,0,294,92a8.6,8.6,0,0,0-6.3-2.2Q286.2,89.8,286.2,91.6Z"/>
          <path class="cls-3" d="M323.3,78.2h17.2a4.2,4.2,0,0,1,3.5,1.3c.6.9,1,2.8,1.2,5.6s.2,8.2.2,16.2-.1,13.9-.5,17.7a3.8,3.8,0,0,1-1.3,2.6,4.2,4.2,0,0,1-3,1.3q-3.6.3-8.4.3c-3.2,0-6.2-.1-9.1-.3a4.6,4.6,0,0,1-3-1.3,5,5,0,0,1-1.3-2.6c-.3-3.8-.5-9.6-.5-17.7s.1-13.4.3-16.2.6-4.7,1.2-5.6S321.5,78.2,323.3,78.2Z"/>
          <path class="cls-3" d="M394.2,81.2l20.9,35.4a8,8,0,0,1,1.3,3.5,2.4,2.4,0,0,1-1.2,2.2,6,6,0,0,1-2.7.7H391.9c-2.1,0-3.4-.4-4-1.2a6.9,6.9,0,0,1-.7-1.3l-1.9-4q-.7-1.8-3.9-2.1h-12a5.8,5.8,0,0,0-2.1.3c-.5.1-.8.5-1.1,1.1l-2.5,5.2a3.4,3.4,0,0,1-1.4,1.5,4.9,4.9,0,0,1-2.3.5h-5.7q-2.6,0-2.7-1.8a1.1,1.1,0,0,1-.1-.5,4.6,4.6,0,0,1,1-2.9l20-35.2c1.9-3.4,5-5,9.3-5h5.1C390.3,77.6,392.8,78.8,394.2,81.2ZM373.4,97.6l-2.9,5.8a2.2,2.2,0,0,0-.3,1,1.5,1.5,0,0,0,1.6,1.7h5.9c.9,0,1.5-.2,1.8-.7a1.6,1.6,0,0,0,.5-1.2,1.8,1.8,0,0,0-.2-1l-2.4-5.5c-.5-1.1-1.2-1.7-2-1.7S374,96.6,373.4,97.6Z"/>
          <path class="cls-3" d="M449.1,93.6v12.8a7.7,7.7,0,0,0,.9,4.2c.6.9,1.8,1.4,3.6,1.4h16.2c1.9,0,2.9,1.5,2.9,4.4a12.3,12.3,0,0,1-.8,5c-.6,1-1.7,1.5-3.4,1.6l-17.8.2H428.1a6.3,6.3,0,0,1-3.8-1.1,4.5,4.5,0,0,1-1.6-3.1c-.4-3.7-.5-9.6-.5-17.6s.1-13.4.3-16.2.5-4.6,1.1-5.5,1.8-1.4,3.6-1.4h17.1c1.8,0,3,.5,3.5,1.4a9.6,9.6,0,0,1,1.1,4.6C449,86.2,449.1,89.4,449.1,93.6Z"/>
        </g>
        <g>
          <path class="cls-3" d="M22.2,174.8l2.1-.7,2.6-.2a9.5,9.5,0,0,1,3,.4,5,5,0,0,1,2.2,1,4,4,0,0,1,1.2,2.9c0,1.7-1.5,2.5-4.3,2.5l-3.2-.3a3.5,3.5,0,0,0,.6,2.1,1.8,1.8,0,0,0,1.6.6,5.3,5.3,0,0,0,2-.3l1.3-.5.8-.3a.6.6,0,0,1,.6.3,1.4,1.4,0,0,1,.4,1.1c0,.4-.1.8-.3.9a1.6,1.6,0,0,1-.8.5,15.8,15.8,0,0,1-6,.9,8.4,8.4,0,0,1-5.2-1.5,4.9,4.9,0,0,1-2.1-4.2,5.9,5.9,0,0,1,.5-2.3,6.6,6.6,0,0,1,1.2-1.7A8.1,8.1,0,0,1,22.2,174.8Zm5.1,1.6c-.9,0-1.4.7-1.5,2.2h1.1c1,0,1.5-.4,1.5-1S28,176.4,27.3,176.4Z"/>
          <path class="cls-3" d="M45,184.4V179a1.8,1.8,0,0,0-.4-1,1.1,1.1,0,0,0-.8-.3,1.2,1.2,0,0,0-.9.4,1,1,0,0,0-.4.9v1.4c0,1.9-.1,3.2-.1,3.9a1.3,1.3,0,0,1-1.5,1H36.8a1.1,1.1,0,0,1-.8-.3,1.6,1.6,0,0,1-.4-.7c-.1-.9-.1-2.4-.1-4.4a39,39,0,0,1,.1-4,2.2,2.2,0,0,1,.3-1.4,1.3,1.3,0,0,1,1-.3h4.3a1.3,1.3,0,0,1,1,.3,2.4,2.4,0,0,1,.3,1.1h0a5.7,5.7,0,0,1,4.1-1.7,5.6,5.6,0,0,1,3.8,1.2,3.9,3.9,0,0,1,1.5,3.2v6a1,1,0,0,1-.3.8,1.6,1.6,0,0,1-1.1.3H46.3l-1-.2A1.1,1.1,0,0,1,45,184.4Z"/>
          <path class="cls-3" d="M66.2,174.8l2-.7,2.7-.2a10.3,10.3,0,0,1,3,.4,5.1,5.1,0,0,1,2.1,1,4,4,0,0,1,1.2,2.9c0,1.7-1.4,2.5-4.3,2.5l-3.1-.3a3.6,3.6,0,0,0,.5,2.1,2.1,2.1,0,0,0,1.7.6,5.6,5.6,0,0,0,2-.3l1.3-.5.8-.3a.9.9,0,0,1,.6.3,1.8,1.8,0,0,1,.4,1.1c0,.4-.1.8-.3.9a1.9,1.9,0,0,1-.9.5,15.5,15.5,0,0,1-5.9.9,9,9,0,0,1-5.3-1.5,5,5,0,0,1-2-4.2,5.9,5.9,0,0,1,.4-2.3,7,7,0,0,1,1.3-1.7A8.1,8.1,0,0,1,66.2,174.8Zm5.1,1.6c-.9,0-1.4.7-1.5,2.2h1.1c1,0,1.5-.4,1.5-1S72,176.4,71.3,176.4Z"/>
          <path class="cls-3" d="M80.9,169.3h4.2a1.3,1.3,0,0,1,1,.3,5.3,5.3,0,0,1,.3,1.1c.1,1.8.1,4.2.1,7.3s-.1,5.2-.2,6.4a.9.9,0,0,1-.3.6,2.3,2.3,0,0,1-1.1.4H81.2c-1-.1-1.5-.4-1.5-1a51.1,51.1,0,0,1-.3-6.8c0-3.2.1-5.5.2-6.9a5.3,5.3,0,0,1,.3-1.1A1.3,1.3,0,0,1,80.9,169.3Z"/>
          <path class="cls-3" d="M102.8,182.5a1.2,1.2,0,0,0-.5-1L101,181l-1.5-.5a1.8,1.8,0,0,1-1.2-.9,2.1,2.1,0,0,1-.6-1.6c0-2.8,2.2-4.1,6.4-4.1a9.3,9.3,0,0,1,4.4.9l.7.5c.2.2.2.5.2.9s0,.8-.2,1-.3.3-.5.3a2.2,2.2,0,0,1-1.1-.5,4.1,4.1,0,0,0-1.8-.5.6.6,0,0,0-.7.7.9.9,0,0,0,.5.8l1.2.5,1.5.5a2.3,2.3,0,0,1,1.2,1,2.5,2.5,0,0,1,.5,1.7c0,2.8-2.1,4.1-6.3,4.1a12.3,12.3,0,0,1-5.1-.9,1.2,1.2,0,0,1-.8-.5q-.3-.2-.3-.9c0-.4.1-.8.3-.9l.4-.3a3,3,0,0,1,1.3.5,5.4,5.4,0,0,0,2.2.4C102.4,183.2,102.8,183,102.8,182.5Z"/>
          <path class="cls-3" d="M115.3,174.8l2.1-.7,2.6-.2a10.3,10.3,0,0,1,3,.4,4.1,4.1,0,0,1,2.1,1,3.7,3.7,0,0,1,1.3,2.9c0,1.7-1.5,2.5-4.3,2.5a17.3,17.3,0,0,1-3.2-.3,3.6,3.6,0,0,0,.5,2.1,2.2,2.2,0,0,0,1.7.6,5.6,5.6,0,0,0,2-.3l1.3-.5.8-.3a.6.6,0,0,1,.6.3,1.4,1.4,0,0,1,.4,1.1c0,.4-.1.8-.3.9a1.9,1.9,0,0,1-.9.5,15.2,15.2,0,0,1-5.9.9,8.4,8.4,0,0,1-5.2-1.5,4.9,4.9,0,0,1-2.1-4.2,5.9,5.9,0,0,1,.5-2.3,6.6,6.6,0,0,1,1.2-1.7A8.1,8.1,0,0,1,115.3,174.8Zm5.1,1.6c-.9,0-1.4.7-1.5,2.2H120c1,0,1.5-.4,1.5-1S121.1,176.4,120.4,176.4Z"/>
          <path class="cls-3" d="M137.8,177.3a1.6,1.6,0,0,0-1.5.7,2.5,2.5,0,0,0-.5,1.7,2.5,2.5,0,0,0,.6,1.7,2.1,2.1,0,0,0,1.9.8l1.2-.3,1.1-.2c.6,0,.8.5.9,1.5s-.1.8-.1,1.2a1.3,1.3,0,0,1-.8.8,16.1,16.1,0,0,1-3.9.7l-2.8-.2a5.4,5.4,0,0,1-2.1-.5,3.2,3.2,0,0,1-1.8-1,4,4,0,0,1-1.2-1.6,6.8,6.8,0,0,1-.5-2.7,6.4,6.4,0,0,1,.7-2.8,5,5,0,0,1,1.9-1.9,12.8,12.8,0,0,1,5.8-1.2,16.4,16.4,0,0,1,3.7.5c.6.2.8.8.8,1.8s-.2,1.5-.7,1.5l-1.2-.2Z"/>
          <path class="cls-3" d="M144.4,177.3c0-.2-.2-.3-.5-.3s-.9-.2-1-.6a2.2,2.2,0,0,1-.1-.9,1.7,1.7,0,0,1,.1-.8l.7-.4.8-.4,1.6-1.3,1.7-1.3a2.1,2.1,0,0,1,1.2-.3H151a.9.9,0,0,1,.3.6v2.1c0,.3.1.5.4.5H154l.8.2a1.6,1.6,0,0,1,.3,1.1c0,.6-.1,1-.3,1.1s-.4.3-.8.3h-2.6a.7.7,0,0,0-.1.5v2.6a2.1,2.1,0,0,0,.5,1.3,2.5,2.5,0,0,0,1.5.5l1.1-.3,1-.2c.4,0,.6.6.6,1.7s-.3,1.4-.7,1.6l-2,.4h-2.6a9.7,9.7,0,0,1-2.4-.2,6.5,6.5,0,0,1-2.1-.7c-1.2-.7-1.8-2.1-1.8-4.1Z"/>
          <path class="cls-3" d="M165.7,185.8c-5.4,0-8.2-2-8.2-6a5.4,5.4,0,0,1,2.1-4.4,10.6,10.6,0,0,1,6.1-1.5,10.7,10.7,0,0,1,6.2,1.5,5.3,5.3,0,0,1,2,4.4C173.9,183.8,171.2,185.8,165.7,185.8Zm0-3.5c.9,0,1.3-.8,1.3-2.5a4.2,4.2,0,0,0-.2-1.7,1.1,1.1,0,0,0-1.1-.6,1,1,0,0,0-1,.6,4,4,0,0,0-.3,1.7C164.4,181.5,164.9,182.3,165.7,182.3Z"/>
          <path class="cls-3" d="M177.6,174.2h4.2a1.6,1.6,0,0,1,1.1.3,1.2,1.2,0,0,1,.3.9v.8a4.2,4.2,0,0,1,4-2.3,2,2,0,0,1,1.5.6,2.1,2.1,0,0,1,.6,1.6,4.5,4.5,0,0,1-.5,1.9,1.7,1.7,0,0,1-1.5,1,3,3,0,0,1-1.3-.4,2.8,2.8,0,0,0-1.2-.5,1.3,1.3,0,0,0-1,.4c-.4.2-.5.6-.5,1.1a39.8,39.8,0,0,1-.2,4.7.8.8,0,0,1-.4.7,1.3,1.3,0,0,1-1,.3h-4.2a1,1,0,0,1-.8-.3.8.8,0,0,1-.4-.7,41.7,41.7,0,0,1-.2-4.4c0-1.9.1-3.3.1-4a2.9,2.9,0,0,1,.4-1.4C176.7,174.3,177.1,174.2,177.6,174.2Z"/>
          <path class="cls-3" d="M204.2,182.5a1,1,0,0,0-.5-1,3.3,3.3,0,0,0-1.2-.5l-1.5-.5a2.2,2.2,0,0,1-1.3-.9,2.5,2.5,0,0,1-.5-1.6c0-2.8,2.1-4.1,6.4-4.1a8.9,8.9,0,0,1,4.3.9l.8.5a2,2,0,0,1,.2.9,2.2,2.2,0,0,1-.2,1,.9.9,0,0,1-.6.3,2.7,2.7,0,0,1-1.1-.5,3.4,3.4,0,0,0-1.7-.5c-.5,0-.7.2-.7.7a.7.7,0,0,0,.5.8,3.3,3.3,0,0,0,1.2.5l1.5.5a2.8,2.8,0,0,1,1.2,1,3.1,3.1,0,0,1,.5,1.7c0,2.8-2.1,4.1-6.4,4.1a12.1,12.1,0,0,1-5-.9,1.9,1.9,0,0,1-.9-.5,1.4,1.4,0,0,1-.2-.9,1.7,1.7,0,0,1,.2-.9l.5-.3,1.3.5a5.2,5.2,0,0,0,2.1.4C203.9,183.2,204.2,183,204.2,182.5Z"/>
          <path class="cls-3" d="M221.4,173.8c4.8,0,7.2,1.6,7.3,4.7v5.8c0,.4-.1.7-.3.8a1.4,1.4,0,0,1-1.1.3h-4.6a1.3,1.3,0,0,1-1-.3.8.8,0,0,1-.3-.7h0a5.4,5.4,0,0,1-4,1.5,4.8,4.8,0,0,1-2.9-.9,2.6,2.6,0,0,1-1.2-2.4,3.6,3.6,0,0,1,.8-2.4,5.7,5.7,0,0,1,2.1-1.3,10.9,10.9,0,0,1,2.6-.3l2.7.3h0a2.3,2.3,0,0,0-.5-1.6,1.6,1.6,0,0,0-1.3-.5l-1.6.2-1,.3a2.8,2.8,0,0,1-1.3.6.7.7,0,0,1-.6-.4,1.8,1.8,0,0,1,0-2l.8-.5A13.2,13.2,0,0,1,221.4,173.8Zm-1,9c.7,0,1-.1,1-.4v-1.9c0-.3-.2-.5-.7-.5a2.1,2.1,0,0,0-1.1.4,1.1,1.1,0,0,0-.4,1,1.5,1.5,0,0,0,.3,1A1.2,1.2,0,0,0,220.4,182.8Z"/>
          <path class="cls-3" d="M232.8,169.3H237a1.3,1.3,0,0,1,1,.3,1.6,1.6,0,0,1,.3,1.1c.1,1.8.1,4.2.1,7.3s0,5.2-.1,6.4l-.4.6a2.3,2.3,0,0,1-1.1.4h-3.7c-1-.1-1.5-.4-1.5-1a56.8,56.8,0,0,1-.2-6.8c0-3.2,0-5.5.1-6.9a5.3,5.3,0,0,1,.3-1.1A1.3,1.3,0,0,1,232.8,169.3Z"/>
          <path class="cls-3" d="M247.7,175.1v5.4a1.7,1.7,0,0,0,.3,1,.9.9,0,0,0,.7.3,1.2,1.2,0,0,0,.9-.4,3.5,3.5,0,0,0,.6-.9v-1.3a37.9,37.9,0,0,1,.1-4,1.3,1.3,0,0,1,.4-.7,2.1,2.1,0,0,1,1.1-.3h4.1l.9.3a1.1,1.1,0,0,1,.3.7,43.3,43.3,0,0,1,.2,4.4c0,2-.1,3.3-.1,4s-.2,1.2-.4,1.4-.4.4-.9.4h-4.3c-.5,0-.9-.1-1-.4a2.3,2.3,0,0,1-.4-1.1h0a7.1,7.1,0,0,1-4.6,1.7,5.2,5.2,0,0,1-3.5-1.1,4.5,4.5,0,0,1-1.2-3.3v-6a1,1,0,0,1,.3-.8c.2-.2.5-.2,1-.2h4.3c.4,0,.8.1.9.3A.8.8,0,0,1,247.7,175.1Z"/>
          <path class="cls-3" d="M274.4,185.3h-4.1a1.3,1.3,0,0,1-1.3-1.5,8,8,0,0,1-2.1,1.5,7.9,7.9,0,0,1-2.4.5,4.9,4.9,0,0,1-3.6-1.4c-1-1-1.4-2.5-1.4-4.5s.8-4.3,2.5-5.3a6.6,6.6,0,0,1,3.2-.8,5.9,5.9,0,0,1,3.1.8c.3.2.5.1.5-.2v-3.2a2.8,2.8,0,0,1,.1-.9,1.4,1.4,0,0,1,.2-.7,1.3,1.3,0,0,1,1-.3h4.2a1.3,1.3,0,0,1,1,.3,1.8,1.8,0,0,1,.3,1.1c0,2.1.1,4.2.1,6.4v7.2a.8.8,0,0,1-.4.7A1.3,1.3,0,0,1,274.4,185.3Zm-7.3-7.8c-.8,0-1.3.7-1.3,2.2s.5,2.1,1.3,2.1a1.2,1.2,0,0,0,.9-.3,1.3,1.3,0,0,0,.4-1v-1.7a1.4,1.4,0,0,0-1.3-1.3Z"/>
          <path class="cls-3" d="M301.3,185.3h-4a1.4,1.4,0,0,1-1.4-1.5,5.7,5.7,0,0,1-2.1,1.5,6.8,6.8,0,0,1-2.3.5,4.9,4.9,0,0,1-3.6-1.4,6.1,6.1,0,0,1-1.5-4.5c0-2.5.9-4.3,2.6-5.3a6.6,6.6,0,0,1,3.2-.8,6.2,6.2,0,0,1,3.1.8c.3.2.4.1.5-.2v-4.1a.9.9,0,0,1,.3-.7,1.3,1.3,0,0,1,1-.3h4.2a1.3,1.3,0,0,1,1,.3,2.9,2.9,0,0,1,.3,1.1v13.6a1,1,0,0,1-.4.7A1.6,1.6,0,0,1,301.3,185.3Zm-7.2-7.8c-.9,0-1.3.7-1.3,2.2s.4,2.1,1.3,2.1l.9-.3a1.3,1.3,0,0,0,.4-1v-1.7a1,1,0,0,0-.4-.9A1.2,1.2,0,0,0,294.1,177.5Z"/>
          <path class="cls-3" d="M308.1,174.8l2.1-.7,2.6-.2a10.3,10.3,0,0,1,3,.4,4.1,4.1,0,0,1,2.1,1,3.7,3.7,0,0,1,1.3,2.9c0,1.7-1.5,2.5-4.3,2.5a17.3,17.3,0,0,1-3.2-.3,3.5,3.5,0,0,0,.6,2.1,1.8,1.8,0,0,0,1.6.6,5.6,5.6,0,0,0,2-.3l1.3-.5.8-.3a.6.6,0,0,1,.6.3,1.4,1.4,0,0,1,.4,1.1c0,.4-.1.8-.3.9a1.9,1.9,0,0,1-.9.5,14.9,14.9,0,0,1-5.9.9,8.4,8.4,0,0,1-5.2-1.5,4.9,4.9,0,0,1-2.1-4.2,5.9,5.9,0,0,1,.5-2.3,6.6,6.6,0,0,1,1.2-1.7A8.1,8.1,0,0,1,308.1,174.8Zm5.1,1.6c-.9,0-1.4.7-1.5,2.2h1.1c1,0,1.5-.4,1.5-1S313.9,176.4,313.2,176.4Z"/>
          <path class="cls-3" d="M337.9,185.8a9.2,9.2,0,0,1-6.2-2,7.1,7.1,0,0,1-2.3-5.7,9.4,9.4,0,0,1,.7-3.9,6.7,6.7,0,0,1,2.1-2.8,11.6,11.6,0,0,1,7-2,21,21,0,0,1,5.6.8c.8.2,1.1.8,1.1,1.8s-.4,1.8-1.2,1.8h-1.3a5,5,0,0,0-1.5-.2,3,3,0,0,0-2.4,1.1,3.9,3.9,0,0,0-.9,2.6,4.5,4.5,0,0,0,.8,2.6,2.6,2.6,0,0,0,2.2,1.2h3.3a1.1,1.1,0,0,1,1.2,1,2.5,2.5,0,0,1,.1.8,2.8,2.8,0,0,1-.1.9,1.5,1.5,0,0,1-1.2,1.1,10.7,10.7,0,0,1-3.2.6Z"/>
          <path class="cls-3" d="M356,185.8c-5.5,0-8.2-2-8.2-6a5.4,5.4,0,0,1,2.1-4.4,13.2,13.2,0,0,1,12.2,0,5.4,5.4,0,0,1,2.1,4.4C364.2,183.8,361.5,185.8,356,185.8Zm0-3.5c.9,0,1.3-.8,1.3-2.5a7.2,7.2,0,0,0-.2-1.7,1.1,1.1,0,0,0-1.1-.6,1,1,0,0,0-1,.6,4,4,0,0,0-.3,1.7C354.7,181.5,355.2,182.3,356,182.3Z"/>
          <path class="cls-3" d="M367.9,169.3h4.2q.8,0,.9.3a2.3,2.3,0,0,1,.4,1.1c0,1.8.1,4.2.1,7.3s-.1,5.2-.2,6.4a.9.9,0,0,1-.3.6,2.3,2.3,0,0,1-1.1.4h-3.8c-.9-.1-1.4-.4-1.5-1s-.2-3.5-.2-6.8.1-5.5.2-6.9a1.6,1.6,0,0,1,.3-1.1A1.3,1.3,0,0,1,367.9,169.3Z"/>
          <path class="cls-3" d="M383.9,185.8c-5.5,0-8.2-2-8.2-6a5.4,5.4,0,0,1,2.1-4.4,13.2,13.2,0,0,1,12.2,0,5.4,5.4,0,0,1,2.1,4.4C392.1,183.8,389.4,185.8,383.9,185.8Zm0-3.5c.9,0,1.3-.8,1.3-2.5a4,4,0,0,0-.3-1.7,1.1,1.1,0,0,0-2,0,4,4,0,0,0-.3,1.7C382.6,181.5,383,182.3,383.9,182.3Z"/>
          <path class="cls-3" d="M413.1,184.4V179a1.8,1.8,0,0,0-.4-1,1.1,1.1,0,0,0-.8-.3,1.2,1.2,0,0,0-.9.4,1,1,0,0,0-.4.9v5.3a1,1,0,0,1-.3.8,1.4,1.4,0,0,1-1.1.3h-4.2l-1-.2a1.1,1.1,0,0,1-.3-.8V179a1.3,1.3,0,0,0-.4-1,1.1,1.1,0,0,0-.8-.3,1.2,1.2,0,0,0-.9.4,1,1,0,0,0-.4.9v1.4a36.8,36.8,0,0,1-.1,3.9,1.3,1.3,0,0,1-1.5,1h-4.2a1.1,1.1,0,0,1-.8-.3.9.9,0,0,1-.3-.7,25.1,25.1,0,0,1-.2-4.4,39,39,0,0,1,.1-4,3.2,3.2,0,0,1,.3-1.4,1.3,1.3,0,0,1,1-.3H400a1.3,1.3,0,0,1,1,.3,1.6,1.6,0,0,1,.3,1.1h0a6,6,0,0,1,4.3-1.7,6.1,6.1,0,0,1,2.8.6,3.9,3.9,0,0,1,1.8,1.8,4.4,4.4,0,0,1,2-1.8,6,6,0,0,1,2.7-.6,5.2,5.2,0,0,1,3.6,1.2,3.9,3.9,0,0,1,1.5,3.2v6a1,1,0,0,1-.3.8,1.6,1.6,0,0,1-1.1.3h-4.2l-1-.2A1.1,1.1,0,0,1,413.1,184.4Z"/>
          <path class="cls-3" d="M422.5,184.3v-7.2c0-2.2,0-4.3.1-6.4a1.8,1.8,0,0,1,.3-1.1q.1-.3.9-.3H428c.4,0,.8.1.9.3a3,3,0,0,1,.4,1.5v4.2h.2a5,5,0,0,1,3.7-1.4,4.5,4.5,0,0,1,3.6,1.4,7.9,7.9,0,0,1,0,9,4.8,4.8,0,0,1-3.6,1.3q-3.3,0-4.2-1.5a1.3,1.3,0,0,1-.4.9,1.6,1.6,0,0,1-.9.3h-4.1l-.8-.2A.9.9,0,0,1,422.5,184.3Zm8.2-2.3c.9,0,1.3-.7,1.3-2.1s-.4-2.2-1.3-2.2a1.2,1.2,0,0,0-.9.4,1,1,0,0,0-.4.9v1.7a1.3,1.3,0,0,0,.4,1A1.6,1.6,0,0,0,430.7,182Z"/>
          <path class="cls-3" d="M441.7,174.2H446a1.3,1.3,0,0,1,1,.3,4.3,4.3,0,0,1,.3,1.5c.1.8.1,2.1.1,4.1s-.1,3.5-.1,4.3a2.1,2.1,0,0,1-.4.6,2.3,2.3,0,0,1-1.1.4H442a2.4,2.4,0,0,1-1.2-.4l-.4-.6c-.1-1-.1-2.4-.1-4.4a37.9,37.9,0,0,1,.1-4,2.6,2.6,0,0,1,.3-1.5A1.3,1.3,0,0,1,441.7,174.2Zm2.4-5.2a3.6,3.6,0,0,1,2.2.6,2.2,2.2,0,0,1,.7,1.6c0,1.6-1.1,2.4-3.2,2.4a4,4,0,0,1-2.2-.6,1.7,1.7,0,0,1-.9-1.6C440.7,169.8,441.8,169,444.1,169Z"/>
          <path class="cls-3" d="M457.8,173.8c4.7,0,7.2,1.6,7.2,4.7,0,1.3.1,2.5.1,3.6s-.1,1.8-.1,2.2-.1.7-.3.8a1.3,1.3,0,0,1-1,.3H459a1.3,1.3,0,0,1-1-.3,2.4,2.4,0,0,1-.3-.7h0a5.1,5.1,0,0,1-3.9,1.5,4.9,4.9,0,0,1-3-.9,2.6,2.6,0,0,1-1.2-2.4,3.2,3.2,0,0,1,.9-2.4,4.6,4.6,0,0,1,2-1.3,10.9,10.9,0,0,1,2.6-.3l2.7.3h0a3.1,3.1,0,0,0-.4-1.6,2,2,0,0,0-1.4-.5l-1.6.2-1,.3a3.1,3.1,0,0,1-1.2.6.8.8,0,0,1-.7-.4c-.2-.2-.2-.5-.2-1s0-.8.2-1l.8-.5A13.4,13.4,0,0,1,457.8,173.8Zm-1.1,9c.7,0,1-.1,1-.4a10.3,10.3,0,0,0,.1-1.9c0-.3-.3-.5-.7-.5a2.1,2.1,0,0,0-1.2.4,1.1,1.1,0,0,0-.4,1,1.5,1.5,0,0,0,.3,1A1.2,1.2,0,0,0,456.7,182.8Z"/>
        </g>
        <g class="cls-4">
          <rect class="cls-5" y="99.6" width="484.2" height="36.77"/>
        </g>
        <g class="cls-4">
          <rect class="cls-5" y="159.9" width="484.2" height="36.77"/>
        </g>
        <g class="cls-4">
          <rect class="cls-5" y="21" width="484.2" height="36.77"/>
        </g>
      </g>
    </g>
  </g>
</svg>
