<svg xmlns="http://www.w3.org/2000/svg" width="429.3" height="158.3" viewBox="0 0 429.3 158.3">
  <defs>
    <style>
      .cls-1 {
        isolation: isolate;
      }

      .cls-2 {
        fill: #293845;
      }

      .cls-3 {
        mix-blend-mode: multiply;
      }

      .cls-4 {
        fill: #58f4e1;
      }
    </style>
  </defs>
  <g class="cls-1">
    <g id="Layer_2" data-name="Layer 2">
      <g id="Layer_1-2" data-name="Layer 1">
        <g>
          <g>
            <path class="cls-2" d="M60.8,4.5,81.7,39.8a7.6,7.6,0,0,1,1.2,3.6,2.2,2.2,0,0,1-1.1,2.1,5,5,0,0,1-2.7.7H58.5c-2.1,0-3.4-.4-4-1.1a8.8,8.8,0,0,1-.7-1.4l-1.9-3.9q-.7-1.9-3.9-2.1H35.9l-2,.2a2.3,2.3,0,0,0-1.2,1.2l-2.4,5.1a3.9,3.9,0,0,1-1.5,1.6,4.3,4.3,0,0,1-2.2.4H20.9q-2.5,0-2.7-1.8a.7.7,0,0,1-.1-.5,4.6,4.6,0,0,1,1-2.8l20-35.3c1.9-3.3,5-5,9.3-5h5.1C56.9.8,59.3,2,60.8,4.5ZM40,20.8l-2.9,5.9a1.9,1.9,0,0,0-.3,1,1.5,1.5,0,0,0,1.6,1.7h5.9a2.3,2.3,0,0,0,1.8-.7,2.8,2.8,0,0,0,.5-1.2,1.8,1.8,0,0,0-.2-1L44,21c-.5-1.1-1.2-1.7-2-1.7A2.3,2.3,0,0,0,40,20.8Z"/>
            <path class="cls-2" d="M132.1,34c.8.8,3.7,4,8.6,9.6a1.9,1.9,0,0,1,.5,1c0,1.1-.5,1.7-1.5,1.7H126.1a4.8,4.8,0,0,1-3.4-1.5l-5.5-8.3-.8-.5c-.6-.3-1,0-1,.8v6.6c0,1.8-1.2,2.8-3.6,2.9l-7.9.2-10.3-.3a4.2,4.2,0,0,1-3-1.3,4.3,4.3,0,0,1-1.3-2.6c-.4-3.8-.5-9.7-.5-17.7s.1-13.9.3-17.6,2.2-5.5,5.6-5.5h27.1a17.1,17.1,0,0,1,13,5.9,19.3,19.3,0,0,1,5.1,13,16.2,16.2,0,0,1-2,7.8A14.7,14.7,0,0,1,132.1,34ZM115.4,14.8V26.7c0,.8.4,1.2,1.3,1.2a8.9,8.9,0,0,0,6.3-2.2,7,7,0,0,0,2.2-5.2,7.2,7.2,0,0,0-2.1-5.2c-1.4-1.5-3.5-2.2-6.3-2.2C115.9,13.1,115.4,13.7,115.4,14.8Z"/>
            <path class="cls-2" d="M188.6,4.5l20.9,35.3a7.9,7.9,0,0,1,1.3,3.6,2.2,2.2,0,0,1-1.2,2.1,4.7,4.7,0,0,1-2.7.7H186.3c-2,0-3.4-.4-4-1.1a8.8,8.8,0,0,1-.7-1.4l-1.8-3.9q-.9-1.9-3.9-2.1H163.8l-2.1.2a2.6,2.6,0,0,0-1.1,1.2l-2.5,5.1a4.6,4.6,0,0,1-1.4,1.6,4.7,4.7,0,0,1-2.3.4h-5.7q-2.5,0-2.7-1.8a.7.7,0,0,1-.1-.5,4.6,4.6,0,0,1,1-2.8l20-35.3c1.9-3.3,5-5,9.3-5h5.2C184.8.8,187.2,2,188.6,4.5ZM167.9,20.8l-3,5.9a1.8,1.8,0,0,0-.2,1c0,1.1.5,1.7,1.6,1.7h5.8a2.2,2.2,0,0,0,1.8-.7,1.9,1.9,0,0,0,.5-1.2,3.4,3.4,0,0,0-.1-1L171.8,21c-.5-1.1-1.1-1.7-2-1.7S168.4,19.8,167.9,20.8Z"/>
            <path class="cls-2" d="M241.7,8.2l-.2,5.8V26.3a5.4,5.4,0,0,0,1.7,4.2,5.8,5.8,0,0,0,7.8,0,5.7,5.7,0,0,0,1.6-4.2V7.3a9.5,9.5,0,0,1,.8-4.4c.5-1,1.7-1.4,3.5-1.4h5.9a3.1,3.1,0,0,1,2.8,1.2c.9,1.4,1.4,7,1.4,16.8,0,3.2,0,5.7-.1,7.4a20,20,0,0,1-2.4,9.2,18.8,18.8,0,0,1-5.6,6.5,26.9,26.9,0,0,1-15.8,4.9c-7.8,0-14.2-1.8-19.3-5.4a19.5,19.5,0,0,1-6-7.3,24.1,24.1,0,0,1-2.3-10.7c0-2-.1-4.9-.1-8.8s.1-6.8.2-8.5a8.7,8.7,0,0,1,1-4c.6-.9,1.8-1.3,3.5-1.3h17.1c1.7,0,2.8.4,3.4,1.3A10.9,10.9,0,0,1,241.7,8.2Z"/>
            <path class="cls-2" d="M296,47.5c-7.7,0-13.7-1.9-18.2-5.8s-6.7-9.5-6.7-16.6a27.3,27.3,0,0,1,2.2-11.4,19.1,19.1,0,0,1,6-7.9c5.2-3.9,12-5.8,20.4-5.8a61.7,61.7,0,0,1,16.4,2.2c2.1.7,3.1,2.4,3.1,5.1s-1.1,5.5-3.4,5.5l-3.8-.5a24.8,24.8,0,0,0-4.5-.5,8.4,8.4,0,0,0-7,3.1,12.3,12.3,0,0,0-2.4,7.6,12.7,12.7,0,0,0,2.3,7.7,7.5,7.5,0,0,0,6.2,3.4l9.5.2c2.3,0,3.5,1,3.7,3.1a17.9,17.9,0,0,1,.2,2.3,19.4,19.4,0,0,1-.2,2.4c-.3,1.6-1.5,2.7-3.6,3.4a51.2,51.2,0,0,1-9.2,1.8A89,89,0,0,1,296,47.5Z"/>
            <path class="cls-2" d="M367,4.5l21,35.3a7.6,7.6,0,0,1,1.2,3.6,2.2,2.2,0,0,1-1.1,2.1,5,5,0,0,1-2.7.7H364.8c-2.1,0-3.4-.4-4-1.1a8.8,8.8,0,0,1-.7-1.4l-1.9-3.9q-.7-1.9-3.9-2.1H342.2l-2,.2a2.3,2.3,0,0,0-1.2,1.2l-2.5,5.1a3.8,3.8,0,0,1-1.4,1.6,4.3,4.3,0,0,1-2.2.4h-5.8c-1.6,0-2.5-.6-2.6-1.8a.7.7,0,0,1-.1-.5,4.6,4.6,0,0,1,1-2.8l20-35.3c1.9-3.3,5-5,9.3-5h5.1C363.2.8,365.6,2,367,4.5ZM346.3,20.8l-2.9,5.9a1.9,1.9,0,0,0-.3,1,1.5,1.5,0,0,0,1.6,1.7h5.8a2.4,2.4,0,0,0,1.9-.7,2.8,2.8,0,0,0,.5-1.2,1.8,1.8,0,0,0-.2-1L350.3,21c-.5-1.1-1.2-1.7-2-1.7A2.3,2.3,0,0,0,346.3,20.8Z"/>
            <path class="cls-2" d="M395.3,11.3A7.2,7.2,0,0,1,397.6,6a8.6,8.6,0,0,1,6.1-2.2,7.4,7.4,0,0,1,5.7,2.1,7.6,7.6,0,0,1,1.8,4.9,7,7,0,0,1-2.2,5.1,7.7,7.7,0,0,1-5.6,2.3,9.3,9.3,0,0,1-5.7-1.9A6.1,6.1,0,0,1,395.3,11.3Zm0,28.8a7.4,7.4,0,0,1,2.3-5.3,8.5,8.5,0,0,1,6.1-2.1,7.4,7.4,0,0,1,5.7,2.1,7.2,7.2,0,0,1,1.8,4.9,6.9,6.9,0,0,1-2.2,5,7.7,7.7,0,0,1-5.6,2.3,8.7,8.7,0,0,1-5.7-1.9A5.9,5.9,0,0,1,395.3,40.1Z"/>
          </g>
          <g class="cls-3">
            <rect class="cls-4" y="21" width="429.3" height="36.77"/>
          </g>
          <g>
            <g>
              <path class="cls-2" d="M41.7,93h-8a4.9,4.9,0,0,1-1.5-.3,1.1,1.1,0,0,1-.5-.9c-.1-1.6-.2-3.4-.2-5.5s.1-4.2.1-6.4a2,2,0,0,1,2-2.3H42a10.8,10.8,0,0,1,3.1.7A8.1,8.1,0,0,1,47.4,80a7.7,7.7,0,0,1,1.8,5,8,8,0,0,1-1.9,5.3,7.6,7.6,0,0,1-2.4,1.8A8,8,0,0,1,41.7,93Zm-1-10.6v5.3a.4.4,0,0,0,.1.3.5.5,0,0,0,.4.2,3,3,0,0,0,2.2-1,3.5,3.5,0,0,0,.7-2.3,3.7,3.7,0,0,0-.7-2.3,2.2,2.2,0,0,0-1.8-1h-.5C40.8,81.7,40.7,82,40.7,82.4Z"/>
              <path class="cls-2" d="M59.1,93.5c-5.5,0-8.2-2-8.2-6A5.1,5.1,0,0,1,53,83.1a10.3,10.3,0,0,1,6.1-1.6,10.3,10.3,0,0,1,6.1,1.6,5.1,5.1,0,0,1,2.1,4.4C67.3,91.5,64.6,93.5,59.1,93.5Zm0-3.5c.9,0,1.3-.8,1.3-2.5a7.2,7.2,0,0,0-.2-1.7,1.1,1.1,0,0,0-1.1-.6,1,1,0,0,0-1,.6,4,4,0,0,0-.3,1.7C57.8,89.2,58.3,90,59.1,90Z"/>
              <path class="cls-2" d="M74.4,90.1a1,1,0,0,0-.6-.9,2.3,2.3,0,0,0-1.2-.6l-1.5-.4a3.8,3.8,0,0,1-1.3-.9,2.9,2.9,0,0,1-.5-1.7c0-2.7,2.1-4.1,6.4-4.1a9.2,9.2,0,0,1,4.4,1c.3.2.6.3.7.5s.2.5.2.9a3,3,0,0,1-.2,1l-.5.3-1.1-.5a4.1,4.1,0,0,0-1.8-.5c-.5,0-.7.2-.7.7a1,1,0,0,0,.5.8l1.2.5,1.5.5a2.3,2.3,0,0,1,1.2,1,2.3,2.3,0,0,1,.5,1.7c0,2.7-2.1,4.1-6.3,4.1a12.3,12.3,0,0,1-5.1-.9l-.9-.5a2,2,0,0,1-.2-.9,1.3,1.3,0,0,1,.3-1,.5.5,0,0,1,.4-.3l1.3.5a5.4,5.4,0,0,0,2.2.5C74,90.9,74.4,90.6,74.4,90.1Z"/>
              <path class="cls-2" d="M101.9,85a1.9,1.9,0,0,0-1.6.7,2.9,2.9,0,0,0-.5,1.7,2.7,2.7,0,0,0,.6,1.7,2.2,2.2,0,0,0,1.9.7l1.3-.2,1.1-.2c.5,0,.8.5.8,1.5a3.7,3.7,0,0,1-.1,1.1c0,.4-.3.7-.8.8a11.9,11.9,0,0,1-3.9.7H98l-2.2-.5a7.7,7.7,0,0,1-1.8-1,4.2,4.2,0,0,1-1.1-1.7,6,6,0,0,1-.5-2.6,5.1,5.1,0,0,1,.7-2.8,5.2,5.2,0,0,1,1.9-2,12,12,0,0,1,5.7-1.2,12.6,12.6,0,0,1,3.8.6c.5.2.8.8.8,1.8s-.3,1.5-.8,1.5l-1.2-.3Z"/>
              <path class="cls-2" d="M115.3,93.5c-5.5,0-8.2-2-8.2-6a5.3,5.3,0,0,1,2-4.4,10.7,10.7,0,0,1,6.2-1.6,10.5,10.5,0,0,1,6.1,1.6,5.1,5.1,0,0,1,2.1,4.4C123.5,91.5,120.7,93.5,115.3,93.5Zm0-3.5c.8,0,1.3-.8,1.3-2.5a4,4,0,0,0-.3-1.7,1,1,0,0,0-1-.6,1.1,1.1,0,0,0-1.1.6,7.2,7.2,0,0,0-.2,1.7C114,89.2,114.4,90,115.3,90Z"/>
              <path class="cls-2" d="M135.2,92.1V86.7a1.5,1.5,0,0,0-.3-1,1.1,1.1,0,0,0-.8-.3l-.9.3a1.2,1.2,0,0,0-.4,1V88a30.6,30.6,0,0,1-.2,4,.9.9,0,0,1-.3.6,2.3,2.3,0,0,1-1.1.4H127a1.1,1.1,0,0,1-.8-.3c-.2-.2-.4-.4-.4-.6s-.1-2.4-.1-4.4a37.9,37.9,0,0,1,.1-4,2.6,2.6,0,0,1,.3-1.5c.1-.2.5-.3,1-.3h4.3a1.3,1.3,0,0,1,1,.3,6.8,6.8,0,0,1,.3,1.2h0a5.4,5.4,0,0,1,4.1-1.8,5.6,5.6,0,0,1,3.8,1.2A3.9,3.9,0,0,1,142,86c.1,1.4.1,2.6.1,3.7V92l-.3.8-1.1.2h-4.2a1.3,1.3,0,0,1-1-.3A.8.8,0,0,1,135.2,92.1Z"/>
              <path class="cls-2" d="M145.4,85c0-.2-.1-.4-.5-.4s-.9-.1-1-.5-.1-.5-.1-.9a2,2,0,0,1,.2-.9l.6-.3.9-.4,1.6-1.4a19.6,19.6,0,0,1,1.7-1.3,2,2,0,0,1,1.1-.3H151l1.1.2a.8.8,0,0,1,.2.6v2.1a.4.4,0,0,0,.4.4h2.4a1,1,0,0,1,.8.3c.2.1.3.5.3,1.1a1.4,1.4,0,0,1-.3,1.1c-.2.2-.4.2-.8.2h-2.3a.5.5,0,0,0-.4.2c0,.1-.1.3-.1.4v2.7a1.7,1.7,0,0,0,.6,1.2,1.7,1.7,0,0,0,1.5.5,2.6,2.6,0,0,0,1.1-.2l.9-.3q.6,0,.6,1.8c0,.8-.2,1.4-.7,1.5a6.9,6.9,0,0,1-1.9.4l-2.6.2-2.4-.2a6.6,6.6,0,0,1-2.1-.8c-1.3-.7-1.9-2-1.9-4.1Z"/>
              <path class="cls-2" d="M160.4,81.8h4.3a1.6,1.6,0,0,1,1.1.3,1.5,1.5,0,0,1,.3,1v.8a4.1,4.1,0,0,1,4-2.4,2,2,0,0,1,1.5.6,2.3,2.3,0,0,1,.6,1.6,3.9,3.9,0,0,1-.6,2,1.6,1.6,0,0,1-1.4,1,3.6,3.6,0,0,1-1.3-.5,2.4,2.4,0,0,0-1.2-.4,1.7,1.7,0,0,0-1,.3,1.3,1.3,0,0,0-.6,1.2c0,2.3,0,3.9-.1,4.7s-.2.4-.4.6a1.9,1.9,0,0,1-1,.4h-4.2a1.4,1.4,0,0,1-.9-.3.9.9,0,0,1-.3-.6,43.3,43.3,0,0,1-.2-4.4c0-2,.1-3.3.1-4a3.4,3.4,0,0,1,.4-1.5Q159.6,81.8,160.4,81.8Z"/>
              <path class="cls-2" d="M181.2,81.5c4.8,0,7.2,1.5,7.3,4.6V92a1,1,0,0,1-.3.8,1.4,1.4,0,0,1-1.1.3h-4.6a1.3,1.3,0,0,1-1-.3,1,1,0,0,1-.3-.8h0a5.4,5.4,0,0,1-4,1.5,4.8,4.8,0,0,1-2.9-.9,2.9,2.9,0,0,1-1.2-2.4,3.2,3.2,0,0,1,.8-2.4,3.9,3.9,0,0,1,2.1-1.3,10.3,10.3,0,0,1,2.6-.3l2.7.2h0a2.2,2.2,0,0,0-.5-1.6c-.3-.4-.7-.5-1.4-.5a4.1,4.1,0,0,0-1.6.2l-.9.3a3.6,3.6,0,0,1-1.3.5l-.6-.3a1.5,1.5,0,0,1-.3-1,1.3,1.3,0,0,1,.3-1c.1-.2.4-.3.8-.5A13.2,13.2,0,0,1,181.2,81.5Zm-1,9c.6,0,1-.2,1-.4V88.2c0-.3-.2-.5-.7-.5a2,2,0,0,0-1.1.3,1.3,1.3,0,0,0-.4,1,1.2,1.2,0,0,0,1.2,1.5Z"/>
              <path class="cls-2" d="M192.1,85a.5.5,0,0,0-.5-.4c-.6,0-.9-.1-1-.5a2.2,2.2,0,0,1-.1-.9,2,2,0,0,1,.2-.9l.6-.3.9-.4,1.5-1.4,1.7-1.3a2.1,2.1,0,0,1,1.2-.3h1.1l1,.2a.6.6,0,0,1,.3.6v2.1c0,.3.1.4.4.4h2.3a1.2,1.2,0,0,1,.9.3,2,2,0,0,1,.2,1.1,2.3,2.3,0,0,1-.2,1.1,1.1,1.1,0,0,1-.8.2h-2.3l-.4.2a.6.6,0,0,0-.1.4v2.7a1.4,1.4,0,0,0,.6,1.2,1.6,1.6,0,0,0,1.4.5,3,3,0,0,0,1.2-.2l.9-.3q.6,0,.6,1.8c0,.8-.2,1.4-.7,1.5l-2,.4-2.5.2-2.5-.2a9,9,0,0,1-2.1-.8c-1.2-.7-1.8-2-1.8-4.1Z"/>
              <path class="cls-2" d="M213.5,93.5c-5.5,0-8.2-2-8.2-6a5.1,5.1,0,0,1,2.1-4.4,10.1,10.1,0,0,1,6.1-1.6,10.3,10.3,0,0,1,6.1,1.6,5.1,5.1,0,0,1,2.1,4.4C221.7,91.5,218.9,93.5,213.5,93.5Zm0-3.5c.8,0,1.3-.8,1.3-2.5a4,4,0,0,0-.3-1.7,1,1,0,0,0-1-.6,1.1,1.1,0,0,0-1.1.6,7.2,7.2,0,0,0-.2,1.7C212.2,89.2,212.6,90,213.5,90Z"/>
              <path class="cls-2" d="M228.7,90.1a1.1,1.1,0,0,0-.5-.9,2.6,2.6,0,0,0-1.3-.6l-1.4-.4a3,3,0,0,1-1.3-.9,2.3,2.3,0,0,1-.5-1.7c0-2.7,2.1-4.1,6.3-4.1a8.9,8.9,0,0,1,4.4,1l.8.5a2,2,0,0,1,.2.9,1.7,1.7,0,0,1-.3,1,.5.5,0,0,1-.5.3l-1.1-.5a3.4,3.4,0,0,0-1.7-.5c-.5,0-.8.2-.8.7a.9.9,0,0,0,.6.8l1.2.5,1.4.5a3.1,3.1,0,0,1,1.3,1,2.9,2.9,0,0,1,.5,1.7c0,2.7-2.1,4.1-6.4,4.1a11.8,11.8,0,0,1-5-.9l-.9-.5a1.2,1.2,0,0,1-.3-.9,1.3,1.3,0,0,1,.3-1c.2-.2.3-.3.5-.3l1.2.5a6.3,6.3,0,0,0,2.2.5C228.3,90.9,228.7,90.6,228.7,90.1Z"/>
              <path class="cls-2" d="M239.5,93a2.2,2.2,0,0,1-1.3-2.3A2.1,2.1,0,0,1,239,89a3.4,3.4,0,0,1,2-.6,3.1,3.1,0,0,1,1.9.6,2.2,2.2,0,0,1,.8,1.8,5.1,5.1,0,0,1-1.6,3.5,4.6,4.6,0,0,1-3.4,1.5c-.2,0-.3-.2-.5-.4a.9.9,0,0,1-.3-.6c0-.2.1-.3.2-.3A2.9,2.9,0,0,0,239.5,93Z"/>
              <path class="cls-2" d="M261.7,82.8v5.3a1.3,1.3,0,0,0,.3,1,.9.9,0,0,0,.7.3,1.6,1.6,0,0,0,.9-.3,1.5,1.5,0,0,0,.6-.9V86.8a36.8,36.8,0,0,1,.1-3.9,1.3,1.3,0,0,1,1.5-1h4.1a1.2,1.2,0,0,1,.9.3.9.9,0,0,1,.3.7,41.7,41.7,0,0,1,.2,4.4,39,39,0,0,1-.1,4,6.1,6.1,0,0,1-.3,1.4,1.3,1.3,0,0,1-1,.3h-4.3a1.3,1.3,0,0,1-1-.3,1.6,1.6,0,0,1-.3-1.1h0a7.9,7.9,0,0,1-4.6,1.7,4.9,4.9,0,0,1-3.6-1.2,4.1,4.1,0,0,1-1.2-3.2v-6c0-.4.1-.7.3-.8a1.4,1.4,0,0,1,1.1-.3h4.2a2.2,2.2,0,0,1,1,.2A1.5,1.5,0,0,1,261.7,82.8Z"/>
              <path class="cls-2" d="M283.5,92.1V86.7a1.5,1.5,0,0,0-.3-1,1.4,1.4,0,0,0-.9-.3,1.6,1.6,0,0,0-.9.3,1.5,1.5,0,0,0-.4,1V88a37.9,37.9,0,0,1-.1,4c0,.2-.2.4-.4.6a1.9,1.9,0,0,1-1.1.4h-4.1a1.2,1.2,0,0,1-.9-.3.9.9,0,0,1-.3-.6,43.3,43.3,0,0,1-.2-4.4c0-2,.1-3.3.1-4a7.5,7.5,0,0,1,.3-1.5,1.3,1.3,0,0,1,1-.3h4.3c.5,0,.9.1,1,.3a1.9,1.9,0,0,1,.3,1.2h0a6.1,6.1,0,0,1,8-.6,4.2,4.2,0,0,1,1.4,3.3v6a1.1,1.1,0,0,1-.3.8,2.3,2.3,0,0,1-1.1.2h-4.2a1.5,1.5,0,0,1-1-.3A1.2,1.2,0,0,1,283.5,92.1Z"/>
              <path class="cls-2" d="M320.4,92.1V86.7a1.5,1.5,0,0,0-.3-1,1.1,1.1,0,0,0-.8-.3,1.4,1.4,0,0,0-1.4,1.3v3.2a11,11,0,0,1-.1,2.1,1.1,1.1,0,0,1-.3.8l-1,.2h-4.2a1.3,1.3,0,0,1-1-.3.8.8,0,0,1-.3-.7V86.7a1.5,1.5,0,0,0-.3-1,1.1,1.1,0,0,0-.8-.3,1.2,1.2,0,0,0-.9.3,1.2,1.2,0,0,0-.4,1V88a30.6,30.6,0,0,1-.2,4,.9.9,0,0,1-.3.6l-1.1.4h-4.2a1,1,0,0,1-.8-.3c-.2-.2-.4-.4-.4-.6s-.1-2.4-.1-4.4v-4a3.4,3.4,0,0,1,.4-1.5c.1-.2.5-.3,1-.3h4.3a1.3,1.3,0,0,1,1,.3,6.8,6.8,0,0,1,.3,1.2h0a5.5,5.5,0,0,1,4.3-1.8,6.1,6.1,0,0,1,2.8.6,4.2,4.2,0,0,1,1.7,1.8,7,7,0,0,1,2-1.8,6.7,6.7,0,0,1,2.8-.6,5.2,5.2,0,0,1,3.6,1.2,4.2,4.2,0,0,1,1.4,3.3c0,1.4.1,2.6.1,3.7s-.1,1.9-.1,2.3a1.1,1.1,0,0,1-.3.8l-1,.2h-4.3c-.4,0-.8-.1-.9-.3A.8.8,0,0,1,320.4,92.1Z"/>
              <path class="cls-2" d="M331.1,81.9h4.3a1.3,1.3,0,0,1,1,.3,6.1,6.1,0,0,1,.3,1.5,40.2,40.2,0,0,1,.1,4.1,35.9,35.9,0,0,1-.2,4.2.9.9,0,0,1-.3.7,1.6,1.6,0,0,1-1.1.3h-3.8a1.7,1.7,0,0,1-1.2-.3,1.6,1.6,0,0,1-.4-.7c-.1-.9-.1-2.4-.1-4.3a40.2,40.2,0,0,1,.1-4.1,2.2,2.2,0,0,1,.3-1.4C330.2,82,330.6,81.9,331.1,81.9Zm2.4-5.2a3.1,3.1,0,0,1,2.1.6,1.9,1.9,0,0,1,.8,1.6c0,1.5-1.1,2.3-3.2,2.3a4,4,0,0,1-2.2-.5,1.9,1.9,0,0,1-.9-1.7C330.1,77.5,331.2,76.7,333.5,76.7Z"/>
              <path class="cls-2" d="M344.3,90.1a1,1,0,0,0-.6-.9,2.3,2.3,0,0,0-1.2-.6l-1.5-.4a3.8,3.8,0,0,1-1.3-.9,2.9,2.9,0,0,1-.5-1.7c0-2.7,2.1-4.1,6.4-4.1a9.2,9.2,0,0,1,4.4,1c.3.2.6.3.7.5a2,2,0,0,1,.2.9,3,3,0,0,1-.2,1l-.5.3-1.1-.5a4.1,4.1,0,0,0-1.8-.5c-.5,0-.7.2-.7.7a1,1,0,0,0,.5.8l1.2.5,1.5.5a2.3,2.3,0,0,1,1.2,1,2.9,2.9,0,0,1,.5,1.7c0,2.7-2.1,4.1-6.3,4.1a12.3,12.3,0,0,1-5.1-.9l-.9-.5a2,2,0,0,1-.2-.9,1.3,1.3,0,0,1,.3-1,.5.5,0,0,1,.4-.3l1.3.5a5.4,5.4,0,0,0,2.2.5C343.9,90.9,344.3,90.6,344.3,90.1Z"/>
              <path class="cls-2" d="M372.5,92.1V86.7a1.2,1.2,0,0,0-.4-1,1.1,1.1,0,0,0-.8-.3l-.9.3a1.2,1.2,0,0,0-.4,1V92a1.1,1.1,0,0,1-.3.8,2.3,2.3,0,0,1-1.1.2h-4.2a1.3,1.3,0,0,1-1-.3,1.2,1.2,0,0,1-.2-.7V86.7a1.5,1.5,0,0,0-.3-1,1.4,1.4,0,0,0-.9-.3,1.6,1.6,0,0,0-.9.3,1.5,1.5,0,0,0-.4,1V88a37.9,37.9,0,0,1-.1,4,2.1,2.1,0,0,1-.4.6,2.3,2.3,0,0,1-1.1.4h-4.1a1.2,1.2,0,0,1-.9-.3.9.9,0,0,1-.3-.6,43.3,43.3,0,0,1-.2-4.4,37.9,37.9,0,0,1,.1-4,7.5,7.5,0,0,1,.3-1.5,1.3,1.3,0,0,1,1-.3h4.3a1.3,1.3,0,0,1,1,.3,1.9,1.9,0,0,1,.3,1.2h0a5.8,5.8,0,0,1,4.3-1.8,6.1,6.1,0,0,1,2.8.6,5.2,5.2,0,0,1,1.8,1.8,5.9,5.9,0,0,1,2-1.8,6,6,0,0,1,2.7-.6,5.7,5.7,0,0,1,3.7,1.2,4.2,4.2,0,0,1,1.4,3.3v6a1.1,1.1,0,0,1-.3.8,2.3,2.3,0,0,1-1.1.2h-4.2a1.3,1.3,0,0,1-1-.3A.8.8,0,0,1,372.5,92.1Z"/>
              <path class="cls-2" d="M389.6,93.5c-5.5,0-8.2-2-8.2-6a5.1,5.1,0,0,1,2.1-4.4,12.4,12.4,0,0,1,12.2,0,5.1,5.1,0,0,1,2.1,4.4C397.8,91.5,395.1,93.5,389.6,93.5Zm0-3.5c.9,0,1.3-.8,1.3-2.5a4,4,0,0,0-.3-1.7,1.1,1.1,0,0,0-2,0,4,4,0,0,0-.3,1.7C388.3,89.2,388.7,90,389.6,90Z"/>
            </g>
            <g>
              <path class="cls-2" d="M39.7,116.5a1.6,1.6,0,0,0-1.5.7,2.5,2.5,0,0,0-.5,1.7,2.5,2.5,0,0,0,.6,1.7,2.3,2.3,0,0,0,1.9.8l1.2-.3,1.2-.2c.5,0,.7.5.8,1.5s-.1.8-.1,1.2a1.3,1.3,0,0,1-.8.8,16.1,16.1,0,0,1-3.9.7l-2.8-.2a8,8,0,0,1-2.1-.5,3.2,3.2,0,0,1-1.8-1,4,4,0,0,1-1.2-1.6,7,7,0,0,1-.4-2.7,6.4,6.4,0,0,1,.6-2.8,5,5,0,0,1,1.9-1.9,12.7,12.7,0,0,1,5.8-1.3,11.9,11.9,0,0,1,3.7.6c.6.2.8.8.8,1.8s-.2,1.5-.7,1.5l-1.2-.2Z"/>
              <path class="cls-2" d="M53.1,113c4.8,0,7.2,1.5,7.2,4.7.1,1.3.1,2.5.1,3.6a11.6,11.6,0,0,1-.1,2.2,1.3,1.3,0,0,1-.2.8,1.6,1.6,0,0,1-1.1.3H54.3c-.4,0-.8-.1-.9-.3a.8.8,0,0,1-.3-.7H53a5,5,0,0,1-3.9,1.5,4.9,4.9,0,0,1-3-.9,2.9,2.9,0,0,1-1.2-2.4,3.2,3.2,0,0,1,.9-2.4,5.3,5.3,0,0,1,2-1.3,10.9,10.9,0,0,1,2.6-.3,12.4,12.4,0,0,1,2.7.3h0a2.4,2.4,0,0,0-.4-1.6,2,2,0,0,0-1.4-.5l-1.6.2-1,.3-1.2.6a.7.7,0,0,1-.6-.4,1.3,1.3,0,0,1-.3-1,2.2,2.2,0,0,1,.2-1l.8-.5A13.4,13.4,0,0,1,53.1,113Zm-1,9c.6,0,.9-.1.9-.4a10.3,10.3,0,0,0,.1-1.9c0-.3-.2-.5-.7-.5a2.1,2.1,0,0,0-1.2.4,1.1,1.1,0,0,0-.4,1,1.2,1.2,0,0,0,.4,1A1,1,0,0,0,52.1,122Z"/>
              <path class="cls-2" d="M64.4,113.3h4.3a1.2,1.2,0,0,1,1,.4,1.2,1.2,0,0,1,.3.9v.8a4.3,4.3,0,0,1,4-2.3,1.9,1.9,0,0,1,1.5.6,2.1,2.1,0,0,1,.6,1.6,3.4,3.4,0,0,1-.5,1.9,1.5,1.5,0,0,1-1.5,1,2.4,2.4,0,0,1-1.2-.4,2.7,2.7,0,0,0-1.3-.5,1.6,1.6,0,0,0-1,.4,1.3,1.3,0,0,0-.5,1.1c0,2.4,0,3.9-.1,4.7a1.3,1.3,0,0,1-1.5,1H64.4a1.2,1.2,0,0,1-.9-.3.9.9,0,0,1-.3-.7,41.7,41.7,0,0,1-.2-4.4,39,39,0,0,1,.1-4,6.1,6.1,0,0,1,.3-1.4A1.3,1.3,0,0,1,64.4,113.3Z"/>
              <path class="cls-2" d="M93,114.4v10.1a3.8,3.8,0,0,1-.7,2.1,3.9,3.9,0,0,1-1.7,1.4,13.7,13.7,0,0,1-5.8,1,13.7,13.7,0,0,1-5.8-1,1.4,1.4,0,0,1-1.1-1.4,1.8,1.8,0,0,1,.3-1.1.9.9,0,0,1,.6-.3l1,.3a8,8,0,0,0,3.3.8l1.4-.2a2.4,2.4,0,0,0,1.1-.6,2.1,2.1,0,0,0,.5-1.3V123a.2.2,0,0,0-.2-.2.1.1,0,0,0-.1.1,5.6,5.6,0,0,1-3.9,1.6,4.8,4.8,0,0,1-3.5-1.3A5.7,5.7,0,0,1,77,119a5.3,5.3,0,0,1,1.7-4.4,5.7,5.7,0,0,1,4-1.5,4.1,4.1,0,0,1,3.6,1.5,1.3,1.3,0,0,1,.4-.9,1.6,1.6,0,0,1,.9-.3h4.1a1.1,1.1,0,0,1,.8.3C92.8,113.9,93,114.1,93,114.4Zm-8.3,2.3c-.9,0-1.3.6-1.3,1.9s.4,1.9,1.2,1.9a1.7,1.7,0,0,0,1-.3.9.9,0,0,0,.4-.8v-1.5a1,1,0,0,0-.4-.9A1.6,1.6,0,0,0,84.7,116.7Z"/>
              <path class="cls-2" d="M103.4,125c-5.5,0-8.2-2-8.2-6a5.4,5.4,0,0,1,2.1-4.4,10.4,10.4,0,0,1,6.1-1.5,10.4,10.4,0,0,1,6.1,1.5,5.4,5.4,0,0,1,2.1,4.4C111.6,123,108.9,125,103.4,125Zm0-3.5c.9,0,1.3-.8,1.3-2.5a4,4,0,0,0-.3-1.7,1.1,1.1,0,0,0-2,0,4,4,0,0,0-.3,1.7C102.1,120.7,102.5,121.5,103.4,121.5Z"/>
              <path class="cls-2" d="M127.4,125.4q3,0,3-.9l-.4-.8q-1.6-2.5-4.8-8.7a3.1,3.1,0,0,1-.2-.8.8.8,0,0,1,.9-.9h4.8a1.6,1.6,0,0,1,1.1.3c.3.1.5.4.7.8l2.1,3.8a.3.3,0,0,0,.3.3c.2,0,.3-.1.4-.3l2.1-4.3c.1-.3.3-.5.5-.5h2.6a.5.5,0,0,1,.5.3v.3l-.2.5-1.6,3.5-2.3,4.7-1.1,2.1L135,126a3.8,3.8,0,0,1-1.1,1.1,6.2,6.2,0,0,1-1.2.8,7.2,7.2,0,0,1-3.2.7,5.6,5.6,0,0,1-2.7-.4q-.6-.3-.6-1.5a2.9,2.9,0,0,1,.2-.9.5.5,0,0,1,.6-.4Z"/>
              <path class="cls-2" d="M160.8,116.5a1.6,1.6,0,0,0-1.5.7,2.5,2.5,0,0,0-.5,1.7,3.1,3.1,0,0,0,.5,1.7,2.5,2.5,0,0,0,2,.8l1.2-.3,1.1-.2c.6,0,.8.5.9,1.5s-.1.8-.1,1.2a1.5,1.5,0,0,1-.8.8,16.1,16.1,0,0,1-3.9.7l-2.8-.2a8,8,0,0,1-2.1-.5,3.2,3.2,0,0,1-1.8-1,4,4,0,0,1-1.2-1.6,6.8,6.8,0,0,1-.5-2.7,6.4,6.4,0,0,1,.7-2.8,5,5,0,0,1,1.9-1.9,12.7,12.7,0,0,1,5.8-1.3,12.4,12.4,0,0,1,3.7.6c.6.2.8.8.8,1.8s-.2,1.5-.7,1.5l-1.2-.2Z"/>
              <path class="cls-2" d="M174.2,113c4.8,0,7.2,1.5,7.2,4.7,0,1.3.1,2.5.1,3.6a11.6,11.6,0,0,1-.1,2.2c0,.4-.1.7-.3.8s-.5.3-1,.3h-4.7a1.3,1.3,0,0,1-1-.3,1.2,1.2,0,0,1-.2-.7h-.1a5.1,5.1,0,0,1-3.9,1.5,4.9,4.9,0,0,1-3-.9,2.9,2.9,0,0,1-1.2-2.4,3.2,3.2,0,0,1,.9-2.4,4.6,4.6,0,0,1,2-1.3,10.9,10.9,0,0,1,2.6-.3,12.4,12.4,0,0,1,2.7.3h0a2.4,2.4,0,0,0-.4-1.6,2,2,0,0,0-1.4-.5l-1.6.2-1,.3a3.1,3.1,0,0,1-1.2.6,1,1,0,0,1-.7-.4,2.2,2.2,0,0,1-.2-1c0-.5,0-.8.2-1l.8-.5A13.4,13.4,0,0,1,174.2,113Zm-1.1,9c.7,0,1-.1,1-.4a10.3,10.3,0,0,0,.1-1.9c0-.3-.3-.5-.7-.5a2.1,2.1,0,0,0-1.2.4,1.1,1.1,0,0,0-.4,1,1.2,1.2,0,0,0,.4,1A.9.9,0,0,0,173.1,122Z"/>
              <path class="cls-2" d="M188.9,121.7a1,1,0,0,0-.5-1,3.3,3.3,0,0,0-1.2-.5l-1.5-.5a2.8,2.8,0,0,1-1.3-.9,2.5,2.5,0,0,1-.5-1.6c0-2.8,2.1-4.1,6.4-4.1a8.9,8.9,0,0,1,4.3.9l.8.5a2,2,0,0,1,.2.9,2.2,2.2,0,0,1-.2,1l-.6.3-1.1-.5a3.4,3.4,0,0,0-1.7-.5c-.5,0-.7.2-.7.7a.7.7,0,0,0,.5.8,3.3,3.3,0,0,0,1.2.5l1.5.5a2.8,2.8,0,0,1,1.2,1,3.1,3.1,0,0,1,.5,1.7c0,2.8-2.1,4.1-6.4,4.1a12.1,12.1,0,0,1-5-.9,1.9,1.9,0,0,1-.9-.5c-.2-.1-.2-.4-.2-.9a1.7,1.7,0,0,1,.2-.9l.5-.3,1.3.4a4.1,4.1,0,0,0,2.1.5C188.6,122.4,188.9,122.2,188.9,121.7Z"/>
              <path class="cls-2" d="M199.8,113.4h4.3a1.3,1.3,0,0,1,1,.3,2.8,2.8,0,0,1,.3,1.5c.1.8.1,2.1.1,4.1s0,3.5-.1,4.3l-.4.6a2.3,2.3,0,0,1-1.1.4h-3.8a2.4,2.4,0,0,1-1.2-.4.9.9,0,0,1-.3-.6,25.7,25.7,0,0,1-.2-4.4,37.9,37.9,0,0,1,.1-4,3.8,3.8,0,0,1,.3-1.5A1.3,1.3,0,0,1,199.8,113.4Zm2.4-5.2a3.4,3.4,0,0,1,2.2.6,1.9,1.9,0,0,1,.7,1.6c0,1.6-1,2.4-3.2,2.4a3.7,3.7,0,0,1-2.1-.6,1.7,1.7,0,0,1-.9-1.6Q198.9,108.2,202.2,108.2Z"/>
              <path class="cls-2" d="M231.4,124.5h-4A1.4,1.4,0,0,1,226,123a5.7,5.7,0,0,1-2.1,1.5,7.4,7.4,0,0,1-2.4.5,5.2,5.2,0,0,1-3.6-1.4,6.5,6.5,0,0,1-1.4-4.5c0-2.5.9-4.3,2.6-5.3a6.6,6.6,0,0,1,3.2-.8,6.2,6.2,0,0,1,3.1.8c.2.2.4.1.4-.2a5.3,5.3,0,0,0,.1-1.4v-2.7a.9.9,0,0,1,.3-.7c.1-.2.5-.3,1-.3h4.2a1.3,1.3,0,0,1,1,.3,2.7,2.7,0,0,1,.2,1.1c.1,2.1.1,4.2.1,6.4v7.2c0,.3-.2.5-.5.7A1.1,1.1,0,0,1,231.4,124.5Zm-7.2-7.8c-.9,0-1.3.7-1.3,2.2s.4,2.1,1.3,2.1a1.6,1.6,0,0,0,.9-.3,1.8,1.8,0,0,0,.4-1V118a1.3,1.3,0,0,0-.4-.9A1.2,1.2,0,0,0,224.2,116.7Z"/>
              <path class="cls-2" d="M242.9,125c-5.5,0-8.2-2-8.2-6a5.4,5.4,0,0,1,2.1-4.4,13.2,13.2,0,0,1,12.2,0,5.4,5.4,0,0,1,2.1,4.4C251.1,123,248.4,125,242.9,125Zm0-3.5c.8,0,1.3-.8,1.3-2.5a4,4,0,0,0-.3-1.7,1,1,0,0,0-1-.6,1.1,1.1,0,0,0-1.1.6,7.2,7.2,0,0,0-.2,1.7C241.6,120.7,242,121.5,242.9,121.5Z"/>
              <path class="cls-2" d="M258.1,121.7a1,1,0,0,0-.5-1l-1.2-.5-1.5-.5a2.8,2.8,0,0,1-1.3-.9,2.5,2.5,0,0,1-.5-1.6c0-2.8,2.1-4.1,6.3-4.1a9,9,0,0,1,4.4.9l.8.5a2,2,0,0,1,.2.9,1.3,1.3,0,0,1-.3,1,.5.5,0,0,1-.5.3l-1.1-.5a3.4,3.4,0,0,0-1.7-.5c-.5,0-.7.2-.7.7a.7.7,0,0,0,.5.8,3.3,3.3,0,0,0,1.2.5l1.4.5a3.1,3.1,0,0,1,1.3,1,3.1,3.1,0,0,1,.5,1.7c0,2.8-2.1,4.1-6.4,4.1a12.1,12.1,0,0,1-5-.9,1.9,1.9,0,0,1-.9-.5q-.3-.1-.3-.9c0-.4.1-.8.3-.9l.5-.3,1.2.4a4.7,4.7,0,0,0,2.2.5C257.8,122.4,258.1,122.2,258.1,121.7Z"/>
              <path class="cls-2" d="M295.2,123.6v-5.4a1.7,1.7,0,0,0-.3-1,1.1,1.1,0,0,0-.8-.3,1.2,1.2,0,0,0-.9.4,1,1,0,0,0-.4.9v5.3a1,1,0,0,1-.3.8,1.6,1.6,0,0,1-1.1.3h-4.2l-1-.2a1.1,1.1,0,0,1-.3-.8v-5.4a1.8,1.8,0,0,0-.4-1,1.1,1.1,0,0,0-.8-.3,1.2,1.2,0,0,0-.9.4,1,1,0,0,0-.4.9v1.4c0,1.9-.1,3.2-.1,3.9a1.3,1.3,0,0,1-1.5,1h-4.2a1.1,1.1,0,0,1-.8-.3,1.6,1.6,0,0,1-.4-.7c-.1-.9-.1-2.4-.1-4.4a39,39,0,0,1,.1-4,2.2,2.2,0,0,1,.3-1.4,1.3,1.3,0,0,1,1-.4h4.3a1.3,1.3,0,0,1,1,.4,1.6,1.6,0,0,1,.3,1.1h0a5.6,5.6,0,0,1,4.3-1.7,6.1,6.1,0,0,1,2.8.6,3.9,3.9,0,0,1,1.8,1.8,4.4,4.4,0,0,1,2-1.8,6,6,0,0,1,2.7-.6,5.7,5.7,0,0,1,3.6,1.1,4.3,4.3,0,0,1,1.5,3.3v6a3.4,3.4,0,0,1-.3.8,1.6,1.6,0,0,1-1.1.3h-4.2l-1-.2A1.1,1.1,0,0,1,295.2,123.6Z"/>
              <path class="cls-2" d="M305.9,113.4h4.3a1.3,1.3,0,0,1,1,.3,2.8,2.8,0,0,1,.3,1.5c.1.8.1,2.1.1,4.1s0,3.5-.1,4.3l-.4.6a2.3,2.3,0,0,1-1.1.4h-3.8a2.4,2.4,0,0,1-1.2-.4.9.9,0,0,1-.3-.6,43.3,43.3,0,0,1-.2-4.4,37.9,37.9,0,0,1,.1-4,3.8,3.8,0,0,1,.3-1.5A1.3,1.3,0,0,1,305.9,113.4Zm2.4-5.2a3.4,3.4,0,0,1,2.2.6,1.9,1.9,0,0,1,.7,1.6c0,1.6-1,2.4-3.2,2.4a3.7,3.7,0,0,1-2.1-.6,1.7,1.7,0,0,1-.9-1.6Q305,108.2,308.3,108.2Z"/>
              <path class="cls-2" d="M315.7,108.5h4.2a1.3,1.3,0,0,1,1,.3,5.3,5.3,0,0,1,.3,1.1c.1,1.8.1,4.2.1,7.3a50.2,50.2,0,0,1-.2,6.4.9.9,0,0,1-.3.6,2.3,2.3,0,0,1-1.1.4H316c-1-.1-1.5-.4-1.5-1a51.1,51.1,0,0,1-.3-6.8c0-3.2.1-5.5.2-6.9a5.3,5.3,0,0,1,.3-1.1A1.3,1.3,0,0,1,315.7,108.5Z"/>
              <path class="cls-2" d="M325.4,108.5h4.2a1.3,1.3,0,0,1,1,.3,5.3,5.3,0,0,1,.3,1.1c.1,1.8.1,4.2.1,7.3a50.2,50.2,0,0,1-.2,6.4.9.9,0,0,1-.3.6,2.3,2.3,0,0,1-1.1.4h-3.7c-1-.1-1.5-.4-1.5-1a56.8,56.8,0,0,1-.2-6.8c0-3.2,0-5.5.1-6.9a5.3,5.3,0,0,1,.3-1.1A1.3,1.3,0,0,1,325.4,108.5Z"/>
              <path class="cls-2" d="M341.4,125c-5.5,0-8.2-2-8.2-6a5.4,5.4,0,0,1,2.1-4.4,13.2,13.2,0,0,1,12.2,0,5.4,5.4,0,0,1,2.1,4.4C349.6,123,346.9,125,341.4,125Zm0-3.5c.9,0,1.3-.8,1.3-2.5a7.2,7.2,0,0,0-.2-1.7,1.1,1.1,0,0,0-1.1-.6,1,1,0,0,0-1,.6,4,4,0,0,0-.3,1.7C340.1,120.7,340.6,121.5,341.4,121.5Z"/>
              <path class="cls-2" d="M361.4,123.6v-5.4a1.7,1.7,0,0,0-.3-1,1.4,1.4,0,0,0-.9-.3,1.2,1.2,0,0,0-.9.4,1.3,1.3,0,0,0-.4.9v1.4a36.8,36.8,0,0,1-.1,3.9,1,1,0,0,1-.4.7,1.4,1.4,0,0,1-1.1.3h-4.1a1.2,1.2,0,0,1-.9-.3.9.9,0,0,1-.3-.7,41.7,41.7,0,0,1-.2-4.4c0-1.9.1-3.3.1-4a6.1,6.1,0,0,1,.3-1.4,1.3,1.3,0,0,1,1-.4h4.3a1.2,1.2,0,0,1,1,.4,1.6,1.6,0,0,1,.3,1.1h0a5.5,5.5,0,0,1,4.2-1.7,6.1,6.1,0,0,1,3.8,1.1,4.2,4.2,0,0,1,1.4,3.3v6a1,1,0,0,1-.3.8,1.3,1.3,0,0,1-1,.3h-4.3l-1-.2A1.9,1.9,0,0,1,361.4,123.6Z"/>
              <path class="cls-2" d="M373.7,114l2.1-.7,2.6-.2a9.5,9.5,0,0,1,3,.4,4.1,4.1,0,0,1,2.1,1,3.7,3.7,0,0,1,1.3,2.9c0,1.7-1.5,2.5-4.3,2.5l-3.2-.3a3.5,3.5,0,0,0,.6,2.1,1.8,1.8,0,0,0,1.6.6,5.3,5.3,0,0,0,2-.3l1.3-.5.8-.3a.6.6,0,0,1,.6.3,1.4,1.4,0,0,1,.4,1.1c0,.4-.1.8-.3.9a1.6,1.6,0,0,1-.8.5,15.8,15.8,0,0,1-6,.9,8.4,8.4,0,0,1-5.2-1.5,5,5,0,0,1-2.1-4.2,5.9,5.9,0,0,1,.5-2.3,5.2,5.2,0,0,1,1.2-1.7A5.7,5.7,0,0,1,373.7,114Zm5.1,1.6c-.9,0-1.4.7-1.5,2.2h1.1c1,0,1.5-.4,1.5-1S379.5,115.6,378.8,115.6Z"/>
              <path class="cls-2" d="M391.8,121.7a1.2,1.2,0,0,0-.5-1l-1.3-.5-1.4-.5a2.4,2.4,0,0,1-1.3-.9,2.5,2.5,0,0,1-.5-1.6c0-2.8,2.1-4.1,6.3-4.1a9,9,0,0,1,4.4.9l.8.5a2,2,0,0,1,.2.9,1.3,1.3,0,0,1-.3,1,.5.5,0,0,1-.5.3l-1.1-.5a3.4,3.4,0,0,0-1.7-.5c-.5,0-.7.2-.7.7a.7.7,0,0,0,.5.8,3.3,3.3,0,0,0,1.2.5l1.4.5a3.1,3.1,0,0,1,1.3,1,3.1,3.1,0,0,1,.5,1.7c0,2.8-2.1,4.1-6.4,4.1a12.1,12.1,0,0,1-5-.9,1.9,1.9,0,0,1-.9-.5q-.3-.1-.3-.9c0-.4.1-.8.3-.9l.5-.3,1.2.4a4.7,4.7,0,0,0,2.2.5C391.5,122.4,391.8,122.2,391.8,121.7Z"/>
            </g>
            <g>
              <path class="cls-2" d="M134.3,157.8h-4a1.4,1.4,0,0,1-1.4-1.6,8,8,0,0,1-2.1,1.5,6,6,0,0,1-2.4.6,4.9,4.9,0,0,1-3.6-1.5,6.2,6.2,0,0,1-1.4-4.5c0-2.5.8-4.2,2.6-5.2a5.4,5.4,0,0,1,3.1-.9,5.5,5.5,0,0,1,3.2.9c.2.2.4.1.4-.2s.1-.8.1-1.4v-2.7a1.9,1.9,0,0,1,.2-.8,1.3,1.3,0,0,1,1-.3h4.3c.4,0,.8.1.9.4a1.5,1.5,0,0,1,.3,1c.1,2.1.1,4.3.1,6.4v7.2a.9.9,0,0,1-.4.8A1.1,1.1,0,0,1,134.3,157.8ZM127,150c-.8,0-1.3.7-1.3,2.1s.5,2.2,1.3,2.2a1.8,1.8,0,0,0,1-.4,1.3,1.3,0,0,0,.4-.9v-1.7a1.5,1.5,0,0,0-.4-1A1.7,1.7,0,0,0,127,150Z"/>
              <path class="cls-2" d="M141,147.3a5.8,5.8,0,0,1,2.1-.7,10.1,10.1,0,0,1,2.7-.3,15.4,15.4,0,0,1,3,.4,5.2,5.2,0,0,1,2.1,1.1,3.8,3.8,0,0,1,1.2,2.8c0,1.7-1.4,2.6-4.3,2.6a16.3,16.3,0,0,1-3.1-.3,3.4,3.4,0,0,0,.5,2,2.1,2.1,0,0,0,1.7.6,5.6,5.6,0,0,0,2-.3l1.3-.5.8-.3.6.3a2,2,0,0,1,.3,1.1c0,.5,0,.8-.2,1l-.9.5a15.5,15.5,0,0,1-5.9.9,8.8,8.8,0,0,1-5.3-1.6,4.7,4.7,0,0,1-2-4.1,5.9,5.9,0,0,1,.4-2.3,3.7,3.7,0,0,1,1.3-1.7A6.6,6.6,0,0,1,141,147.3Zm5.1,1.5c-.9,0-1.3.8-1.4,2.2h1.1c1,0,1.4-.3,1.4-1S146.9,148.8,146.1,148.8Z"/>
              <path class="cls-2" d="M177.6,157.8h-4.1c-.9-.1-1.3-.6-1.3-1.6a8,8,0,0,1-2.1,1.5,6,6,0,0,1-2.4.6,4.8,4.8,0,0,1-3.6-1.5,6.2,6.2,0,0,1-1.4-4.5c0-2.5.8-4.2,2.6-5.2a5.4,5.4,0,0,1,3.1-.9,5,5,0,0,1,3.1.9c.3.2.5.1.5-.2s.1-.8.1-1.4v-2.7a1.9,1.9,0,0,1,.2-.8,1.3,1.3,0,0,1,1-.3h4.3c.4,0,.8.1.9.4a1.5,1.5,0,0,1,.3,1c.1,2.1.1,4.3.1,6.4v7.2a.9.9,0,0,1-.4.8A1.1,1.1,0,0,1,177.6,157.8Zm-7.3-7.8c-.8,0-1.3.7-1.3,2.1s.5,2.2,1.3,2.2a1.8,1.8,0,0,0,1-.4,1.3,1.3,0,0,0,.4-.9v-1.7a1.5,1.5,0,0,0-.4-1A1.7,1.7,0,0,0,170.3,150Z"/>
              <path class="cls-2" d="M182.7,146.7H187a1.3,1.3,0,0,1,1,.3,2.4,2.4,0,0,1,.3,1.5,40.2,40.2,0,0,1,.1,4.1c0,2,0,3.4-.1,4.2a1.3,1.3,0,0,1-1.5,1H183a1.7,1.7,0,0,1-1.2-.3,1.6,1.6,0,0,1-.4-.7c-.1-.9-.1-2.4-.1-4.4a39,39,0,0,1,.1-4,2.2,2.2,0,0,1,.3-1.4A1.3,1.3,0,0,1,182.7,146.7Zm2.4-5.2a3.6,3.6,0,0,1,2.2.6,1.8,1.8,0,0,1,.7,1.6c0,1.5-1.1,2.3-3.2,2.3a4.6,4.6,0,0,1-2.1-.5,1.9,1.9,0,0,1-.9-1.7C181.8,142.3,182.9,141.5,185.1,141.5Z"/>
              <path class="cls-2" d="M200.8,150.1h-2.1a.5.5,0,0,0-.4.5v5.7a2.7,2.7,0,0,1-.2,1.1,1.2,1.2,0,0,1-1.1.4h-4.3a1.3,1.3,0,0,1-1-.3,1.9,1.9,0,0,1-.3-1.2c0-1.2-.1-3-.1-5.5,0-.3,0-.5-.1-.6h-.3c-.5,0-.7-.4-.7-1.3s0-.9.2-1.1a.8.8,0,0,1,.7-.3h.2v-.7c0-2.9,1.8-4.6,5.3-4.9l2.6-.2a10.6,10.6,0,0,1,3.4.6c.5.2.8.8.8,1.8s-.2,1.5-.7,1.5l-1.1-.3-1.4-.2a2.5,2.5,0,0,0-1.5.5,2.4,2.4,0,0,0-.5,1.4c0,.4.2.6.5.6h2a1.1,1.1,0,0,1,.8.3c.2.1.2.5.2,1.1s0,.9-.2,1.1Z"/>
              <path class="cls-2" d="M207.4,147.3a5.8,5.8,0,0,1,2.1-.7,9.8,9.8,0,0,1,2.6-.3,13.6,13.6,0,0,1,3,.4,5,5,0,0,1,2.2,1.1,3.8,3.8,0,0,1,1.2,2.8c0,1.7-1.4,2.6-4.3,2.6l-3.2-.3a4.3,4.3,0,0,0,.6,2,2.1,2.1,0,0,0,1.7.6,6,6,0,0,0,2-.3,3.3,3.3,0,0,0,1.2-.5l.9-.3a.5.5,0,0,1,.5.3,1.5,1.5,0,0,1,.4,1.1,1.3,1.3,0,0,1-.3,1l-.8.5a15.8,15.8,0,0,1-6,.9,8.7,8.7,0,0,1-5.2-1.6,4.8,4.8,0,0,1-2.1-4.1,5.9,5.9,0,0,1,.5-2.3,4.3,4.3,0,0,1,1.2-1.7A5.7,5.7,0,0,1,207.4,147.3Zm5.1,1.5c-.9,0-1.4.8-1.4,2.2h1.1c.9,0,1.4-.3,1.4-1S213.2,148.8,212.5,148.8Z"/>
              <path class="cls-2" d="M222.1,146.6h4.3a1.3,1.3,0,0,1,1,.3,1.5,1.5,0,0,1,.3,1v.8a4.2,4.2,0,0,1,4-2.4,2,2,0,0,1,1.5.6,2.3,2.3,0,0,1,.6,1.6,3.7,3.7,0,0,1-.5,2,1.8,1.8,0,0,1-1.5,1,2.8,2.8,0,0,1-1.2-.5,2.7,2.7,0,0,0-1.3-.4l-1,.3a1.4,1.4,0,0,0-.5,1.2c0,2.3,0,3.9-.1,4.7l-.4.6a2.3,2.3,0,0,1-1.1.4H222a1.1,1.1,0,0,1-.8-.3l-.4-.6c-.1-1-.1-2.4-.1-4.4s0-3.3.1-4.1a3.7,3.7,0,0,1,.3-1.4A1.3,1.3,0,0,1,222.1,146.6Z"/>
              <path class="cls-2" d="M238.2,147.3a5.8,5.8,0,0,1,2.1-.7,9.8,9.8,0,0,1,2.6-.3,13.6,13.6,0,0,1,3,.4,4.1,4.1,0,0,1,2.1,1.1,3.5,3.5,0,0,1,1.3,2.8c0,1.7-1.5,2.6-4.3,2.6a17.3,17.3,0,0,1-3.2-.3,3.4,3.4,0,0,0,.6,2,1.8,1.8,0,0,0,1.6.6,5.6,5.6,0,0,0,2-.3,3.2,3.2,0,0,0,1.3-.5l.8-.3a.6.6,0,0,1,.6.3,1.5,1.5,0,0,1,.4,1.1,1.3,1.3,0,0,1-.3,1l-.8.5a15.8,15.8,0,0,1-6,.9,8.5,8.5,0,0,1-5.2-1.6,4.8,4.8,0,0,1-2.1-4.1,5.9,5.9,0,0,1,.5-2.3,4.3,4.3,0,0,1,1.2-1.7A5.7,5.7,0,0,1,238.2,147.3Zm5.1,1.5c-.9,0-1.4.8-1.5,2.2h1.1c1,0,1.5-.3,1.5-1S244,148.8,243.3,148.8Z"/>
              <path class="cls-2" d="M261,156.9v-5.4a1.3,1.3,0,0,0-.3-1,1.1,1.1,0,0,0-.8-.3l-.9.3a1.2,1.2,0,0,0-.4,1v1.3a31.8,31.8,0,0,1-.2,4,.9.9,0,0,1-.3.6,2.3,2.3,0,0,1-1.1.4h-4.2a1.1,1.1,0,0,1-.8-.3l-.4-.6c-.1-1-.1-2.4-.1-4.4s0-3.3.1-4.1a2.4,2.4,0,0,1,.3-1.4,1.3,1.3,0,0,1,1-.3h4.3a1.3,1.3,0,0,1,1,.3,6.8,6.8,0,0,1,.3,1.2h0a5.4,5.4,0,0,1,4.1-1.8,5.6,5.6,0,0,1,3.8,1.2,4.3,4.3,0,0,1,1.5,3.3v5.9a4.6,4.6,0,0,1-.3.9l-1.1.2h-4.2a1.3,1.3,0,0,1-1-.3A.9.9,0,0,1,261,156.9Z"/>
              <path class="cls-2" d="M279.5,149.8a1.7,1.7,0,0,0-1.5.7,2.9,2.9,0,0,0,.1,3.4,2.2,2.2,0,0,0,1.9.7l1.2-.2,1.2-.2c.5,0,.8.5.8,1.4a4.1,4.1,0,0,1-.1,1.2c0,.4-.3.7-.8.8a12.4,12.4,0,0,1-3.9.7h-2.7l-2.2-.5a7.7,7.7,0,0,1-1.8-1,4.3,4.3,0,0,1-1.2-1.7,6.5,6.5,0,0,1-.4-2.6,5.7,5.7,0,0,1,.7-2.9,5,5,0,0,1,1.9-1.9,12,12,0,0,1,5.7-1.2,13.1,13.1,0,0,1,3.8.6c.5.2.8.8.8,1.8s-.3,1.5-.8,1.5L281,150Z"/>
              <path class="cls-2" d="M286.6,146.7h4.3a1.3,1.3,0,0,1,1,.3,3.4,3.4,0,0,1,.3,1.5,40.2,40.2,0,0,1,.1,4.1,35.9,35.9,0,0,1-.2,4.2.9.9,0,0,1-.3.7,1.6,1.6,0,0,1-1.1.3h-3.8a1.7,1.7,0,0,1-1.2-.3,1.6,1.6,0,0,1-.4-.7c-.1-.9-.1-2.4-.1-4.4a39,39,0,0,1,.1-4,2.2,2.2,0,0,1,.3-1.4A1.3,1.3,0,0,1,286.6,146.7Zm2.4-5.2a3.1,3.1,0,0,1,2.1.6,1.8,1.8,0,0,1,.8,1.6c0,1.5-1.1,2.3-3.2,2.3a5.1,5.1,0,0,1-2.2-.5,1.9,1.9,0,0,1-.9-1.7C285.6,142.3,286.7,141.5,289,141.5Z"/>
              <path class="cls-2" d="M302.7,146.2c4.7,0,7.2,1.6,7.2,4.7v5.9a1.1,1.1,0,0,1-.3.8c-.2.2-.5.2-1,.2h-4.7c-.5,0-.8,0-1-.2a3.4,3.4,0,0,1-.3-.8h0a5.1,5.1,0,0,1-3.9,1.5,4.9,4.9,0,0,1-3-.9,2.9,2.9,0,0,1-1.2-2.4,3.5,3.5,0,0,1,.9-2.5,3.7,3.7,0,0,1,2-1.2,10.9,10.9,0,0,1,2.6-.3l2.7.2h0a2.7,2.7,0,0,0-.4-1.5,1.6,1.6,0,0,0-1.4-.5h-1.6l-1,.4-1.2.5a.9.9,0,0,1-.7-.3,1.5,1.5,0,0,1-.2-1c0-.5,0-.8.2-1a1.6,1.6,0,0,1,.8-.5A13.2,13.2,0,0,1,302.7,146.2Zm-1.1,9c.7,0,1-.1,1-.3a10.3,10.3,0,0,0,.1-1.9c0-.3-.3-.5-.7-.5a2.1,2.1,0,0,0-1.2.3,1.3,1.3,0,0,0-.4,1,1.8,1.8,0,0,0,.3,1.1Z"/>
            </g>
          </g>
        </g>
      </g>
    </g>
  </g>
</svg>
