<svg xmlns="http://www.w3.org/2000/svg" width="484.2" height="162.8" viewBox="0 0 484.2 162.8">
  <defs>
    <style>
      .cls-1 {
        isolation: isolate;
      }

      .cls-2 {
        fill: #4f2fef;
      }

      .cls-3 {
        fill: #fff;
      }

      .cls-4 {
        mix-blend-mode: multiply;
      }

      .cls-5 {
        fill: #e743ff;
      }

      .cls-6 {
        fill: #fefefe;
      }
    </style>
  </defs>
  <g class="cls-1">
    <g id="Layer_2" data-name="Layer 2">
      <g id="Layer_1-2" data-name="Layer 1">
        <g>
          <rect class="cls-2" y="21" width="484.2" height="36.77"/>
          <g>
            <path class="cls-3" d="M87.4,4.5l20.9,35.3a6.9,6.9,0,0,1,1.3,3.6,2.2,2.2,0,0,1-1.2,2.1,4.5,4.5,0,0,1-2.7.7H85.2c-2.1,0-3.5-.4-4.1-1.1s-.4-.7-.7-1.4l-1.8-3.9q-.9-1.9-3.9-2.1H62.6l-2.1.2a2.6,2.6,0,0,0-1.1,1.2l-2.5,5.1a3.8,3.8,0,0,1-1.4,1.6,4.7,4.7,0,0,1-2.3.4H47.5q-2.6,0-2.7-1.8a4.3,4.3,0,0,1-.1-.5,5.3,5.3,0,0,1,1-2.8l20-35.3c1.9-3.3,5-5,9.4-5h5.1C83.6.8,86,2,87.4,4.5ZM66.7,20.8l-3,5.9a3.6,3.6,0,0,0-.2,1c0,1.1.5,1.7,1.6,1.7h5.8a2.2,2.2,0,0,0,1.8-.7,2.2,2.2,0,0,0,.6-1.2,3.6,3.6,0,0,0-.2-1L70.6,21c-.5-1.1-1.1-1.7-1.9-1.7A2.2,2.2,0,0,0,66.7,20.8Z"/>
            <path class="cls-3" d="M158.8,34l8.6,9.6a1.6,1.6,0,0,1,.4,1c0,1.1-.5,1.7-1.4,1.7H152.7a4.6,4.6,0,0,1-3.3-1.5l-5.5-8.3-.8-.5c-.7-.3-1,0-1,.8v6.6c0,1.8-1.2,2.8-3.6,2.9l-7.9.2-10.4-.3a4.6,4.6,0,0,1-3-1.3,4.9,4.9,0,0,1-1.3-2.6c-.3-3.8-.5-9.7-.5-17.7s.1-13.9.4-17.6,2.1-5.5,5.5-5.5h27.2a16.9,16.9,0,0,1,12.9,5.9,19.3,19.3,0,0,1,5.1,13,16.2,16.2,0,0,1-2,7.8A15.1,15.1,0,0,1,158.8,34ZM142,14.8V26.7c0,.8.5,1.2,1.4,1.2a8.8,8.8,0,0,0,6.2-2.2,7.1,7.1,0,0,0,2.3-5.2,6.9,6.9,0,0,0-2.2-5.2c-1.4-1.5-3.5-2.2-6.3-2.2C142.5,13.1,142,13.7,142,14.8Z"/>
            <path class="cls-3" d="M215.2,4.5l20.9,35.3a6.9,6.9,0,0,1,1.3,3.6,2.4,2.4,0,0,1-1.1,2.1,5,5,0,0,1-2.7.7H213c-2.1,0-3.5-.4-4-1.1a7.5,7.5,0,0,1-.8-1.4l-1.8-3.9q-.9-1.9-3.9-2.1H190.4l-2,.2a2.3,2.3,0,0,0-1.2,1.2l-2.5,5.1a3.8,3.8,0,0,1-1.4,1.6,4.3,4.3,0,0,1-2.2.4h-5.8q-2.4,0-2.7-1.8v-.5a5.1,5.1,0,0,1,.9-2.8l20-35.3c2-3.3,5.1-5,9.4-5H208C211.4.8,213.8,2,215.2,4.5ZM194.5,20.8l-2.9,5.9a1.9,1.9,0,0,0-.3,1c0,1.1.5,1.7,1.6,1.7h5.8a2.6,2.6,0,0,0,1.9-.7,2.8,2.8,0,0,0,.5-1.2,3.6,3.6,0,0,0-.2-1L198.5,21c-.5-1.1-1.2-1.7-2-1.7A2.3,2.3,0,0,0,194.5,20.8Z"/>
            <path class="cls-3" d="M268.3,8.2V26.3a5.4,5.4,0,0,0,1.6,4.2,5.8,5.8,0,0,0,7.8,0,5.4,5.4,0,0,0,1.6-4.2V7.3a9.5,9.5,0,0,1,.8-4.4c.6-1,1.7-1.4,3.5-1.4h5.9a3,3,0,0,1,2.8,1.2q1.5,2.1,1.5,16.8c0,3.2-.1,5.7-.2,7.4a21.2,21.2,0,0,1-2.3,9.2,19,19,0,0,1-5.7,6.5,26.7,26.7,0,0,1-15.8,4.9q-11.7,0-19.2-5.4a19.8,19.8,0,0,1-6.1-7.3,25.5,25.5,0,0,1-2.3-10.7V15.3c0-3.9,0-6.8.1-8.5a8.6,8.6,0,0,1,1.1-4c.5-.9,1.7-1.3,3.4-1.3h17.1c1.7,0,2.8.4,3.4,1.3A10.9,10.9,0,0,1,268.3,8.2Z"/>
            <path class="cls-3" d="M322.6,47.5c-7.6,0-13.7-1.9-18.1-5.8s-6.7-9.5-6.7-16.6a29,29,0,0,1,2.1-11.4A19.4,19.4,0,0,1,306,5.8C311.1,1.9,317.9,0,326.4,0a60.9,60.9,0,0,1,16.3,2.2c2.1.7,3.2,2.4,3.2,5.1s-1.2,5.5-3.5,5.5l-3.8-.5a24.8,24.8,0,0,0-4.4-.5c-3.1,0-5.4,1-7,3.1a11.8,11.8,0,0,0-2.5,7.6,13.4,13.4,0,0,0,2.3,7.7,7.3,7.3,0,0,0,6.3,3.4l9.5.2c2.2,0,3.4,1,3.6,3.1a9,9,0,0,1,.2,2.3,9.7,9.7,0,0,1-.2,2.4c-.2,1.6-1.4,2.7-3.6,3.4a51.2,51.2,0,0,1-9.2,1.8A87.8,87.8,0,0,1,322.6,47.5Z"/>
            <path class="cls-3" d="M393.7,4.5l20.9,35.3a7.9,7.9,0,0,1,1.3,3.6,2.2,2.2,0,0,1-1.2,2.1,4.5,4.5,0,0,1-2.7.7H391.4c-2,0-3.4-.4-4-1.1l-.7-1.4-1.8-3.9q-.9-1.9-3.9-2.1H368.9l-2.1.2a2.6,2.6,0,0,0-1.1,1.2l-2.5,5.1a3.8,3.8,0,0,1-1.4,1.6,4.7,4.7,0,0,1-2.3.4h-5.7q-2.6,0-2.7-1.8a4.3,4.3,0,0,1-.1-.5,5.3,5.3,0,0,1,1-2.8L372,5.8c1.9-3.3,5-5,9.3-5h5.2C389.9.8,392.3,2,393.7,4.5ZM373,20.8l-3,5.9a3.6,3.6,0,0,0-.2,1c0,1.1.5,1.7,1.6,1.7h5.8a2.2,2.2,0,0,0,1.8-.7,2.2,2.2,0,0,0,.6-1.2,3.6,3.6,0,0,0-.2-1L376.9,21c-.5-1.1-1.1-1.7-2-1.7S373.5,19.8,373,20.8Z"/>
            <path class="cls-3" d="M421.9,11.3A7.2,7.2,0,0,1,424.2,6a8.8,8.8,0,0,1,6.1-2.2q3.9,0,5.7,2.1a7.2,7.2,0,0,1,1.9,4.9,7.1,7.1,0,0,1-2.3,5.1,7.5,7.5,0,0,1-5.6,2.3,9.3,9.3,0,0,1-5.7-1.9A6.1,6.1,0,0,1,421.9,11.3Zm0,28.8a7.4,7.4,0,0,1,2.3-5.3,8.7,8.7,0,0,1,6.1-2.1q3.9,0,5.7,2.1a6.9,6.9,0,0,1,1.9,4.9,7,7,0,0,1-2.3,5A7.5,7.5,0,0,1,430,47a8.7,8.7,0,0,1-5.7-1.9A5.9,5.9,0,0,1,421.9,40.1Z"/>
          </g>
          <g class="cls-4">
            <rect class="cls-5" y="21" width="484.2" height="36.77"/>
          </g>
          <rect class="cls-5" y="82.1" width="484.2" height="36.77"/>
          <rect class="cls-5" y="126" width="484.2" height="36.77"/>
          <g>
            <path class="cls-6" d="M23.3,107.5h-8a3.9,3.9,0,0,1-1.5-.4,1.1,1.1,0,0,1-.6-.9c-.1-1.6-.1-3.4-.1-5.4s0-4.2.1-6.5a1.9,1.9,0,0,1,1.9-2.2h8.5a7.3,7.3,0,0,1,3,.7A6.1,6.1,0,0,1,29,94.6a7.4,7.4,0,0,1,1.8,4.9,7.8,7.8,0,0,1-1.9,5.3,6.5,6.5,0,0,1-2.4,1.9A8.4,8.4,0,0,1,23.3,107.5Zm-1-10.6v5.3c0,.2,0,.3.1.4h.4a2.6,2.6,0,0,0,2.1-.9,4,4,0,0,0,.8-2.3,3.5,3.5,0,0,0-.7-2.3,2.2,2.2,0,0,0-1.9-1h-.4C22.4,96.3,22.3,96.5,22.3,96.9Z"/>
            <path class="cls-6" d="M40.7,108c-5.5,0-8.2-1.9-8.2-5.9a5.1,5.1,0,0,1,2.1-4.4c1.4-1.1,3.4-1.6,6.1-1.6s4.7.5,6.1,1.6a5.1,5.1,0,0,1,2.1,4.4C48.9,106.1,46.2,108,40.7,108Zm0-3.5c.9,0,1.3-.8,1.3-2.4a4.2,4.2,0,0,0-.3-1.8,1,1,0,0,0-1-.6.9.9,0,0,0-1,.6,4.2,4.2,0,0,0-.3,1.8C39.4,103.7,39.8,104.5,40.7,104.5Z"/>
            <path class="cls-6" d="M55.9,104.7a1,1,0,0,0-.5-1,3.3,3.3,0,0,0-1.2-.5l-1.5-.5a2.6,2.6,0,0,1-1.3-.8,3.1,3.1,0,0,1-.5-1.7c0-2.7,2.1-4.1,6.4-4.1a8.9,8.9,0,0,1,4.3.9l.8.6a1.4,1.4,0,0,1,.2.9,1.2,1.2,0,0,1-.3.9.5.5,0,0,1-.5.3,2.7,2.7,0,0,1-1.1-.5,3.4,3.4,0,0,0-1.7-.5.6.6,0,0,0-.7.7.7.7,0,0,0,.5.8,3.3,3.3,0,0,0,1.2.5l1.5.5a3.5,3.5,0,0,1,1.2,1,3.2,3.2,0,0,1,.5,1.8c0,2.7-2.1,4-6.4,4a12.1,12.1,0,0,1-5-.9,1.9,1.9,0,0,1-.9-.5c-.2-.1-.2-.4-.2-.9s0-.7.2-.9l.5-.3,1.3.5a5.2,5.2,0,0,0,2.1.4C55.6,105.4,55.9,105.2,55.9,104.7Z"/>
            <path class="cls-6" d="M83.4,99.5a1.8,1.8,0,0,0-1.5.7,3.1,3.1,0,0,0-.5,1.7,2.4,2.4,0,0,0,.6,1.7,2.3,2.3,0,0,0,1.9.8l1.2-.2,1.2-.3c.5,0,.8.5.8,1.5a4.9,4.9,0,0,1-.1,1.2c0,.4-.3.6-.8.8a16.1,16.1,0,0,1-3.9.7l-2.8-.2a7.8,7.8,0,0,1-2.1-.4,7.7,7.7,0,0,1-1.8-1,4.3,4.3,0,0,1-1.2-1.7,6.8,6.8,0,0,1-.4-2.6,5.4,5.4,0,0,1,.7-2.9,4.4,4.4,0,0,1,1.9-1.9,12,12,0,0,1,5.7-1.2,13.1,13.1,0,0,1,3.8.6c.5.1.8.7.8,1.7s-.3,1.5-.8,1.5a3.5,3.5,0,0,1-1.2-.2Z"/>
            <path class="cls-6" d="M96.8,108c-5.4,0-8.2-1.9-8.2-5.9a5.1,5.1,0,0,1,2.1-4.4c1.4-1.1,3.4-1.6,6.1-1.6s4.8.5,6.1,1.6a5.1,5.1,0,0,1,2.1,4.4C105,106.1,102.3,108,96.8,108Zm0-3.5c.9,0,1.3-.8,1.3-2.4a7.4,7.4,0,0,0-.2-1.8,1.1,1.1,0,0,0-1.1-.6,1,1,0,0,0-1,.6,4.2,4.2,0,0,0-.3,1.8C95.5,103.7,96,104.5,96.8,104.5Z"/>
            <path class="cls-6" d="M116.8,106.6v-5.4a1.2,1.2,0,0,0-.3-.9,1,1,0,0,0-.9-.4,1.2,1.2,0,0,0-.9.4,1.3,1.3,0,0,0-.4.9v1.4a36.8,36.8,0,0,1-.1,3.9,1,1,0,0,1-.4.7,1.4,1.4,0,0,1-1.1.3h-4.1a1.2,1.2,0,0,1-.9-.3.9.9,0,0,1-.3-.7,41.7,41.7,0,0,1-.2-4.4c0-1.9.1-3.3.1-4a2.9,2.9,0,0,1,.4-1.4q.1-.3.9-.3h4.3c.5,0,.9.1,1,.3a2.3,2.3,0,0,1,.4,1.1h0a5.7,5.7,0,0,1,4.1-1.7,5.6,5.6,0,0,1,3.8,1.2,4.2,4.2,0,0,1,1.4,3.2v6c0,.4-.1.7-.3.8a1.3,1.3,0,0,1-1,.3H118l-.9-.2A1,1,0,0,1,116.8,106.6Z"/>
            <path class="cls-6" d="M127,99.6c0-.3-.2-.4-.5-.4s-.9-.2-1-.6a2.2,2.2,0,0,1-.1-.9,1.9,1.9,0,0,1,.2-.8.9.9,0,0,1,.6-.4l.9-.4,1.6-1.3,1.6-1.3a2.1,2.1,0,0,1,1.2-.3h1.1c.5,0,.9,0,1,.2a.5.5,0,0,1,.3.5V96c0,.3.1.5.4.5h2.3l.9.2a2.7,2.7,0,0,1,.2,1.1,2.9,2.9,0,0,1-.2,1.2l-.8.2h-2.3c-.2,0-.4.1-.4.2s-.1.2-.1.4v2.6a1.6,1.6,0,0,0,.6,1.3,2,2,0,0,0,1.4.5l1.2-.3.9-.2c.4,0,.6.6.6,1.7s-.2,1.4-.7,1.6a7.7,7.7,0,0,1-2,.4h-2.5a10.1,10.1,0,0,1-2.5-.2,8.6,8.6,0,0,1-2.1-.7c-1.2-.7-1.8-2.1-1.8-4.1Z"/>
            <path class="cls-6" d="M142,96.4h4.3a1.3,1.3,0,0,1,1,.3,1.2,1.2,0,0,1,.3.9v.8a4.3,4.3,0,0,1,4-2.3,1.9,1.9,0,0,1,1.5.6,2.1,2.1,0,0,1,.6,1.6,3.4,3.4,0,0,1-.5,1.9,1.5,1.5,0,0,1-1.5,1,2.4,2.4,0,0,1-1.2-.4,2.7,2.7,0,0,0-1.3-.5,1.6,1.6,0,0,0-1,.4,1.3,1.3,0,0,0-.5,1.1c0,2.4,0,4-.1,4.7a1.3,1.3,0,0,1-1.5,1H142a1.2,1.2,0,0,1-.9-.3.9.9,0,0,1-.3-.7,41.7,41.7,0,0,1-.2-4.4,39,39,0,0,1,.1-4,6.1,6.1,0,0,1,.3-1.4A1.3,1.3,0,0,1,142,96.4Z"/>
            <path class="cls-6" d="M162.8,96c4.8,0,7.2,1.6,7.2,4.7.1,1.3.1,2.5.1,3.6v2.2a1.2,1.2,0,0,1-.3.9l-1.1.2H164l-.9-.2a1.1,1.1,0,0,1-.3-.8h0a5.4,5.4,0,0,1-4,1.5,5.1,5.1,0,0,1-3-.9,2.6,2.6,0,0,1-1.2-2.4,3.2,3.2,0,0,1,.9-2.4,4.5,4.5,0,0,1,2.1-1.2,6.9,6.9,0,0,1,2.5-.4,11.8,11.8,0,0,1,2.7.3h0a2.4,2.4,0,0,0-.4-1.6,1.8,1.8,0,0,0-1.4-.5l-1.6.2-.9.3-1.3.6a.7.7,0,0,1-.6-.4,1.3,1.3,0,0,1-.3-1,1.7,1.7,0,0,1,.2-.9l.9-.6A12.5,12.5,0,0,1,162.8,96Zm-1,9c.6,0,.9-.1,1-.4v-1.9c0-.3-.2-.4-.7-.4a1.8,1.8,0,0,0-1.1.3,1.2,1.2,0,0,0-.5,1,1.2,1.2,0,0,0,.4,1A1,1,0,0,0,161.8,105Z"/>
            <path class="cls-6" d="M173.7,99.6c0-.3-.2-.4-.5-.4s-.9-.2-1-.6a2.2,2.2,0,0,1-.1-.9,1.9,1.9,0,0,1,.1-.8c.1-.2.4-.3.7-.4a2,2,0,0,0,.8-.4l1.6-1.3,1.7-1.3a2.1,2.1,0,0,1,1.2-.3h1.1c.5,0,.8,0,1,.2a.5.5,0,0,1,.3.5V96c0,.3.1.5.4.5h2.3l.8.2a1.6,1.6,0,0,1,.3,1.1,1.7,1.7,0,0,1-.3,1.2l-.8.2H181l-.4.2v3a1.9,1.9,0,0,0,.5,1.3,2.5,2.5,0,0,0,1.5.5l1.1-.3,1-.2c.3,0,.5.6.5,1.7s-.2,1.4-.6,1.6a8.8,8.8,0,0,1-2,.4H180a9.7,9.7,0,0,1-2.4-.2,6.5,6.5,0,0,1-2.1-.7c-1.2-.7-1.8-2.1-1.8-4.1Z"/>
            <path class="cls-6" d="M195,108c-5.4,0-8.2-1.9-8.2-5.9a5.1,5.1,0,0,1,2.1-4.4c1.4-1.1,3.5-1.6,6.1-1.6s4.8.5,6.2,1.6a5.3,5.3,0,0,1,2,4.4C203.2,106.1,200.5,108,195,108Zm0-3.5c.9,0,1.3-.8,1.3-2.4a7.4,7.4,0,0,0-.2-1.8,1.1,1.1,0,0,0-1.1-.6,1,1,0,0,0-1,.6,4.2,4.2,0,0,0-.3,1.8C193.7,103.7,194.2,104.5,195,104.5Z"/>
            <path class="cls-6" d="M210.3,104.7a1.2,1.2,0,0,0-.5-1l-1.3-.5-1.5-.5a2,2,0,0,1-1.2-.8,2.5,2.5,0,0,1-.6-1.7c0-2.7,2.2-4.1,6.4-4.1a9.3,9.3,0,0,1,4.4.9,2.2,2.2,0,0,1,.7.6c.2.1.2.4.2.9s0,.7-.2.9-.3.3-.5.3a2.2,2.2,0,0,1-1.1-.5,4.1,4.1,0,0,0-1.8-.5.7.7,0,0,0-.7.7.9.9,0,0,0,.5.8l1.3.5,1.4.5a2.3,2.3,0,0,1,1.2,1,2.6,2.6,0,0,1,.5,1.8c0,2.7-2.1,4-6.3,4a12.3,12.3,0,0,1-5.1-.9,1.2,1.2,0,0,1-.8-.5q-.3-.1-.3-.9a1.2,1.2,0,0,1,.3-.9l.4-.3a3,3,0,0,1,1.3.5,5.4,5.4,0,0,0,2.2.4C209.9,105.4,210.3,105.2,210.3,104.7Z"/>
            <path class="cls-6" d="M221,107.5a2.1,2.1,0,0,1-1.3-2.2,2,2,0,0,1,.9-1.7,2.9,2.9,0,0,1,2-.7,2.8,2.8,0,0,1,1.8.6,2.2,2.2,0,0,1,.8,1.8,5.1,5.1,0,0,1-5,5,.5.5,0,0,1-.4-.3,1.5,1.5,0,0,1-.3-.6.5.5,0,0,1,.2-.4A2.3,2.3,0,0,0,221,107.5Z"/>
            <path class="cls-6" d="M243.3,97.3v5.4a1.7,1.7,0,0,0,.3,1,.9.9,0,0,0,.7.3,1.6,1.6,0,0,0,.9-.3,3.1,3.1,0,0,0,.5-1v-1.3a30.6,30.6,0,0,1,.2-4,.6.6,0,0,1,.4-.6,1.9,1.9,0,0,1,1-.4h4.2a1,1,0,0,1,.8.3.6.6,0,0,1,.4.6,43.3,43.3,0,0,1,.2,4.4c0,2-.1,3.3-.1,4a3.4,3.4,0,0,1-.4,1.5c-.1.2-.5.3-1,.3h-4.2c-.5,0-.9-.1-1-.3a2.8,2.8,0,0,1-.4-1.2h0a7.1,7.1,0,0,1-4.6,1.7,4.8,4.8,0,0,1-3.5-1.1,4.5,4.5,0,0,1-1.2-3.3c0-1.4-.1-2.6-.1-3.7a12.9,12.9,0,0,1,.1-2.3,1.1,1.1,0,0,1,.3-.8c.1-.2.5-.2,1-.2h4.3a1.2,1.2,0,0,1,.9.3A.8.8,0,0,1,243.3,97.3Z"/>
            <path class="cls-6" d="M265,106.6v-5.4a1,1,0,0,0-.4-.9.9.9,0,0,0-.8-.4,1.2,1.2,0,0,0-.9.4,1,1,0,0,0-.4.9v1.4a36.8,36.8,0,0,1-.1,3.9,1.3,1.3,0,0,1-1.5,1h-4.2a1.1,1.1,0,0,1-.8-.3,1.6,1.6,0,0,1-.4-.7c-.1-.9-.1-2.4-.1-4.4a39,39,0,0,1,.1-4,2.2,2.2,0,0,1,.3-1.4,1.3,1.3,0,0,1,1-.3h4.3a1.3,1.3,0,0,1,1,.3,1.6,1.6,0,0,1,.3,1.1h0a5.7,5.7,0,0,1,4.1-1.7,5.9,5.9,0,0,1,3.9,1.2,4.5,4.5,0,0,1,1.4,3.2v6c0,.4-.1.7-.3.8a1.6,1.6,0,0,1-1.1.3h-4.2l-1-.2A1,1,0,0,1,265,106.6Z"/>
            <path class="cls-6" d="M302,106.6v-5.4a1,1,0,0,0-.4-.9.8.8,0,0,0-.8-.4,1.2,1.2,0,0,0-.9.4,1,1,0,0,0-.4.9v5.3c0,.4-.1.7-.3.8a1.4,1.4,0,0,1-1.1.3h-4.2l-1-.2a1.5,1.5,0,0,1-.2-.8v-5.4a1.2,1.2,0,0,0-.3-.9,1.1,1.1,0,0,0-.9-.4,1.2,1.2,0,0,0-.9.4,1.3,1.3,0,0,0-.4.9v1.4a36.8,36.8,0,0,1-.1,3.9,1,1,0,0,1-.4.7,1.4,1.4,0,0,1-1.1.3h-4.1a1.2,1.2,0,0,1-.9-.3.9.9,0,0,1-.3-.7,41.7,41.7,0,0,1-.2-4.4c0-1.9.1-3.3.1-4a6.1,6.1,0,0,1,.3-1.4,1.3,1.3,0,0,1,1-.3h4.3c.5,0,.9.1,1,.3a1.6,1.6,0,0,1,.3,1.1h0a6.2,6.2,0,0,1,4.4-1.7,5.7,5.7,0,0,1,2.7.6,3.9,3.9,0,0,1,1.8,1.8,4.9,4.9,0,0,1,2-1.8,6.3,6.3,0,0,1,2.7-.6,5.7,5.7,0,0,1,3.7,1.2,4.2,4.2,0,0,1,1.4,3.2v6c0,.4-.1.7-.3.8a1.4,1.4,0,0,1-1.1.3h-4.2l-1-.2C302,107.2,302,107,302,106.6Z"/>
            <path class="cls-6" d="M312.6,96.4h4.3c.5,0,.9.1,1,.4a2.9,2.9,0,0,1,.4,1.4v4.2c0,2,0,3.4-.1,4.2a1.3,1.3,0,0,1-.4.7,2,2,0,0,1-1,.3h-3.9a3,3,0,0,1-1.2-.3,1.1,1.1,0,0,1-.3-.7,43.3,43.3,0,0,1-.2-4.4c0-2,.1-3.3.1-4s.2-1.2.4-1.4S312.1,96.4,312.6,96.4Zm2.4-5.2a3.4,3.4,0,0,1,2.2.6,1.9,1.9,0,0,1,.7,1.6c0,1.6-1,2.4-3.1,2.4a3.8,3.8,0,0,1-2.2-.6,1.7,1.7,0,0,1-.9-1.6Q311.7,91.2,315,91.2Z"/>
            <path class="cls-6" d="M325.8,104.7a1,1,0,0,0-.5-1l-1.2-.5-1.5-.5a2.2,2.2,0,0,1-1.3-.8,3.1,3.1,0,0,1-.5-1.7c0-2.7,2.1-4.1,6.3-4.1a9,9,0,0,1,4.4.9l.8.6a1.4,1.4,0,0,1,.2.9,1.2,1.2,0,0,1-.3.9.5.5,0,0,1-.5.3,2.7,2.7,0,0,1-1.1-.5,3.4,3.4,0,0,0-1.7-.5.6.6,0,0,0-.7.7.7.7,0,0,0,.5.8,3.3,3.3,0,0,0,1.2.5l1.4.5a3.1,3.1,0,0,1,1.3,1,3.2,3.2,0,0,1,.5,1.8c0,2.7-2.1,4-6.4,4a12.1,12.1,0,0,1-5-.9,1.9,1.9,0,0,1-.9-.5q-.3-.1-.3-.9a1.2,1.2,0,0,1,.3-.9l.5-.3a3.4,3.4,0,0,1,1.2.5,6,6,0,0,0,2.2.4C325.5,105.4,325.8,105.2,325.8,104.7Z"/>
            <path class="cls-6" d="M354.1,106.6v-5.4a1.2,1.2,0,0,0-.3-.9.9.9,0,0,0-.8-.4,1.2,1.2,0,0,0-.9.4,1,1,0,0,0-.4.9v5.3c0,.4-.1.7-.3.8a1.6,1.6,0,0,1-1.1.3h-4.2l-1-.2a1,1,0,0,1-.3-.8v-5.4a1.3,1.3,0,0,0-.4-.9.9.9,0,0,0-.8-.4,1.2,1.2,0,0,0-.9.4,1,1,0,0,0-.4.9v1.4c0,1.9-.1,3.2-.1,3.9a1.3,1.3,0,0,1-1.5,1h-4.2a1.1,1.1,0,0,1-.8-.3,1.6,1.6,0,0,1-.4-.7c-.1-.9-.1-2.4-.1-4.4a39,39,0,0,1,.1-4,2.2,2.2,0,0,1,.3-1.4,1.3,1.3,0,0,1,1-.3H341a1.3,1.3,0,0,1,1,.3,1.6,1.6,0,0,1,.3,1.1h0a6,6,0,0,1,4.3-1.7,6.1,6.1,0,0,1,2.8.6,3.9,3.9,0,0,1,1.8,1.8,4.4,4.4,0,0,1,2-1.8,6,6,0,0,1,2.7-.6,5.2,5.2,0,0,1,3.6,1.2,3.9,3.9,0,0,1,1.4,3.2c.1,1.4.1,2.7.1,3.8v2.2a2.2,2.2,0,0,1-.3.8,1.6,1.6,0,0,1-1.1.3h-4.2l-1-.2A1,1,0,0,1,354.1,106.6Z"/>
            <path class="cls-6" d="M371.2,108c-5.5,0-8.2-1.9-8.2-5.9a5.1,5.1,0,0,1,2.1-4.4c1.3-1.1,3.4-1.6,6.1-1.6s4.7.5,6.1,1.6a5.1,5.1,0,0,1,2.1,4.4C379.4,106.1,376.6,108,371.2,108Zm0-3.5c.8,0,1.3-.8,1.3-2.4a4.2,4.2,0,0,0-.3-1.8,1,1,0,0,0-1-.6,1.1,1.1,0,0,0-1.1.6,7.4,7.4,0,0,0-.2,1.8C369.9,103.7,370.3,104.5,371.2,104.5Z"/>
            <path class="cls-6" d="M399.6,99.5a1.8,1.8,0,0,0-1.5.7,2.5,2.5,0,0,0-.5,1.7,2.4,2.4,0,0,0,.6,1.7,2.3,2.3,0,0,0,1.9.8l1.2-.2,1.2-.3c.5,0,.7.5.8,1.5s-.1.8-.1,1.2-.3.6-.8.8a16.1,16.1,0,0,1-3.9.7l-2.8-.2a7.8,7.8,0,0,1-2.1-.4,5,5,0,0,1-1.8-1,4.3,4.3,0,0,1-1.2-1.7,6.8,6.8,0,0,1-.4-2.6,6.5,6.5,0,0,1,.6-2.9,5,5,0,0,1,1.9-1.9,12.8,12.8,0,0,1,5.8-1.2,11.9,11.9,0,0,1,3.7.6c.6.1.8.7.8,1.7s-.2,1.5-.7,1.5a3.5,3.5,0,0,1-1.2-.2Z"/>
            <path class="cls-6" d="M413,96c4.8,0,7.2,1.6,7.2,4.7.1,1.3.1,2.5.1,3.6a11.6,11.6,0,0,1-.1,2.2,2,2,0,0,1-.2.9l-1.1.2h-4.7l-.9-.2a1.1,1.1,0,0,1-.3-.8h-.1a5,5,0,0,1-3.9,1.5,4.9,4.9,0,0,1-3-.9,2.6,2.6,0,0,1-1.2-2.4,3.2,3.2,0,0,1,.9-2.4,4.1,4.1,0,0,1,2-1.2,7.5,7.5,0,0,1,2.6-.4,12.4,12.4,0,0,1,2.7.3h0a2.4,2.4,0,0,0-.4-1.6,2,2,0,0,0-1.4-.5l-1.6.2-1,.3a3.1,3.1,0,0,1-1.2.6.5.5,0,0,1-.6-.4,1.3,1.3,0,0,1-.3-1,1.7,1.7,0,0,1,.2-.9l.8-.6A13.4,13.4,0,0,1,413,96Zm-1,9c.6,0,.9-.1.9-.4a9.8,9.8,0,0,0,.1-1.9c0-.3-.2-.4-.7-.4a2.1,2.1,0,0,0-1.2.3,1.4,1.4,0,0,0,0,2A1,1,0,0,0,412,105Z"/>
            <path class="cls-6" d="M424.3,96.4h4.3c.5,0,.9.1,1,.3a1.2,1.2,0,0,1,.3.9v.8a4.3,4.3,0,0,1,4-2.3,1.9,1.9,0,0,1,1.5.6,2.1,2.1,0,0,1,.6,1.6,3.4,3.4,0,0,1-.5,1.9,1.5,1.5,0,0,1-1.5,1,2.4,2.4,0,0,1-1.2-.4,2.7,2.7,0,0,0-1.3-.5,1.6,1.6,0,0,0-1,.4,1.3,1.3,0,0,0-.5,1.1c0,2.4,0,4-.1,4.7a1.3,1.3,0,0,1-1.5,1h-4.1a1.2,1.2,0,0,1-.9-.3.9.9,0,0,1-.3-.7,41.7,41.7,0,0,1-.2-4.4,39,39,0,0,1,.1-4,6.1,6.1,0,0,1,.3-1.4A1.3,1.3,0,0,1,424.3,96.4Z"/>
            <path class="cls-6" d="M452.9,97.4v10.1a3.8,3.8,0,0,1-.7,2.1,3.9,3.9,0,0,1-1.7,1.4,13.7,13.7,0,0,1-5.8,1,15.7,15.7,0,0,1-5.8-.9,1.8,1.8,0,0,1-.8-.6c-.2-.1-.3-.5-.3-.9a1.3,1.3,0,0,1,.3-1,.7.7,0,0,1,.6-.4l1,.3a8,8,0,0,0,3.3.8h1.4a4.1,4.1,0,0,0,1.1-.7,2.1,2.1,0,0,0,.5-1.3V106l-.2-.2a.1.1,0,0,0-.1.1,5.7,5.7,0,0,1-3.9,1.7,4.8,4.8,0,0,1-3.5-1.4,5.7,5.7,0,0,1-1.4-4.2,5.3,5.3,0,0,1,1.7-4.4,5.7,5.7,0,0,1,4-1.5,4.1,4.1,0,0,1,3.6,1.5,1.3,1.3,0,0,1,.4-.9,1.6,1.6,0,0,1,.9-.3h4.1a1.1,1.1,0,0,1,.8.3C452.7,96.9,452.9,97.1,452.9,97.4Zm-8.3,2.3c-.9,0-1.3.7-1.3,1.9s.4,1.9,1.2,1.9a1.7,1.7,0,0,0,1-.3.8.8,0,0,0,.4-.8v-1.5a1,1,0,0,0-.4-.9Z"/>
            <path class="cls-6" d="M463.3,108c-5.5,0-8.2-1.9-8.2-5.9a5.1,5.1,0,0,1,2.1-4.4c1.4-1.1,3.4-1.6,6.1-1.6s4.7.5,6.1,1.6a5.1,5.1,0,0,1,2.1,4.4C471.5,106.1,468.8,108,463.3,108Zm0-3.5c.9,0,1.3-.8,1.3-2.4a4.2,4.2,0,0,0-.3-1.8,1.1,1.1,0,0,0-2,0,4.2,4.2,0,0,0-.3,1.8C462,103.7,462.4,104.5,463.3,104.5Z"/>
            <path class="cls-6" d="M39.2,152.4c1.9,0,2.9-.3,2.9-.8a2.3,2.3,0,0,0-.3-.9c-1.1-1.7-2.7-4.6-4.8-8.6a4.5,4.5,0,0,1-.2-.8.8.8,0,0,1,.9-.9h4.8a1.8,1.8,0,0,1,1.1.2,1.9,1.9,0,0,1,.7.8l2,3.8c.1.2.2.3.4.3s.3-.1.4-.3l2.1-4.3c.1-.3.3-.5.4-.5h2.7l.4.2a.4.4,0,0,1,.1.3c0,.2-.1.3-.2.5l-1.7,3.5-2.2,4.7a23.4,23.4,0,0,0-1.1,2.1c-.3.3-.5.8-.9,1.3a3.6,3.6,0,0,1-1,1.1l-1.2.8a6.5,6.5,0,0,1-3.3.7,5.1,5.1,0,0,1-2.6-.4c-.4-.2-.6-.7-.6-1.4a1.6,1.6,0,0,1,.2-1,.7.7,0,0,1,.5-.4Z"/>
            <path class="cls-6" d="M77.8,151.5h-4c-1,0-1.4-.6-1.4-1.5a8,8,0,0,1-2.1,1.5,5.7,5.7,0,0,1-2.4.5,4.7,4.7,0,0,1-3.6-1.4,6.5,6.5,0,0,1-1.4-4.5c0-2.5.8-4.3,2.6-5.3a6.2,6.2,0,0,1,3.1-.8,6.3,6.3,0,0,1,3.2.8c.2.2.4.2.4-.2s.1-.7.1-1.4v-2.7a1.4,1.4,0,0,1,.2-.7,1.3,1.3,0,0,1,1-.3h4.3c.4,0,.8.1.9.3a1.8,1.8,0,0,1,.3,1.1c.1,2.1.1,4.2.1,6.4v7.2a.8.8,0,0,1-.4.7A1.1,1.1,0,0,1,77.8,151.5Zm-7.3-7.8c-.8,0-1.3.7-1.3,2.2s.5,2.1,1.3,2.1a1.7,1.7,0,0,0,1-.3,1.5,1.5,0,0,0,.4-1V145a1.3,1.3,0,0,0-.4-.9A1.3,1.3,0,0,0,70.5,143.7Z"/>
            <path class="cls-6" d="M89.3,152c-5.5,0-8.2-1.9-8.2-5.9a5.3,5.3,0,0,1,2-4.4c1.4-1.1,3.5-1.6,6.2-1.6s4.7.5,6.1,1.6a5.1,5.1,0,0,1,2.1,4.4C97.5,150.1,94.7,152,89.3,152Zm0-3.5c.8,0,1.3-.8,1.3-2.4a4.2,4.2,0,0,0-.3-1.8,1,1,0,0,0-1-.6,1.1,1.1,0,0,0-1.1.6,7.4,7.4,0,0,0-.2,1.8C88,147.7,88.4,148.5,89.3,148.5Z"/>
            <path class="cls-6" d="M104.5,148.7a1.2,1.2,0,0,0-.5-1l-1.3-.5-1.4-.5a2.2,2.2,0,0,1-1.3-.8,2.5,2.5,0,0,1-.5-1.7c0-2.7,2.1-4.1,6.3-4.1a9.3,9.3,0,0,1,4.4.9l.8.6a1.4,1.4,0,0,1,.2.9,1.2,1.2,0,0,1-.3.9.5.5,0,0,1-.5.3,2.2,2.2,0,0,1-1.1-.5,3.4,3.4,0,0,0-1.7-.5.7.7,0,0,0-.8.7.9.9,0,0,0,.5.8l1.3.5,1.4.5a3.1,3.1,0,0,1,1.3,1,3.2,3.2,0,0,1,.5,1.8c0,2.7-2.2,4-6.4,4a12.6,12.6,0,0,1-5.1-.9l-.8-.5q-.3-.2-.3-.9a1.2,1.2,0,0,1,.3-.9c.2-.2.3-.3.5-.3a3.4,3.4,0,0,1,1.2.5,5.7,5.7,0,0,0,2.2.4C104.1,149.4,104.5,149.2,104.5,148.7Z"/>
            <path class="cls-6" d="M141.6,150.6v-5.4a1.2,1.2,0,0,0-.3-.9.9.9,0,0,0-.8-.4,1.4,1.4,0,0,0-1.3,1.3v5.3a2.2,2.2,0,0,1-.3.8,1.6,1.6,0,0,1-1.1.3h-4.2l-1-.2a1,1,0,0,1-.3-.8v-5.4a1.2,1.2,0,0,0-.3-.9.9.9,0,0,0-.8-.4,1.2,1.2,0,0,0-.9.4,1,1,0,0,0-.4.9v1.4a29.9,29.9,0,0,1-.2,3.9.9.9,0,0,1-.3.7,1.6,1.6,0,0,1-1.1.3h-4.2a1.1,1.1,0,0,1-.8-.3,1.6,1.6,0,0,1-.4-.7c-.1-.9-.1-2.4-.1-4.4a39,39,0,0,1,.1-4,2.2,2.2,0,0,1,.3-1.4c.1-.2.5-.3,1-.3h4.3a1.3,1.3,0,0,1,1,.3,5.3,5.3,0,0,1,.3,1.1h0a6,6,0,0,1,4.3-1.7,6.1,6.1,0,0,1,2.8.6,3.9,3.9,0,0,1,1.8,1.8,4.1,4.1,0,0,1,1.9-1.8,6.7,6.7,0,0,1,2.8-.6,5.2,5.2,0,0,1,3.6,1.2,4.2,4.2,0,0,1,1.4,3.2c.1,1.4.1,2.7.1,3.8a11.6,11.6,0,0,1-.1,2.2c0,.4-.1.7-.3.8s-.5.3-1,.3h-4.2l-1-.2A1,1,0,0,1,141.6,150.6Z"/>
            <path class="cls-6" d="M152.3,140.4h4.3a1.1,1.1,0,0,1,1,.4,2.2,2.2,0,0,1,.3,1.4c.1.8.1,2.2.1,4.2s-.1,3.4-.1,4.2a2.5,2.5,0,0,1-.4.7,2.4,2.4,0,0,1-1.1.3h-3.8a2.5,2.5,0,0,1-1.2-.3,2.5,2.5,0,0,1-.4-.7c-.1-1-.1-2.4-.1-4.4a37.9,37.9,0,0,1,.1-4c0-.8.1-1.2.3-1.4A1.1,1.1,0,0,1,152.3,140.4Zm2.4-5.2a3.6,3.6,0,0,1,2.2.6,2.2,2.2,0,0,1,.7,1.6c0,1.6-1.1,2.4-3.2,2.4a4,4,0,0,1-2.2-.6,1.7,1.7,0,0,1-.9-1.6C151.3,136,152.5,135.2,154.7,135.2Z"/>
            <path class="cls-6" d="M162.1,135.5h4.2a1.3,1.3,0,0,1,1,.3,5.3,5.3,0,0,1,.3,1.1c0,1.8.1,4.2.1,7.3s-.1,5.2-.2,6.4a1.1,1.1,0,0,1-.3.7,2.4,2.4,0,0,1-1.1.3h-3.8c-.9-.1-1.4-.4-1.5-1s-.2-3.5-.2-6.8.1-5.5.2-6.9a1.6,1.6,0,0,1,.3-1.1A1.3,1.3,0,0,1,162.1,135.5Z"/>
            <path class="cls-6" d="M171.8,135.5H176a1.3,1.3,0,0,1,1,.3,5.3,5.3,0,0,1,.3,1.1c0,1.8.1,4.2.1,7.3s-.1,5.2-.2,6.4a1.1,1.1,0,0,1-.3.7,2.4,2.4,0,0,1-1.1.3H172c-.9-.1-1.4-.4-1.4-1a51.1,51.1,0,0,1-.3-6.8c0-3.2.1-5.5.2-6.9a5.3,5.3,0,0,1,.3-1.1A1.3,1.3,0,0,1,171.8,135.5Z"/>
            <path class="cls-6" d="M187.8,152c-5.5,0-8.2-1.9-8.2-5.9a5.1,5.1,0,0,1,2.1-4.4c1.4-1.1,3.4-1.6,6.1-1.6s4.7.5,6.1,1.6a5.1,5.1,0,0,1,2.1,4.4C196,150.1,193.3,152,187.8,152Zm0-3.5c.9,0,1.3-.8,1.3-2.4a4.2,4.2,0,0,0-.3-1.8,1.1,1.1,0,0,0-2,0,4.2,4.2,0,0,0-.3,1.8C186.5,147.7,186.9,148.5,187.8,148.5Z"/>
            <path class="cls-6" d="M207.8,150.6v-5.4a1,1,0,0,0-.4-.9.9.9,0,0,0-.8-.4,1.2,1.2,0,0,0-.9.4,1,1,0,0,0-.4.9v1.4a36.8,36.8,0,0,1-.1,3.9,1.3,1.3,0,0,1-1.5,1h-4.2a1.1,1.1,0,0,1-.8-.3.9.9,0,0,1-.3-.7,41.7,41.7,0,0,1-.2-4.4,39,39,0,0,1,.1-4,6.1,6.1,0,0,1,.3-1.4,1.3,1.3,0,0,1,1-.3h4.3a1.3,1.3,0,0,1,1,.3,1.6,1.6,0,0,1,.3,1.1h0a6.3,6.3,0,0,1,8-.5,4.2,4.2,0,0,1,1.4,3.2v6c0,.4-.1.7-.3.8a1.4,1.4,0,0,1-1.1.3H209l-1-.2C207.8,151.2,207.8,151,207.8,150.6Z"/>
            <path class="cls-6" d="M220.1,141a10.3,10.3,0,0,1,2.1-.7l2.6-.2a10.3,10.3,0,0,1,3,.4,4.6,4.6,0,0,1,2.1,1,4.1,4.1,0,0,1,1.3,2.9c0,1.7-1.5,2.5-4.4,2.5l-3.1-.3a3.6,3.6,0,0,0,.5,2.1,2.2,2.2,0,0,0,1.7.6,5.6,5.6,0,0,0,2-.3l1.3-.5.8-.3a.7.7,0,0,1,.6.3,1.4,1.4,0,0,1,.4,1.1q0,.8-.3.9a1.9,1.9,0,0,1-.9.5,15.2,15.2,0,0,1-5.9.9,8.4,8.4,0,0,1-5.2-1.5,4.8,4.8,0,0,1-2.1-4.1,5.6,5.6,0,0,1,.5-2.3,5.7,5.7,0,0,1,1.2-1.8Zm5.1,1.6c-.9,0-1.4.7-1.5,2.2h1.1c1,0,1.5-.3,1.5-1S225.9,142.6,225.2,142.6Z"/>
            <path class="cls-6" d="M238.2,148.7a1.2,1.2,0,0,0-.5-1l-1.3-.5-1.5-.5a2,2,0,0,1-1.2-.8,2.5,2.5,0,0,1-.5-1.7c0-2.7,2.1-4.1,6.3-4.1a9.3,9.3,0,0,1,4.4.9,1.4,1.4,0,0,1,.7.6q.3.2.3.9a1.2,1.2,0,0,1-.3.9c-.2.2-.3.3-.5.3a2.2,2.2,0,0,1-1.1-.5,3.7,3.7,0,0,0-1.7-.5.7.7,0,0,0-.8.7.9.9,0,0,0,.5.8l1.3.5,1.4.5a3.1,3.1,0,0,1,1.3,1,3.2,3.2,0,0,1,.5,1.8c0,2.7-2.2,4-6.4,4a12.3,12.3,0,0,1-5.1-.9,1.6,1.6,0,0,1-.8-.5q-.3-.2-.3-.9a1.2,1.2,0,0,1,.3-.9c.2-.2.3-.3.5-.3a3.4,3.4,0,0,1,1.2.5,5.7,5.7,0,0,0,2.2.4C237.8,149.4,238.2,149.2,238.2,148.7Z"/>
            <path class="cls-6" d="M270.9,151.5h-4a1.3,1.3,0,0,1-1.4-1.5,5.7,5.7,0,0,1-2.1,1.5,5,5,0,0,1-2.3.5,4.9,4.9,0,0,1-3.7-1.4,6.5,6.5,0,0,1-1.4-4.5c0-2.5.9-4.3,2.6-5.3a6.6,6.6,0,0,1,3.2-.8,6.2,6.2,0,0,1,3.1.8c.3.2.4.2.4-.2a4.9,4.9,0,0,0,.1-1.4v-2.7a.9.9,0,0,1,.3-.7c.1-.2.5-.3,1-.3h4.2a1.3,1.3,0,0,1,1,.3,3.1,3.1,0,0,1,.2,1.1c.1,2.1.1,4.2.1,6.4v7.2a1,1,0,0,1-.4.7A1.6,1.6,0,0,1,270.9,151.5Zm-7.2-7.8c-.9,0-1.3.7-1.3,2.2s.4,2.1,1.3,2.1a1.6,1.6,0,0,0,.9-.3,1.2,1.2,0,0,0,.4-1V145a1,1,0,0,0-.4-.9A1.2,1.2,0,0,0,263.7,143.7Z"/>
            <path class="cls-6" d="M277.7,141l2-.7,2.7-.2a10.3,10.3,0,0,1,3,.4,4.6,4.6,0,0,1,2.1,1,4.1,4.1,0,0,1,1.3,2.9c0,1.7-1.5,2.5-4.4,2.5l-3.1-.3a3.6,3.6,0,0,0,.5,2.1,2.2,2.2,0,0,0,1.7.6,5.6,5.6,0,0,0,2-.3l1.3-.5.8-.3.6.3a1.4,1.4,0,0,1,.4,1.1q0,.8-.3.9a1.9,1.9,0,0,1-.9.5,15.2,15.2,0,0,1-5.9.9,9,9,0,0,1-5.3-1.5,5,5,0,0,1-2-4.1,4.3,4.3,0,0,1,.5-2.3,5.7,5.7,0,0,1,1.2-1.8Zm5.1,1.6c-.9,0-1.4.7-1.5,2.2h1.1c1,0,1.5-.3,1.5-1S283.5,142.6,282.8,142.6Z"/>
            <path class="cls-6" d="M314.2,151.5h-4a1.3,1.3,0,0,1-1.4-1.5,5.7,5.7,0,0,1-2.1,1.5,5,5,0,0,1-2.3.5,4.9,4.9,0,0,1-3.7-1.4,6.5,6.5,0,0,1-1.4-4.5c0-2.5.9-4.3,2.6-5.3a6.6,6.6,0,0,1,3.2-.8,6.2,6.2,0,0,1,3.1.8c.3.2.4.2.4-.2a4.9,4.9,0,0,0,.1-1.4v-2.7a.9.9,0,0,1,.3-.7c.1-.2.5-.3,1-.3h4.2a1.3,1.3,0,0,1,1,.3,3.1,3.1,0,0,1,.2,1.1c.1,2.1.1,4.2.1,6.4v7.2a1,1,0,0,1-.4.7A1.6,1.6,0,0,1,314.2,151.5Zm-7.2-7.8c-.9,0-1.3.7-1.3,2.2s.4,2.1,1.3,2.1a1.6,1.6,0,0,0,.9-.3,1.2,1.2,0,0,0,.4-1V145a1,1,0,0,0-.4-.9A1.2,1.2,0,0,0,307,143.7Z"/>
            <path class="cls-6" d="M319.3,140.4h4.3c.5,0,.9.1,1,.4a2.9,2.9,0,0,1,.4,1.4v4.2c0,2,0,3.4-.1,4.2a1.3,1.3,0,0,1-.4.7,2.1,2.1,0,0,1-1.1.3h-3.8a2.5,2.5,0,0,1-1.2-.3,1.1,1.1,0,0,1-.3-.7,43.3,43.3,0,0,1-.2-4.4c0-2,.1-3.3.1-4a5,5,0,0,1,.3-1.4A1.1,1.1,0,0,1,319.3,140.4Zm2.4-5.2a3.4,3.4,0,0,1,2.2.6,1.9,1.9,0,0,1,.7,1.6c0,1.6-1,2.4-3.1,2.4a3.8,3.8,0,0,1-2.2-.6,1.7,1.7,0,0,1-.9-1.6Q318.4,135.2,321.7,135.2Z"/>
            <path class="cls-6" d="M337.4,143.9h-2c-.3,0-.4.1-.4.4v5.8a1.6,1.6,0,0,1-.3,1.1,1.3,1.3,0,0,1-1,.4h-4.3a1.6,1.6,0,0,1-1.1-.4,5.3,5.3,0,0,1-.3-1.1v-5.5a3.5,3.5,0,0,0-.1-.6h-.4c-.5,0-.7-.5-.7-1.4a1.9,1.9,0,0,1,.2-1,.9.9,0,0,1,.7-.3h.2a.4.4,0,0,0,.1-.3v-.4c0-2.9,1.8-4.6,5.3-5H336a11.1,11.1,0,0,1,3.4.6c.5.2.7.7.7,1.7s-.2,1.6-.7,1.6l-1.1-.3-1.3-.3a1.9,1.9,0,0,0-2,2c0,.4.1.6.4.6h2a1.5,1.5,0,0,1,.8.2,1.6,1.6,0,0,1,.3,1.1c0,.6-.1,1-.3,1.1S337.8,143.9,337.4,143.9Z"/>
            <path class="cls-6" d="M344,141l2.1-.7,2.7-.2a10.3,10.3,0,0,1,3,.4,5.1,5.1,0,0,1,2.1,1,4,4,0,0,1,1.2,2.9c0,1.7-1.4,2.5-4.3,2.5l-3.1-.3a3.6,3.6,0,0,0,.5,2.1,2.1,2.1,0,0,0,1.7.6,5.6,5.6,0,0,0,2-.3l1.3-.5.8-.3.6.3a1.8,1.8,0,0,1,.4,1.1q0,.8-.3.9a1.9,1.9,0,0,1-.9.5,15.5,15.5,0,0,1-5.9.9,8.8,8.8,0,0,1-5.3-1.5,5,5,0,0,1-2-4.1,5.6,5.6,0,0,1,.4-2.3,4.6,4.6,0,0,1,1.3-1.8Zm5.1,1.6c-.8,0-1.3.7-1.4,2.2h1.1c1,0,1.4-.3,1.4-1S349.9,142.6,349.1,142.6Z"/>
            <path class="cls-6" d="M358.7,140.4H363a1.6,1.6,0,0,1,1.1.3c.2.2.2.5.2.9v.8a4.4,4.4,0,0,1,4-2.3,2.1,2.1,0,0,1,2.2,2.2,3.5,3.5,0,0,1-.6,1.9,1.5,1.5,0,0,1-1.4,1,3,3,0,0,1-1.3-.4,2.8,2.8,0,0,0-1.2-.5,1.3,1.3,0,0,0-1,.4,1.1,1.1,0,0,0-.6,1.1c0,2.4,0,4-.1,4.7a1,1,0,0,1-.4.7,1.4,1.4,0,0,1-1.1.3h-4.1a1.2,1.2,0,0,1-.9-.3.9.9,0,0,1-.3-.7,41.7,41.7,0,0,1-.2-4.4c0-1.9.1-3.3.1-4a6.1,6.1,0,0,1,.3-1.4A1.3,1.3,0,0,1,358.7,140.4Z"/>
            <path class="cls-6" d="M374.8,141l2.1-.7,2.6-.2a9.5,9.5,0,0,1,3,.4,5,5,0,0,1,2.2,1,4,4,0,0,1,1.2,2.9c0,1.7-1.4,2.5-4.3,2.5l-3.2-.3a4.4,4.4,0,0,0,.6,2.1,2.1,2.1,0,0,0,1.7.6,6,6,0,0,0,2-.3l1.2-.5.9-.3.6.3a1.8,1.8,0,0,1,.3,1.1,1.4,1.4,0,0,1-.2.9,1.9,1.9,0,0,1-.9.5,15.8,15.8,0,0,1-6,.9,8.6,8.6,0,0,1-5.2-1.5,4.8,4.8,0,0,1-2.1-4.1,5.6,5.6,0,0,1,.5-2.3,5.7,5.7,0,0,1,1.2-1.8Zm5.1,1.6c-.9,0-1.4.7-1.4,2.2h1.1c.9,0,1.4-.3,1.4-1S380.7,142.6,379.9,142.6Z"/>
            <path class="cls-6" d="M397.7,150.6v-5.4a1,1,0,0,0-.4-.9.8.8,0,0,0-.8-.4,1.2,1.2,0,0,0-.9.4,1,1,0,0,0-.4.9v1.4a36.8,36.8,0,0,1-.1,3.9,1.3,1.3,0,0,1-1.5,1h-4.2a1.1,1.1,0,0,1-.8-.3.9.9,0,0,1-.3-.7,41.7,41.7,0,0,1-.2-4.4,39,39,0,0,1,.1-4,6.1,6.1,0,0,1,.3-1.4,1.3,1.3,0,0,1,1-.3h4.3a1.3,1.3,0,0,1,1,.3,1.6,1.6,0,0,1,.3,1.1h0a6.3,6.3,0,0,1,8-.5,4.2,4.2,0,0,1,1.4,3.2v6c0,.4-.1.7-.3.8a1.4,1.4,0,0,1-1.1.3h-4.2l-1-.2C397.7,151.2,397.7,151,397.7,150.6Z"/>
            <path class="cls-6" d="M416.2,143.5a2.2,2.2,0,0,0-1.6.7,3.1,3.1,0,0,0-.5,1.7,2.4,2.4,0,0,0,.6,1.7,2.4,2.4,0,0,0,1.9.8l1.3-.2,1.1-.3c.5,0,.8.5.8,1.5v1.2c-.1.4-.4.6-.9.8a14.6,14.6,0,0,1-3.9.7l-2.7-.2a9.3,9.3,0,0,1-2.2-.4,7.7,7.7,0,0,1-1.8-1,5.6,5.6,0,0,1-1.1-1.7,6.7,6.7,0,0,1-.5-2.6,5.4,5.4,0,0,1,.7-2.9,5,5,0,0,1,1.9-1.9,12,12,0,0,1,5.7-1.2,12.6,12.6,0,0,1,3.8.6c.5.1.8.7.8,1.7s-.2,1.5-.8,1.5l-1.2-.2Z"/>
            <path class="cls-6" d="M423.2,140.4h4.3a1.1,1.1,0,0,1,1,.4,2.2,2.2,0,0,1,.3,1.4c.1.8.1,2.2.1,4.2s0,3.4-.1,4.2a2.5,2.5,0,0,1-.4.7,2.4,2.4,0,0,1-1.1.3h-3.8a2.5,2.5,0,0,1-1.2-.3,1.1,1.1,0,0,1-.3-.7,43.3,43.3,0,0,1-.2-4.4,37.9,37.9,0,0,1,.1-4,5,5,0,0,1,.3-1.4A1.1,1.1,0,0,1,423.2,140.4Zm2.4-5.2a3.4,3.4,0,0,1,2.2.6,1.9,1.9,0,0,1,.7,1.6c0,1.6-1,2.4-3.1,2.4a3.8,3.8,0,0,1-2.2-.6,1.7,1.7,0,0,1-.9-1.6Q422.3,135.2,425.6,135.2Z"/>
            <path class="cls-6" d="M439.3,140c4.8,0,7.2,1.6,7.2,4.7.1,1.3.1,2.5.1,3.6v2.2l-.3.9-1.1.2h-4.7l-.9-.2a1.1,1.1,0,0,1-.3-.8h0a5.4,5.4,0,0,1-4,1.5,5.1,5.1,0,0,1-3-.9,2.6,2.6,0,0,1-1.2-2.4,3.2,3.2,0,0,1,.9-2.4,4.5,4.5,0,0,1,2.1-1.2,6.9,6.9,0,0,1,2.5-.4,12.4,12.4,0,0,1,2.7.3h0a2.4,2.4,0,0,0-.4-1.6,2,2,0,0,0-1.4-.5l-1.6.2-1,.3-1.2.6a.6.6,0,0,1-.6-.4,1.3,1.3,0,0,1-.3-1,1.7,1.7,0,0,1,.2-.9l.8-.6A13.4,13.4,0,0,1,439.3,140Zm-1,9c.6,0,.9-.1,1-.4v-1.9c0-.3-.2-.4-.7-.4a1.6,1.6,0,0,0-1.1.3,1.2,1.2,0,0,0-.5,1,1.2,1.2,0,0,0,.4,1A1,1,0,0,0,438.3,149Z"/>
          </g>
        </g>
      </g>
    </g>
  </g>
</svg>
