<svg xmlns="http://www.w3.org/2000/svg" width="393.4" height="105.3" viewBox="0 0 393.4 105.3">
  <defs>
    <style>
      .cls-1 {
        isolation: isolate;
      }

      .cls-2 {
        fill: #4f2fef;
      }

      .cls-3 {
        fill: #fff;
      }

      .cls-4 {
        mix-blend-mode: multiply;
      }

      .cls-5 {
        fill: #58f4e1;
      }
    </style>
  </defs>
  <g class="cls-1">
    <g id="Layer_2" data-name="Layer 2">
      <g id="Layer_1-2" data-name="Layer 1">
        <rect class="cls-2" y="14.5" width="393.4" height="28.94"/>
        <rect class="cls-2" x="15.2" y="76.4" width="363.1" height="28.94"/>
        <g>
          <path class="cls-3" d="M38.2,36.3c-2.3.2-5.5.3-9.7.3l-8.6-.2a8.9,8.9,0,0,1-3.4-.8,2.4,2.4,0,0,1-1.3-2.1c-.2-3.6-.3-7.7-.3-12.4s.1-9.6.2-14.8q.2-4.8,4.5-5.1L29,1l10,.2a20.4,20.4,0,0,1,6.9,1.6,15.7,15.7,0,0,1,5.4,3.9A16.9,16.9,0,0,1,55.5,18a18.9,18.9,0,0,1-4.4,12.2,16.8,16.8,0,0,1-5.5,4.2A19.7,19.7,0,0,1,38.2,36.3ZM35.9,12V24.2a1.3,1.3,0,0,0,.3.8,1.1,1.1,0,0,0,.8.3,5.9,5.9,0,0,0,5-2.2,8.5,8.5,0,0,0,1.7-5.2,8.8,8.8,0,0,0-1.6-5.3,4.7,4.7,0,0,0-4.2-2.2h-1C36.2,10.6,35.9,11.1,35.9,12Z"/>
          <path class="cls-3" d="M61.6,35.5a5.2,5.2,0,0,1-1.2-3.1c-.2-1.4-.3-5.7-.3-12.8s.1-11.8.3-14S61.9,1.3,64,1.3H94.1C96,1.2,97,2.4,97,4.9s-.8,3-2.6,3H83.3a1.9,1.9,0,0,0-1.6.7,2.4,2.4,0,0,0-.7,1.8V14c0,1.1.5,1.6,1.4,1.6H92.8c.3.1.5.4.8.9a7,7,0,0,1,.3,2.4,3,3,0,0,1-.6,2.2,2.6,2.6,0,0,1-1.9.5H83.2a2.1,2.1,0,0,0-1.7.7,3.1,3.1,0,0,0-.5,1.9v2.5a1.9,1.9,0,0,0,2.1,2.1H95.6a2.3,2.3,0,0,1,1.6.6c.5.3.7,1.1.7,2.3a5.9,5.9,0,0,1-.8,3.2,2.6,2.6,0,0,1-2,1.4H64A3.6,3.6,0,0,1,61.6,35.5Z"/>
          <path class="cls-3" d="M110.3,36.4a17.1,17.1,0,0,1-5.3-1.9l-2-1.3a3.5,3.5,0,0,1-1.3-2.9,12.7,12.7,0,0,1,.3-2.8c.4-1.7,1.2-2.5,2.4-2.5a35.5,35.5,0,0,1,3.5,1.2,16,16,0,0,0,4.7,1.1c1.7,0,2.6-.7,2.6-2a2.9,2.9,0,0,0-1.3-2.3,19.5,19.5,0,0,0-3-2,33.5,33.5,0,0,1-3.6-2.1,11.8,11.8,0,0,1-3.1-3.5,10.1,10.1,0,0,1-1.2-5.1c0-3.2,1.5-5.7,4.7-7.6S114.9,0,119.9,0a37.9,37.9,0,0,1,11.9,1.5c3,1.1,4.4,2.5,4.4,4.3a6.4,6.4,0,0,1-.9,3.4c-.6,1-1.2,1.5-1.9,1.5a8.3,8.3,0,0,1-2.3-.8,10,10,0,0,0-3.6-.7c-2.1,0-3.2.8-3.2,2.4a2.7,2.7,0,0,0,1.5,2.2,18.1,18.1,0,0,0,3.7,2l4.3,2.1a10.6,10.6,0,0,1,3.6,3.1,7.6,7.6,0,0,1,1.6,4.9,8.8,8.8,0,0,1-1.9,5.3,11.7,11.7,0,0,1-4.8,3.6,35.5,35.5,0,0,1-13.9,2.6A30,30,0,0,1,110.3,36.4Z"/>
          <path class="cls-3" d="M161.3,37.4c-6.1,0-10.9-1.5-14.4-4.6s-5.2-7.4-5.2-13a21.3,21.3,0,0,1,1.7-9,14.8,14.8,0,0,1,4.7-6.2c4.1-3.1,9.4-4.6,16.1-4.6a47.8,47.8,0,0,1,12.9,1.8q2.4.7,2.4,3.9c0,2.9-.9,4.4-2.7,4.4l-3-.4a20.3,20.3,0,0,0-3.5-.4,6.4,6.4,0,0,0-5.5,2.5,9.1,9.1,0,0,0-1.9,5.9,10.7,10.7,0,0,0,1.8,6.1,6,6,0,0,0,4.9,2.7h7.5c1.8,0,2.7.8,2.9,2.4a12.1,12.1,0,0,1,.1,1.9,12.8,12.8,0,0,1-.1,1.9c-.2,1.2-1.2,2.1-2.8,2.6a37.7,37.7,0,0,1-7.3,1.4A67.9,67.9,0,0,1,161.3,37.4Z"/>
          <path class="cls-3" d="M217.2,3.5l16.4,27.9a5.3,5.3,0,0,1,1,2.8,1.7,1.7,0,0,1-.9,1.6,3.7,3.7,0,0,1-2.1.6H215.4c-1.6,0-2.7-.3-3.2-.9l-.5-1.1-1.5-3.1c-.4-1-1.4-1.5-3-1.7h-9.5l-1.7.2a3,3,0,0,0-.9,1l-1.9,4a5,5,0,0,1-1.1,1.3,4.2,4.2,0,0,1-1.8.3h-4.5c-1.3,0-2-.5-2.1-1.4a.8.8,0,0,1-.1-.4,3.7,3.7,0,0,1,.8-2.2L200.1,4.6c1.5-2.6,4-3.9,7.4-3.9h4C214.2.7,216.1,1.6,217.2,3.5ZM200.9,16.4,198.6,21a1.3,1.3,0,0,0-.2.8c0,.9.4,1.3,1.2,1.3h4.6a2.1,2.1,0,0,0,1.5-.5,2.6,2.6,0,0,0,.4-1,3.1,3.1,0,0,0-.2-.8L204,16.5c-.4-.9-.9-1.3-1.6-1.3S201.3,15.6,200.9,16.4Z"/>
          <path class="cls-3" d="M273.4,26.7l6.7,7.6a1.2,1.2,0,0,1,.4.8c0,.9-.4,1.3-1.2,1.3H268.6a3.4,3.4,0,0,1-2.6-1.1l-4.4-6.6a.9.9,0,0,0-.6-.4c-.5-.2-.8.1-.8.7v5.1c0,1.5-.9,2.2-2.8,2.3l-6.2.2-8.2-.3a2.9,2.9,0,0,1-2.3-1,3.7,3.7,0,0,1-1.1-2c-.2-3-.4-7.6-.4-13.9s.1-11,.3-13.9,1.7-4.3,4.4-4.3h21.3a13.6,13.6,0,0,1,10.3,4.6,15.6,15.6,0,0,1,3.9,10.3,12.8,12.8,0,0,1-1.5,6.1A10.8,10.8,0,0,1,273.4,26.7Zm-13.2-15V21c0,.6.3.9,1,.9a6.5,6.5,0,0,0,4.9-1.7,5.4,5.4,0,0,0,1.8-4.1,5.4,5.4,0,0,0-1.7-4.1,6.6,6.6,0,0,0-4.9-1.7C260.6,10.3,260.2,10.8,260.2,11.7Z"/>
          <path class="cls-3" d="M314.2,9.3q-4.5,0-6.3,2.4c-1.3,1.5-1.9,4-1.9,7.4,0,5.3,1.6,8,4.7,8H312c-.4,0-.8-.7-1-2.1a21.2,21.2,0,0,1-.4-4.4c0-1.6.4-2.6,1.3-3a6.8,6.8,0,0,1,3.5-.7h3.1l2,.2a5.6,5.6,0,0,1,1.7.6,2.4,2.4,0,0,1,1.4,2.4v7.3a11.8,11.8,0,0,1-1.4,6.3c-.9,1.6-2.7,2.5-5.3,2.7a165,165,0,0,1-16.6.6,19.1,19.1,0,0,1-7.6-1.4,12.5,12.5,0,0,1-5-3.9,21.1,21.1,0,0,1-3.2-11.9,19.6,19.6,0,0,1,4.6-12.9,15.9,15.9,0,0,1,12.3-6l7.7-.3c5.7,0,9.8.3,12.2,1s2.5,1.8,2.5,4-.9,4.4-2.6,4.4L318,9.6Z"/>
          <path class="cls-3" d="M362.1,3.5l16.5,27.9a5.3,5.3,0,0,1,1,2.8,1.7,1.7,0,0,1-.9,1.6,3.7,3.7,0,0,1-2.1.6H360.4c-1.7,0-2.7-.3-3.2-.9l-.5-1.1-1.5-3.1c-.4-1-1.5-1.5-3.1-1.7h-9.5l-1.6.2a1.8,1.8,0,0,0-.9,1l-2,4a3.6,3.6,0,0,1-1.1,1.3,4,4,0,0,1-1.7.3h-4.6c-1.3,0-2-.5-2.1-1.4v-.4a3.6,3.6,0,0,1,.7-2.2L345.1,4.6C346.6,2,349,.7,352.4.7h4.1C359.1.7,361,1.6,362.1,3.5ZM345.8,16.4,343.5,21a3.1,3.1,0,0,0-.2.8c0,.9.4,1.3,1.3,1.3h4.6a1.8,1.8,0,0,0,1.4-.5,1.6,1.6,0,0,0,.4-1,2.5,2.5,0,0,0-.1-.8L349,16.5a1.8,1.8,0,0,0-1.6-1.3A1.9,1.9,0,0,0,345.8,16.4Z"/>
          <path class="cls-3" d="M51.3,96.7q-3.3.3-9.6.3l-8.6-.2a9.5,9.5,0,0,1-3.5-.8,2.3,2.3,0,0,1-1.2-2.1c-.2-3.6-.3-7.7-.3-12.4s0-9.6.2-14.8q0-4.8,4.5-5.1l9.4-.2,9.9.2a21.6,21.6,0,0,1,7,1.6,14.4,14.4,0,0,1,5.3,3.9,16.9,16.9,0,0,1,4.2,11.3,18.9,18.9,0,0,1-4.4,12.2,16.3,16.3,0,0,1-5.4,4.2A20.7,20.7,0,0,1,51.3,96.7ZM49.1,72.4V84.6a1.3,1.3,0,0,0,.3.8,1,1,0,0,0,.8.3,5.7,5.7,0,0,0,4.9-2.2,8,8,0,0,0,1.8-5.2A9.5,9.5,0,0,0,55.3,73,5,5,0,0,0,51,70.8H50C49.4,71,49.1,71.5,49.1,72.4Z"/>
          <path class="cls-3" d="M74.8,95.9a5.2,5.2,0,0,1-1.3-3.1c-.2-1.4-.3-5.7-.3-12.8a137.3,137.3,0,0,1,.4-14c.2-2.8,1.4-4.3,3.5-4.3h30.1c2,0,3,1.2,3,3.7s-.9,3-2.6,3H96.5a2.1,2.1,0,0,0-1.7.7,2.8,2.8,0,0,0-.6,1.8v3.6c0,1.1.4,1.6,1.3,1.6h10.4a1.5,1.5,0,0,1,.8.9,7,7,0,0,1,.3,2.4c0,1.1-.1,1.8-.5,2.2a2.6,2.6,0,0,1-1.9.5H96.4a2.3,2.3,0,0,0-1.8.7,3.2,3.2,0,0,0-.4,1.9v2.5c0,1.4.6,2.1,2,2.1h12.6a2.5,2.5,0,0,1,1.6.6,3,3,0,0,1,.7,2.3,5.9,5.9,0,0,1-.9,3.2c-.6.9-1.2,1.4-2,1.4H77.1A3.2,3.2,0,0,1,74.8,95.9Z"/>
          <path class="cls-3" d="M159.2,96.7c-2.3.2-5.5.3-9.7.3l-8.6-.2a8.9,8.9,0,0,1-3.4-.8,2.4,2.4,0,0,1-1.3-2.1c-.2-3.6-.3-7.7-.3-12.4s.1-9.6.2-14.8q.2-4.8,4.5-5.1l9.4-.2,10,.2a20.4,20.4,0,0,1,6.9,1.6,14.8,14.8,0,0,1,5.4,3.9,16.9,16.9,0,0,1,4.2,11.3,18.9,18.9,0,0,1-4.4,12.2,15.8,15.8,0,0,1-5.5,4.2A19.7,19.7,0,0,1,159.2,96.7Zm-2.3-24.3V84.6a1.3,1.3,0,0,0,.3.8,1.1,1.1,0,0,0,.8.3,5.9,5.9,0,0,0,5-2.2,7.9,7.9,0,0,0,1.7-5.2,8.8,8.8,0,0,0-1.6-5.3,4.7,4.7,0,0,0-4.2-2.2h-1C157.2,71,156.9,71.5,156.9,72.4Z"/>
          <path class="cls-3" d="M213.6,63.9l16.5,27.9a6.3,6.3,0,0,1,1,2.8,1.7,1.7,0,0,1-.9,1.6,3.7,3.7,0,0,1-2.1.6H211.8c-1.6,0-2.7-.3-3.1-.9a9.1,9.1,0,0,1-.6-1.1l-1.4-3.1c-.5-1-1.5-1.5-3.1-1.7h-9.5a3.2,3.2,0,0,0-1.6.3,1.3,1.3,0,0,0-.9.9l-2,4a3.6,3.6,0,0,1-1.1,1.3,4.2,4.2,0,0,1-1.8.3h-4.5c-1.3,0-2-.5-2.1-1.4a.6.6,0,0,1-.1-.4,3.7,3.7,0,0,1,.8-2.2L196.5,65a8,8,0,0,1,7.4-3.9h4C210.6,61.1,212.5,62,213.6,63.9ZM197.3,76.8,195,81.4a1.3,1.3,0,0,0-.2.8c0,.9.4,1.3,1.2,1.3h4.6a2.1,2.1,0,0,0,1.5-.5,2.6,2.6,0,0,0,.4-1,3.1,3.1,0,0,0-.2-.8l-1.9-4.3c-.4-.9-.9-1.3-1.5-1.3A1.8,1.8,0,0,0,197.3,76.8Z"/>
          <path class="cls-3" d="M264.5,93.7a3.2,3.2,0,0,1-1,2.1,3.8,3.8,0,0,1-2.4,1l-6.9.2-7.4-.2a3.8,3.8,0,0,1-2.4-1,3,3,0,0,1-.9-2.1c-.1-5.1-.2-9.4-.2-13s0-6.3.1-8a1.7,1.7,0,0,0-1.8-1.9h-4.5a2.3,2.3,0,0,1-1.7-.5,2.1,2.1,0,0,1-.7-1.7,24.4,24.4,0,0,1-.1-2.7,16.2,16.2,0,0,1,.1-2.3,1.6,1.6,0,0,1,.8-1.5,2.4,2.4,0,0,1,1.6-.5h33.7a3,3,0,0,1,1.6.5,2,2,0,0,1,.8,1.5c0,.7.1,1.4.1,2.3s-.1,1.7-.1,2.5a2.2,2.2,0,0,1-2.5,2.3h-4.5a1.5,1.5,0,0,0-1.7,1.7c.1,4.3.1,8.1.1,11.5S264.6,90.6,264.5,93.7Z"/>
          <path class="cls-3" d="M302.3,97.8a34.8,34.8,0,0,1-11-1.6,23.2,23.2,0,0,1-8-4.2,20.4,20.4,0,0,1-4.7-6,16.6,16.6,0,0,1-1.6-6.9,14.9,14.9,0,0,1,1.7-6.8,20.1,20.1,0,0,1,4.6-6,23.4,23.4,0,0,1,8-4.3,37.4,37.4,0,0,1,21.3-.1,20.3,20.3,0,0,1,7.3,3.9c3.7,3.5,5.6,7.5,5.6,12.2a17.3,17.3,0,0,1-1.5,7,20.6,20.6,0,0,1-4.4,6.2,22.2,22.2,0,0,1-7.3,4.6A28.7,28.7,0,0,1,302.3,97.8Zm10-19.6a6,6,0,0,0-1.7-4.1c-1.1-1.2-2.9-1.8-5.2-1.8a8.4,8.4,0,0,0-5.6,1.8,6.3,6.3,0,0,0-2,4.6,5.2,5.2,0,0,0,2.1,4.3,9.1,9.1,0,0,0,5.2,1.6,6.9,6.9,0,0,0,5.1-2A5.9,5.9,0,0,0,312.3,78.2Z"/>
          <path class="cls-3" d="M338.1,96.8a17.1,17.1,0,0,1-5.3-1.9l-2.1-1.3a3.8,3.8,0,0,1-1.3-2.9,8.6,8.6,0,0,1,.4-2.8c.4-1.7,1.2-2.5,2.3-2.5a26.8,26.8,0,0,1,3.6,1.2,16,16,0,0,0,4.7,1.1c1.7,0,2.6-.7,2.6-2a3.2,3.2,0,0,0-1.3-2.3,19.5,19.5,0,0,0-3-2l-3.6-2.1a10.6,10.6,0,0,1-3.1-3.5,10.1,10.1,0,0,1-1.3-5.1c0-3.2,1.6-5.7,4.8-7.6s7.2-2.7,12.2-2.7a37.9,37.9,0,0,1,11.9,1.5c2.9,1.1,4.4,2.5,4.4,4.3a6.4,6.4,0,0,1-.9,3.4c-.6,1-1.2,1.5-1.9,1.5a9.5,9.5,0,0,1-2.4-.8,10,10,0,0,0-3.6-.7c-2.1,0-3.1.8-3.1,2.4a2.7,2.7,0,0,0,1.5,2.2,20.1,20.1,0,0,0,3.6,2,34.2,34.2,0,0,1,4.3,2.1,10.1,10.1,0,0,1,3.7,3.1,8.1,8.1,0,0,1,1.5,4.9,8.7,8.7,0,0,1-1.8,5.3,12.1,12.1,0,0,1-4.9,3.6,35.2,35.2,0,0,1-13.9,2.6A29.7,29.7,0,0,1,338.1,96.8Z"/>
        </g>
        <g class="cls-4">
          <rect class="cls-5" y="14.5" width="393.4" height="28.94"/>
        </g>
        <g class="cls-4">
          <rect class="cls-5" x="15.2" y="76.4" width="363.1" height="28.94"/>
        </g>
      </g>
    </g>
  </g>
</svg>
