<svg xmlns="http://www.w3.org/2000/svg" width="484.2" height="236" viewBox="0 0 484.2 236">
  <defs>
    <style>
      .cls-1 {
        isolation: isolate;
      }

      .cls-2 {
        fill: #4f2fef;
      }

      .cls-3 {
        fill: #fff;
      }

      .cls-4 {
        mix-blend-mode: multiply;
      }

      .cls-5 {
        fill: #58f4e1;
      }
    </style>
  </defs>
  <g class="cls-1">
    <g id="Layer_2" data-name="Layer 2">
      <g id="Layer_1-2" data-name="Layer 1">
        <rect class="cls-2" y="148.8" width="484.2" height="36.77"/>
        <rect class="cls-2" y="199.3" width="484.2" height="36.77"/>
        <rect class="cls-2" y="83.7" width="484.2" height="36.77"/>
        <rect class="cls-2" y="18.7" width="484.2" height="36.77"/>
        <g>
          <path class="cls-3" d="M87,29.7v4.2c0,1.4-1,2.2-2.9,2.3l-6.4.2-7.8-.3a3.5,3.5,0,0,1-2.3-1,3.5,3.5,0,0,1-1-2.1c-.3-2.9-.4-7.5-.4-13.8s.1-10.8.3-13.7,1.6-4.3,4.3-4.3l10-.2,11.4.2a13.3,13.3,0,0,1,10.1,4.7,14.8,14.8,0,0,1,3.9,9.9,12.2,12.2,0,0,1-3.4,8.9c-2.3,2.3-5.7,3.5-10.1,3.5H88.8a1.6,1.6,0,0,0-1.2.4A1.4,1.4,0,0,0,87,29.7Zm0-18.1v9.3c0,.6.3.9,1,.9A6.9,6.9,0,0,0,93,20.1,5.5,5.5,0,0,0,94.8,16a5.4,5.4,0,0,0-1.7-4,6.4,6.4,0,0,0-4.9-1.8C87.4,10.2,87,10.7,87,11.6Z"/>
          <path class="cls-3" d="M144.8,26.5l6.7,7.6a2,2,0,0,1,.4.8c0,.9-.4,1.3-1.2,1.3H140.1a3.7,3.7,0,0,1-2.7-1.2l-4.3-6.5-.6-.3c-.5-.2-.8,0-.8.6v5.1c0,1.4-.9,2.2-2.8,2.3l-6.2.2-8.1-.3a3.5,3.5,0,0,1-2.3-1,3.5,3.5,0,0,1-1-2.1c-.3-2.9-.4-7.5-.4-13.8s.1-10.8.3-13.7,1.6-4.3,4.3-4.3h21.2a13.6,13.6,0,0,1,10.2,4.6A15.2,15.2,0,0,1,150.8,16a12.1,12.1,0,0,1-1.5,6A10.8,10.8,0,0,1,144.8,26.5ZM131.7,11.6v9.3c0,.6.3.9,1,.9a6.9,6.9,0,0,0,4.9-1.7,5.5,5.5,0,0,0,1.8-4.1,5.4,5.4,0,0,0-1.7-4,6.4,6.4,0,0,0-4.9-1.8C132.1,10.2,131.7,10.7,131.7,11.6Z"/>
          <path class="cls-3" d="M158.1,35.2a5.2,5.2,0,0,1-1.2-3c-.2-1.4-.3-5.7-.3-12.8A136.1,136.1,0,0,1,157,5.5c.2-2.7,1.4-4.2,3.5-4.3h29.9c1.9,0,2.9,1.2,2.9,3.7s-.9,3-2.6,3h-11a2.4,2.4,0,0,0-1.7.6,2.9,2.9,0,0,0-.6,1.9V14c0,1,.5,1.5,1.4,1.5h10.3c.3.1.5.4.8.9a7,7,0,0,1,.3,2.4q0,1.7-.6,2.1a2.4,2.4,0,0,1-1.8.6h-8.2a2.1,2.1,0,0,0-1.7.6,3.4,3.4,0,0,0-.5,2v2.4a1.9,1.9,0,0,0,2.1,2.2h12.4a2.4,2.4,0,0,1,1.6.5c.5.3.7,1.1.7,2.3a6.9,6.9,0,0,1-.8,3.2,2.6,2.6,0,0,1-2,1.4H160.5A3.7,3.7,0,0,1,158.1,35.2Z"/>
          <path class="cls-3" d="M205.3,22.5l-.2-15.4a18.8,18.8,0,0,1,.1-2.9,3,3,0,0,1,.7-2.3,4.2,4.2,0,0,1,2.9-.7h13.4a3.9,3.9,0,0,1,2.8.7,3.5,3.5,0,0,1,.8,2.3c0,2.1.1,4.6.1,7.6s-.1,6.5-.2,10.7c-.1,6.5-3.5,10.8-10.1,12.9A53.2,53.2,0,0,1,201,37.2a2.7,2.7,0,0,1-2.6-1.2,8.6,8.6,0,0,1-.7-4.2c0-2,.8-3.1,2.3-3.3a5,5,0,0,0,4-2.3A7.9,7.9,0,0,0,205.3,22.5Z"/>
          <path class="cls-3" d="M251.4,6.4V20.6a4.2,4.2,0,0,0,1.3,3.3,4.6,4.6,0,0,0,6,0,4.2,4.2,0,0,0,1.3-3.3V5.7a7.9,7.9,0,0,1,.6-3.5c.4-.7,1.4-1,2.8-1h4.6a2.5,2.5,0,0,1,2.2.9c.7,1.1,1.1,5.5,1.1,13.1,0,2.6,0,4.5-.1,5.8a15.4,15.4,0,0,1-1.9,7.2,14.6,14.6,0,0,1-4.4,5.1,20.5,20.5,0,0,1-12.3,3.9c-6.1,0-11.1-1.5-15.1-4.3a13.9,13.9,0,0,1-4.7-5.7,18.4,18.4,0,0,1-1.8-8.3v-7c0-3,0-5.2.1-6.6a6.4,6.4,0,0,1,.8-3.1c.4-.7,1.3-1,2.7-1h13.4c1.3,0,2.2.3,2.6,1A7.7,7.7,0,0,1,251.4,6.4Z"/>
          <path class="cls-3" d="M280.1,1.2h13.4c1.4,0,2.3.3,2.8,1a12.1,12.1,0,0,1,.9,4.3c.1,2.2.2,6.4.2,12.7s-.1,10.9-.4,13.8a3.5,3.5,0,0,1-1,2.1,3.7,3.7,0,0,1-2.3,1l-6.6.2-7.1-.2a3.8,3.8,0,0,1-2.4-1,3.5,3.5,0,0,1-1-2.1c-.3-2.9-.4-7.5-.4-13.8s.1-10.5.2-12.7a12.1,12.1,0,0,1,.9-4.3C277.8,1.5,278.7,1.2,280.1,1.2Z"/>
          <path class="cls-3" d="M321.1,37.2c-6,0-10.8-1.6-14.3-4.6s-5.2-7.4-5.2-12.9a22.6,22.6,0,0,1,1.7-9A15.5,15.5,0,0,1,308,4.5c4-3,9.4-4.5,16-4.5a47.6,47.6,0,0,1,12.8,1.8q2.4.7,2.4,3.9c0,2.9-.9,4.3-2.7,4.3l-2.9-.4a22.6,22.6,0,0,0-3.5-.4,6.4,6.4,0,0,0-5.5,2.5,9.1,9.1,0,0,0-1.9,5.9,10.1,10.1,0,0,0,1.8,6,6,6,0,0,0,4.9,2.7h7.4a2.6,2.6,0,0,1,2.9,2.5,10.9,10.9,0,0,1,.1,1.8,10.9,10.9,0,0,1-.1,1.8c-.2,1.3-1.2,2.1-2.8,2.7a48.2,48.2,0,0,1-7.2,1.4A69.2,69.2,0,0,1,321.1,37.2Z"/>
          <path class="cls-3" d="M348.4,1.2h13.4c1.4,0,2.3.3,2.8,1a12.1,12.1,0,0,1,.9,4.3c.1,2.2.2,6.4.2,12.7s-.1,10.9-.4,13.8a3.5,3.5,0,0,1-1,2.1,3.7,3.7,0,0,1-2.3,1l-6.6.2-7.1-.2a3.8,3.8,0,0,1-2.4-1,3.5,3.5,0,0,1-1-2.1c-.3-2.9-.4-7.5-.4-13.8s.1-10.5.2-12.7a12.1,12.1,0,0,1,.9-4.3C346.1,1.5,347,1.2,348.4,1.2Z"/>
          <path class="cls-3" d="M395.9,37.2a37.4,37.4,0,0,1-11-1.6,23.5,23.5,0,0,1-7.9-4.2,18.9,18.9,0,0,1-4.7-6,14.8,14.8,0,0,1-1.6-6.8,14.8,14.8,0,0,1,1.6-6.8A18.9,18.9,0,0,1,377,5.9a21.9,21.9,0,0,1,7.9-4.3A34,34,0,0,1,395.7,0,32.4,32.4,0,0,1,406,1.5a18.8,18.8,0,0,1,7.3,3.9,15.9,15.9,0,0,1,5.6,12.1,17.4,17.4,0,0,1-1.6,7,19.4,19.4,0,0,1-4.3,6.1,21.2,21.2,0,0,1-7.3,4.6A30.5,30.5,0,0,1,395.9,37.2Zm9.9-19.5a5.8,5.8,0,0,0-1.7-4.1,7,7,0,0,0-5.2-1.8,7.5,7.5,0,0,0-5.5,1.9,5.7,5.7,0,0,0-2.1,4.5,5,5,0,0,0,2.2,4.2,8,8,0,0,0,5.1,1.6,6.9,6.9,0,0,0,5.1-2A5.6,5.6,0,0,0,405.8,17.7Z"/>
          <path class="cls-3" d="M21.8,100.2a4.7,4.7,0,0,1-1.3-3c-.2-1.4-.2-5.7-.2-12.8s.1-11.7.3-13.9,1.5-4.2,3.6-4.3H54c2,0,3,1.2,3,3.7s-.9,3-2.6,3h-11a2.4,2.4,0,0,0-1.7.6,2.9,2.9,0,0,0-.6,1.9V79c0,1,.4,1.5,1.3,1.5H52.7a1.5,1.5,0,0,1,.8.9,6.5,6.5,0,0,1,.4,2.4q0,1.6-.6,2.1a2.5,2.5,0,0,1-1.9.6H43.3a2.2,2.2,0,0,0-1.8.6,3.5,3.5,0,0,0-.4,2v2.4c0,1.4.6,2.2,2,2.2H55.6a2.4,2.4,0,0,1,1.6.5,3,3,0,0,1,.7,2.3,5.9,5.9,0,0,1-.9,3.2c-.6.9-1.2,1.4-2,1.4H24.2A3.3,3.3,0,0,1,21.8,100.2Z"/>
          <path class="cls-3" d="M86.6,66.2H100c1.4,0,2.3.3,2.7,1s.8,2.1.9,4.3.3,6.4.3,12.7-.2,10.9-.4,13.8a3.6,3.6,0,0,1-1.1,2.1,3.5,3.5,0,0,1-2.3,1l-6.6.2-7.1-.2a3.5,3.5,0,0,1-2.3-1,3.5,3.5,0,0,1-1-2.1c-.3-2.9-.4-7.5-.4-13.8s0-10.5.2-12.7.4-3.6.9-4.3S85.2,66.2,86.6,66.2Z"/>
          <path class="cls-3" d="M143.8,66.2h5.3a3.9,3.9,0,0,1,2.4.5,3.1,3.1,0,0,1,.7,2.3c.2,5,.3,10.5.3,16.3s-.1,10.1-.3,12.8a4,4,0,0,1-.9,2.1,2.6,2.6,0,0,1-2,1h-8.4a7.8,7.8,0,0,1-3.8-1.3c-7.8-4.6-12.6-7.4-14.6-8.4-.4-.1-.8-.1-1,.2a2.2,2.2,0,0,0-.4,1.6v5.6a1.8,1.8,0,0,1-.7,1.5c-.7.5-2.5.8-5.4.8h-2.3a2.4,2.4,0,0,1-1.9-1A3.2,3.2,0,0,1,110,98c-.1-4-.1-9-.1-15V71.2a8.4,8.4,0,0,1,.7-3.9c.4-.8,1.1-1.1,2.3-1.1h5.5a7.9,7.9,0,0,1,3.5.9L140,76.5c.5.2,1,.3,1.3,0a1,1,0,0,0,.5-1v-7a2.9,2.9,0,0,1,.5-1.7A2,2,0,0,1,143.8,66.2Z"/>
          <path class="cls-3" d="M159.4,100.2a5.2,5.2,0,0,1-1.2-3c-.2-1.4-.3-5.7-.3-12.8a136.1,136.1,0,0,1,.4-13.9c.2-2.7,1.4-4.2,3.5-4.3h29.9c1.9,0,2.9,1.2,2.9,3.7s-.9,3-2.6,3H181a2.4,2.4,0,0,0-1.7.6,2.9,2.9,0,0,0-.6,1.9V79c0,1,.5,1.5,1.4,1.5h10.3c.3.1.5.4.8.9a7,7,0,0,1,.3,2.4q0,1.6-.6,2.1a2.4,2.4,0,0,1-1.8.6h-8.2a2.1,2.1,0,0,0-1.7.6,3.4,3.4,0,0,0-.5,2v2.4a1.9,1.9,0,0,0,2.1,2.2h12.4a2.4,2.4,0,0,1,1.6.5c.5.3.7,1.1.7,2.3a6.9,6.9,0,0,1-.8,3.2,2.6,2.6,0,0,1-2,1.4H161.8A3.7,3.7,0,0,1,159.4,100.2Z"/>
          <path class="cls-3" d="M235.1,100a27.5,27.5,0,0,1-10.9,2.2,37.2,37.2,0,0,1-10.9-1.6,23.5,23.5,0,0,1-7.9-4.2,18.9,18.9,0,0,1-4.7-6,15.3,15.3,0,0,1,0-13.6,18.9,18.9,0,0,1,4.7-5.9,21.9,21.9,0,0,1,7.9-4.3A34,34,0,0,1,224.1,65a32.4,32.4,0,0,1,10.3,1.5,18.8,18.8,0,0,1,7.3,3.9,15.9,15.9,0,0,1,5.6,12.1,18.6,18.6,0,0,1-3.8,11l4.7.4a1.3,1.3,0,0,1,1.2,1.5,10.4,10.4,0,0,1-.6,3.2,23.4,23.4,0,0,1-1.1,2.8,2,2,0,0,1-1.9.8C244.6,102.2,241.1,101.5,235.1,100Zm-.9-17.3a5.8,5.8,0,0,0-1.7-4.1,7,7,0,0,0-5.2-1.8,7.5,7.5,0,0,0-5.5,1.9,5.7,5.7,0,0,0-2.1,4.5,5,5,0,0,0,2.2,4.2A8,8,0,0,0,227,89a6.9,6.9,0,0,0,5.1-2A5.6,5.6,0,0,0,234.2,82.7Z"/>
          <path class="cls-3" d="M273.6,71.4V85.6a4.2,4.2,0,0,0,1.3,3.3,4.9,4.9,0,0,0,3.1,1.1,4.8,4.8,0,0,0,3-1.1,4.5,4.5,0,0,0,1.3-3.3V70.7a7.9,7.9,0,0,1,.6-3.5c.4-.7,1.3-1,2.7-1h4.6a2.4,2.4,0,0,1,2.2.9c.8,1.1,1.2,5.5,1.2,13.1,0,2.6-.1,4.5-.1,5.8a16.7,16.7,0,0,1-1.9,7.2,15.7,15.7,0,0,1-4.4,5.1,21,21,0,0,1-12.4,3.9c-6.1,0-11.1-1.5-15-4.3a15,15,0,0,1-4.8-5.7,19.8,19.8,0,0,1-1.7-8.3c-.1-1.6-.1-3.9-.1-7s0-5.2.1-6.6a7.7,7.7,0,0,1,.8-3.1c.5-.7,1.4-1,2.8-1h13.3a3.1,3.1,0,0,1,2.7,1A8.9,8.9,0,0,1,273.6,71.4Z"/>
          <path class="cls-3" d="M302.4,66.2h13.4c1.4,0,2.3.3,2.7,1s.8,2.1.9,4.3.3,6.4.3,12.7-.2,10.9-.4,13.8a3.6,3.6,0,0,1-1.1,2.1,3.5,3.5,0,0,1-2.3,1l-6.6.2-7.1-.2a3.5,3.5,0,0,1-2.3-1,3.5,3.5,0,0,1-1-2.1c-.3-2.9-.4-7.5-.4-13.8s0-10.5.2-12.7.4-3.6.9-4.3S301,66.2,302.4,66.2Z"/>
          <path class="cls-3" d="M348.7,101c-2.3.2-5.5.4-9.6.4l-8.6-.2a8.9,8.9,0,0,1-3.4-.8,2.4,2.4,0,0,1-1.2-2.1q-.3-5.4-.3-12.3c0-4.6,0-9.5.2-14.7,0-3.2,1.5-4.9,4.4-5.1l9.4-.2,9.8.2a18.3,18.3,0,0,1,6.9,1.6,15.7,15.7,0,0,1,5.4,3.9,16.8,16.8,0,0,1,4.1,11.2A18.7,18.7,0,0,1,361.5,95a18.2,18.2,0,0,1-5.5,4.2A19.1,19.1,0,0,1,348.7,101Zm-2.3-24V89a1.1,1.1,0,0,0,.3.8,1.2,1.2,0,0,0,.8.4,6,6,0,0,0,4.9-2.2,8,8,0,0,0,1.8-5.2,9.5,9.5,0,0,0-1.6-5.3,5,5,0,0,0-4.2-2.2h-1C346.7,75.5,346.4,76,346.4,77Z"/>
          <path class="cls-3" d="M402.7,68.5l16.4,27.7a6,6,0,0,1,1,2.7,1.9,1.9,0,0,1-.9,1.7,3.7,3.7,0,0,1-2.1.6H401c-1.7,0-2.7-.3-3.2-1a8.9,8.9,0,0,1-.5-1l-1.5-3.1c-.4-1-1.4-1.5-3-1.6h-9.5a3.7,3.7,0,0,0-1.6.2,1.4,1.4,0,0,0-.9.8l-1.9,4.1a3.3,3.3,0,0,1-1.1,1.2,4,4,0,0,1-1.8.4h-4.5c-1.3,0-2-.5-2.1-1.4v-.4a3.6,3.6,0,0,1,.7-2.2l15.7-27.7c1.5-2.5,3.9-3.8,7.3-3.8h4C399.7,65.7,401.6,66.6,402.7,68.5ZM386.5,81.3l-2.3,4.6a2.4,2.4,0,0,0-.2.8,1.2,1.2,0,0,0,1.3,1.3h4.5a1.8,1.8,0,0,0,1.5-.6,1.8,1.8,0,0,0,.4-.9,2.4,2.4,0,0,0-.2-.8l-1.9-4.3c-.4-.9-.9-1.3-1.5-1.3A1.8,1.8,0,0,0,386.5,81.3Z"/>
          <path class="cls-3" d="M447.8,101c-2.2.2-5.4.4-9.6.4l-8.5-.2a8.5,8.5,0,0,1-3.4-.8,2.7,2.7,0,0,1-1.3-2.1q-.3-5.4-.3-12.3c0-4.6.1-9.5.2-14.7q.2-4.8,4.5-5.1l9.3-.2,9.9.2a18.3,18.3,0,0,1,6.9,1.6,14.4,14.4,0,0,1,5.3,3.9A16.4,16.4,0,0,1,465,82.9,18.8,18.8,0,0,1,460.6,95a17.8,17.8,0,0,1-5.4,4.2A19.6,19.6,0,0,1,447.8,101Zm-2.2-24V89a1.1,1.1,0,0,0,.3.8,1,1,0,0,0,.8.4,6.1,6.1,0,0,0,4.9-2.2,8.5,8.5,0,0,0,1.7-5.2,8.8,8.8,0,0,0-1.6-5.3,4.7,4.7,0,0,0-4.2-2.2h-1C445.9,75.5,445.6,76,445.6,77Z"/>
          <path class="cls-3" d="M71.7,166.2a20.2,20.2,0,0,1-5.3-1.9l-2-1.3a3.7,3.7,0,0,1-1.3-3,8.4,8.4,0,0,1,.4-2.7c.4-1.6,1.2-2.4,2.3-2.4a20.9,20.9,0,0,1,3.5,1.1,16,16,0,0,0,4.7,1.1c1.7,0,2.6-.7,2.6-2a3.1,3.1,0,0,0-1.3-2.2,14.2,14.2,0,0,0-3-2,34.8,34.8,0,0,1-3.6-2.2,9.1,9.1,0,0,1-3-3.4,9.2,9.2,0,0,1-1.3-5.1c0-3.2,1.6-5.7,4.7-7.5s7.2-2.7,12.2-2.7a37.6,37.6,0,0,1,11.8,1.5c2.9,1,4.4,2.5,4.4,4.3a6.7,6.7,0,0,1-.9,3.4c-.6,1-1.3,1.5-1.9,1.5l-2.4-.8a10.2,10.2,0,0,0-3.5-.8c-2.1,0-3.2.8-3.2,2.4a2.8,2.8,0,0,0,1.5,2.3,29.5,29.5,0,0,0,3.6,1.9,42.5,42.5,0,0,1,4.3,2.1,11,11,0,0,1,3.7,3.1,7.9,7.9,0,0,1,1.5,4.9,8.5,8.5,0,0,1-1.9,5.2,12.7,12.7,0,0,1-4.8,3.6,35,35,0,0,1-13.8,2.6A33.7,33.7,0,0,1,71.7,166.2Z"/>
          <path class="cls-3" d="M136.8,133.5l16.3,27.7a5,5,0,0,1,1,2.7,1.9,1.9,0,0,1-.9,1.7,3.7,3.7,0,0,1-2.1.6H135c-1.6,0-2.7-.3-3.1-1a2.9,2.9,0,0,1-.6-1l-1.4-3.1c-.5-1-1.5-1.5-3.1-1.6h-9.4a3.4,3.4,0,0,0-1.6.2,1.4,1.4,0,0,0-.9.8l-2,4.1a2.6,2.6,0,0,1-1.1,1.2,3.9,3.9,0,0,1-1.7.4h-4.5c-1.3,0-2-.5-2.1-1.4a.8.8,0,0,1-.1-.4,3.7,3.7,0,0,1,.8-2.2l15.6-27.7c1.5-2.5,3.9-3.8,7.3-3.8h4C133.8,130.7,135.7,131.6,136.8,133.5Zm-16.2,12.8-2.3,4.6a1.2,1.2,0,0,0-.2.8c0,.8.4,1.3,1.2,1.3h4.6a1.6,1.6,0,0,0,1.4-.6,1.2,1.2,0,0,0,.4-.9,2.2,2.2,0,0,0-.1-.8l-1.9-4.3a1.8,1.8,0,0,0-1.6-1.3Q121.2,145.1,120.6,146.3Z"/>
          <path class="cls-3" d="M179.7,143.2v10a6.9,6.9,0,0,0,.6,3.3c.5.7,1.4,1,2.9,1h12.6c1.5.1,2.3,1.3,2.3,3.5a9.3,9.3,0,0,1-.6,3.9,3.2,3.2,0,0,1-2.7,1.3l-13.9.2-17.6-.2a4.8,4.8,0,0,1-3-.8,3.5,3.5,0,0,1-1.2-2.4c-.3-3-.4-7.5-.4-13.8s0-10.4.2-12.6.4-3.7.9-4.4,1.4-1,2.8-1H176c1.4,0,2.3.3,2.7,1a7.9,7.9,0,0,1,.9,3.6C179.7,137.4,179.7,139.9,179.7,143.2Z"/>
          <path class="cls-3" d="M233.9,133.5l16.3,27.7a5,5,0,0,1,1,2.7,1.9,1.9,0,0,1-.9,1.7,3.7,3.7,0,0,1-2.1.6H232.1c-1.6,0-2.7-.3-3.1-1a2.9,2.9,0,0,1-.6-1l-1.4-3.1c-.5-1-1.5-1.5-3.1-1.6h-9.4a3.4,3.4,0,0,0-1.6.2,1.4,1.4,0,0,0-.9.8l-2,4.1a2.6,2.6,0,0,1-1.1,1.2,3.9,3.9,0,0,1-1.7.4h-4.5c-1.3,0-2-.5-2.1-1.4a.8.8,0,0,1-.1-.4,3.7,3.7,0,0,1,.8-2.2l15.6-27.7c1.5-2.5,3.9-3.8,7.3-3.8h4C230.9,130.7,232.8,131.6,233.9,133.5Zm-16.2,12.8-2.3,4.6a1.2,1.2,0,0,0-.2.8c0,.8.4,1.3,1.2,1.3H221a1.6,1.6,0,0,0,1.4-.6,1.2,1.2,0,0,0,.4-.9,2.2,2.2,0,0,0-.1-.8l-1.9-4.3a1.8,1.8,0,0,0-1.6-1.3Q218.3,145.1,217.7,146.3Z"/>
          <path class="cls-3" d="M289.7,156.5l6.7,7.6a2,2,0,0,1,.4.8c0,.9-.4,1.3-1.2,1.3H285a3.7,3.7,0,0,1-2.7-1.2l-4.3-6.5c-.2-.1-.4-.3-.6-.3s-.8,0-.8.6v5.1c0,1.4-.9,2.2-2.8,2.3l-6.2.2-8.1-.3a3.5,3.5,0,0,1-2.3-1,3.5,3.5,0,0,1-1-2.1c-.3-2.9-.4-7.5-.4-13.8s.1-10.8.3-13.7,1.6-4.3,4.3-4.3h21.2a13.6,13.6,0,0,1,10.2,4.6,15.2,15.2,0,0,1,3.9,10.2,12.1,12.1,0,0,1-1.5,6A10.8,10.8,0,0,1,289.7,156.5Zm-13.1-14.9v9.3c0,.6.3.9,1,.9a6.9,6.9,0,0,0,4.9-1.7,5.5,5.5,0,0,0,1.8-4.1,5.4,5.4,0,0,0-1.7-4,6.4,6.4,0,0,0-4.9-1.8C277,140.2,276.6,140.7,276.6,141.6Z"/>
          <path class="cls-3" d="M305.6,131.2H319c1.4,0,2.3.3,2.8,1a12.1,12.1,0,0,1,.9,4.3c.1,2.2.2,6.4.2,12.7s-.1,10.9-.4,13.8a3.5,3.5,0,0,1-1,2.1,3.7,3.7,0,0,1-2.3,1l-6.6.2-7.1-.2a3.8,3.8,0,0,1-2.4-1,3.5,3.5,0,0,1-1-2.1c-.3-2.9-.4-7.5-.4-13.8s.1-10.5.2-12.7a12.1,12.1,0,0,1,.9-4.3C303.3,131.5,304.2,131.2,305.6,131.2Z"/>
          <path class="cls-3" d="M361,133.5l16.4,27.7a6,6,0,0,1,1,2.7,1.9,1.9,0,0,1-.9,1.7,3.7,3.7,0,0,1-2.1.6H359.3c-1.7,0-2.7-.3-3.2-1a8.9,8.9,0,0,1-.5-1l-1.5-3.1c-.4-1-1.4-1.5-3-1.6h-9.5a3.7,3.7,0,0,0-1.6.2,1.4,1.4,0,0,0-.9.8l-1.9,4.1a3.3,3.3,0,0,1-1.1,1.2,4,4,0,0,1-1.8.4h-4.5c-1.3,0-2-.5-2.1-1.4v-.4a3.6,3.6,0,0,1,.7-2.2l15.7-27.7c1.5-2.5,3.9-3.8,7.3-3.8h4C358,130.7,359.9,131.6,361,133.5Zm-16.2,12.8-2.3,4.6a2.4,2.4,0,0,0-.2.8,1.2,1.2,0,0,0,1.3,1.3h4.5a1.8,1.8,0,0,0,1.5-.6,1.8,1.8,0,0,0,.4-.9,2.4,2.4,0,0,0-.2-.8l-1.9-4.3c-.4-.9-.9-1.3-1.5-1.3A1.8,1.8,0,0,0,344.8,146.3Z"/>
          <path class="cls-3" d="M404,143.2v10a5.8,5.8,0,0,0,.7,3.3c.4.7,1.4,1,2.8,1h12.7c1.5.1,2.3,1.3,2.3,3.5a9,9,0,0,1-.7,3.9,2.9,2.9,0,0,1-2.6,1.3l-14,.2-17.6-.2a4.3,4.3,0,0,1-2.9-.8,3.2,3.2,0,0,1-1.3-2.4c-.3-3-.4-7.5-.4-13.8s.1-10.4.2-12.6.5-3.7,1-4.4,1.3-1,2.7-1h13.4c1.4,0,2.3.3,2.8,1a9.6,9.6,0,0,1,.8,3.6C403.9,137.4,404,139.9,404,143.2Z"/>
        </g>
        <g>
          <path class="cls-3" d="M15.3,214.8l1.8-.7h2.3a10.1,10.1,0,0,1,2.5.3,3.7,3.7,0,0,1,1.9.9,3.3,3.3,0,0,1,1,2.4c0,1.5-1.2,2.2-3.7,2.2l-2.7-.2a3.1,3.1,0,0,0,.5,1.7,1.8,1.8,0,0,0,1.4.5l1.8-.2a4.6,4.6,0,0,0,1-.5l.8-.2.5.3a1.2,1.2,0,0,1,.3.9c0,.4-.1.7-.3.8l-.7.4a13.6,13.6,0,0,1-5.1.8,8,8,0,0,1-4.5-1.3,4.3,4.3,0,0,1-1.8-3.6,5.8,5.8,0,0,1,.4-1.9,5.8,5.8,0,0,1,1.1-1.5A4,4,0,0,1,15.3,214.8Zm4.4,1.3c-.8,0-1.2.6-1.2,1.9h.9c.8,0,1.2-.2,1.2-.8S20.3,216.1,19.7,216.1Z"/>
          <path class="cls-3" d="M34.9,223v-4.6a1.2,1.2,0,0,0-.3-.9,1.1,1.1,0,0,0-1.8.8v1.2a27.5,27.5,0,0,1-.1,3.4c0,.2-.2.4-.3.6l-1,.3H27.9l-.8-.2-.3-.6c0-.8-.1-2.1-.1-3.8a28.4,28.4,0,0,1,.1-3.4,1.7,1.7,0,0,1,.3-1.2c.1-.2.4-.3.8-.3h3.7a1.2,1.2,0,0,1,.9.3,2,2,0,0,1,.2.9h0a4.9,4.9,0,0,1,3.6-1.5,4.6,4.6,0,0,1,3.2,1.1,3.7,3.7,0,0,1,1.3,2.8v5.1c-.1.3-.1.5-.3.7l-.9.2H36c-.4,0-.7,0-.9-.2A.8.8,0,0,1,34.9,223Z"/>
          <path class="cls-3" d="M43.6,216.9c0-.2-.1-.3-.4-.3s-.7-.1-.8-.5-.1-.4-.1-.7a1.7,1.7,0,0,1,.1-.8l.6-.3.7-.3,1.4-1.2,1.4-1.1a1.7,1.7,0,0,1,1-.3h1l.8.2a.5.5,0,0,1,.3.5v1.8c0,.3.1.4.3.4h2a1,1,0,0,1,.7.2c.2.1.3.5.3,1s-.1.8-.3.9l-.7.2H49.6v2.7a1.6,1.6,0,0,0,.5,1.1,1.5,1.5,0,0,0,1.2.4l1-.2.8-.2c.3,0,.5.5.5,1.5s-.2,1.1-.6,1.3l-1.7.3-2.2.2-2.1-.2a6.4,6.4,0,0,1-1.8-.6,4,4,0,0,1-1.6-3.6Z"/>
          <path class="cls-3" d="M56.5,214.2h3.7a1.2,1.2,0,0,1,.9.3c.2.1.2.4.2.8v.7a3.6,3.6,0,0,1,3.5-2,1.7,1.7,0,0,1,1.3.5,1.9,1.9,0,0,1,.5,1.3,3.4,3.4,0,0,1-.5,1.7,1.2,1.2,0,0,1-1.2.8l-1.1-.3a1.9,1.9,0,0,0-1.1-.4,1.3,1.3,0,0,0-.8.3,1.1,1.1,0,0,0-.5,1,37.9,37.9,0,0,1-.1,4,.9.9,0,0,1-.3.6l-1,.3H56.5l-.7-.2a.9.9,0,0,1-.3-.6,31.8,31.8,0,0,1-.2-3.8,28.4,28.4,0,0,1,.1-3.4,1.7,1.7,0,0,1,.3-1.2C55.8,214.3,56.1,214.2,56.5,214.2Z"/>
          <path class="cls-3" d="M70.3,214.8l1.8-.7h2.3a10.1,10.1,0,0,1,2.5.3,3.7,3.7,0,0,1,1.9.9,3.3,3.3,0,0,1,1,2.4c0,1.5-1.2,2.2-3.7,2.2l-2.7-.2a3.1,3.1,0,0,0,.5,1.7,1.8,1.8,0,0,0,1.4.5l1.7-.2a3.8,3.8,0,0,0,1.1-.5l.7-.2a.5.5,0,0,1,.5.3,1,1,0,0,1,.4.9c0,.4-.1.7-.3.8l-.7.4a13.6,13.6,0,0,1-5.1.8,8,8,0,0,1-4.5-1.3,4.3,4.3,0,0,1-1.8-3.6,5.8,5.8,0,0,1,.4-1.9,4.2,4.2,0,0,1,1.1-1.5A4,4,0,0,1,70.3,214.8Zm4.4,1.3c-.8,0-1.2.6-1.3,1.9h1c.8,0,1.2-.2,1.2-.8S75.3,216.1,74.7,216.1Z"/>
          <path class="cls-3" d="M89.4,222.9v-6.2c0-1.9.1-3.7.1-5.5a2,2,0,0,1,.2-.9,1.2,1.2,0,0,1,.9-.3h3.6c.4,0,.7.1.8.3a1.3,1.3,0,0,1,.3,1c0,.6.1,1.9.1,4.1a4.7,4.7,0,0,1,3.5-1.5,4.9,4.9,0,0,1,3.3,1.1,3.4,3.4,0,0,1,1.2,2.8v5.1a.9.9,0,0,1-.3.7,1.4,1.4,0,0,1-.9.2H98.5c-.4,0-.7,0-.8-.2a.6.6,0,0,1-.3-.6v-4.6a1.2,1.2,0,0,0-.3-.9,1.1,1.1,0,0,0-.7-.3,1.1,1.1,0,0,0-.8.3,2,2,0,0,0-.4.8v4.6a.9.9,0,0,1-.3.6,1.1,1.1,0,0,1-.8.3H90.4l-.7-.3A.7.7,0,0,1,89.4,222.9Z"/>
          <path class="cls-3" d="M112.1,224.2c-4.7,0-7.1-1.7-7.1-5.1a4.4,4.4,0,0,1,1.8-3.8c1.2-.9,2.9-1.3,5.3-1.3a8.5,8.5,0,0,1,5.2,1.3,4.4,4.4,0,0,1,1.8,3.8C119.1,222.5,116.7,224.2,112.1,224.2Zm0-3c.7,0,1.1-.7,1.1-2.1a2.8,2.8,0,0,0-.3-1.5c-.1-.4-.4-.5-.8-.5s-.8.1-.9.5a2.8,2.8,0,0,0-.3,1.5Q110.9,221.2,112.1,221.2Z"/>
          <path class="cls-3" d="M137.1,223v-4.6a2,2,0,0,0-.2-.9,1.1,1.1,0,0,0-.8-.3,1.1,1.1,0,0,0-.7.3.9.9,0,0,0-.4.8v4.6a1.4,1.4,0,0,1-.2.7l-.9.2h-3.7c-.4,0-.7,0-.8-.2s-.2-.3-.2-.6v-4.6a1.2,1.2,0,0,0-.3-.9.9.9,0,0,0-.7-.3,1,1,0,0,0-1.1,1.1v1.2a22.2,22.2,0,0,1-.2,3.4.9.9,0,0,1-.3.6l-.9.3h-3.6l-.7-.2a.9.9,0,0,1-.3-.6,37.8,37.8,0,0,1-.1-3.8v-3.4a5,5,0,0,1,.3-1.2,1.2,1.2,0,0,1,.9-.3h3.7c.4,0,.7.1.8.3s.2.5.3.9h0a5,5,0,0,1,3.7-1.5,4.8,4.8,0,0,1,2.4.6,2.8,2.8,0,0,1,1.5,1.5,3.5,3.5,0,0,1,1.7-1.5,4.6,4.6,0,0,1,2.3-.6,4.8,4.8,0,0,1,3.2,1.1,3.7,3.7,0,0,1,1.2,2.8v5.1a.9.9,0,0,1-.3.7,1.4,1.4,0,0,1-.9.2h-3.6c-.4,0-.7,0-.8-.2A.6.6,0,0,1,137.1,223Z"/>
          <path class="cls-3" d="M145.1,222.9V211.2a1.2,1.2,0,0,1,.3-.9c.1-.2.4-.3.8-.3h3.6a1.2,1.2,0,0,1,.9.3,3.1,3.1,0,0,1,.2,1.3,28.4,28.4,0,0,1,.1,3.4c0,.1,0,.2.1.2s.1,0,.1,0a4.8,4.8,0,0,1,3.2-1.3,4.1,4.1,0,0,1,3.1,1.2,6.9,6.9,0,0,1,0,7.8,4.5,4.5,0,0,1-3.1,1.1c-1.9,0-3.1-.4-3.6-1.3a.8.8,0,0,1-.4.8.9.9,0,0,1-.7.3h-3.5a.9.9,0,0,1-.7-.3A.6.6,0,0,1,145.1,222.9Zm7.1-2c.7,0,1.1-.6,1.1-1.8s-.4-1.9-1.1-1.9a1.3,1.3,0,0,0-.8.3,1.1,1.1,0,0,0-.3.8v1.5a1,1,0,0,0,.3.8A1.3,1.3,0,0,0,152.2,220.9Z"/>
          <path class="cls-3" d="M161.6,214.2h3.7a1.2,1.2,0,0,1,.9.3,1.3,1.3,0,0,1,.2.8v.7a3.5,3.5,0,0,1,3.4-2,1.4,1.4,0,0,1,1.3.5,1.5,1.5,0,0,1,.5,1.3,3.3,3.3,0,0,1-.4,1.7,1.3,1.3,0,0,1-1.3.8l-1-.3a2.1,2.1,0,0,0-1.1-.4,1.6,1.6,0,0,0-.9.3,1.1,1.1,0,0,0-.4,1c0,2-.1,3.3-.1,4l-.4.6-.9.3h-3.6l-.7-.2a.9.9,0,0,1-.3-.6,37.8,37.8,0,0,1-.1-3.8,28.4,28.4,0,0,1,.1-3.4,2.9,2.9,0,0,1,.2-1.2A1.2,1.2,0,0,1,161.6,214.2Z"/>
          <path class="cls-3" d="M175.4,214.8l1.8-.7h2.2a10.9,10.9,0,0,1,2.6.3,3.8,3.8,0,0,1,1.8.9,3.4,3.4,0,0,1,1.1,2.4c0,1.5-1.2,2.2-3.7,2.2l-2.7-.2a2.5,2.5,0,0,0,.5,1.7,1.7,1.7,0,0,0,1.4.5l1.7-.2,1.1-.5.7-.2a.5.5,0,0,1,.5.3,1.2,1.2,0,0,1,.3.9c0,.4,0,.7-.2.8l-.7.4a13.6,13.6,0,0,1-5.1.8,7.5,7.5,0,0,1-4.5-1.3,4.3,4.3,0,0,1-1.8-3.6,4.1,4.1,0,0,1,.4-1.9,4.2,4.2,0,0,1,1.1-1.5A4,4,0,0,1,175.4,214.8Zm4.4,1.3c-.8,0-1.2.6-1.3,1.9h1c.8,0,1.2-.2,1.2-.8S180.4,216.1,179.8,216.1Z"/>
          <path class="cls-3" d="M190.9,221.3a.9.9,0,0,0-.4-.8l-1.1-.5-1.3-.4a2.6,2.6,0,0,1-1.1-.7,2.1,2.1,0,0,1-.4-1.4c0-2.4,1.8-3.5,5.5-3.5a7.9,7.9,0,0,1,3.7.7l.6.5c.2.2.2.4.2.8a1.1,1.1,0,0,1-.2.8.5.5,0,0,1-.4.3l-1-.5a3.3,3.3,0,0,0-1.5-.4.5.5,0,0,0-.6.6c0,.3.2.5.5.7l1,.4,1.3.4a2.8,2.8,0,0,1,1,.9,2.4,2.4,0,0,1,.4,1.5c0,2.3-1.8,3.5-5.4,3.5a10.3,10.3,0,0,1-4.3-.8,2.9,2.9,0,0,1-.8-.4,1.7,1.7,0,0,1,0-1.6l.4-.3,1.1.5a5.8,5.8,0,0,0,1.9.4C190.6,222,190.9,221.8,190.9,221.3Z"/>
          <path class="cls-3" d="M207.9,224.5c1.7,0,2.5-.2,2.5-.7a2,2,0,0,0-.3-.8c-.9-1.4-2.3-3.9-4.1-7.4l-.2-.6c0-.6.3-.8.8-.8h4.2c.4,0,.7,0,.9.2a1.4,1.4,0,0,1,.6.7l1.7,3.3.3.2.4-.2,1.8-3.8c.1-.2.2-.4.4-.4h2.2a.5.5,0,0,1,.4.2v.3a.8.8,0,0,1-.1.4l-1.4,3c-.9,1.8-1.5,3.2-2,4a14.3,14.3,0,0,1-.9,1.8l-.7,1.1a4.5,4.5,0,0,1-.9,1l-1,.6a6.1,6.1,0,0,1-2.8.6,5.6,5.6,0,0,1-2.3-.3c-.4-.2-.5-.6-.5-1.2a1.9,1.9,0,0,1,.1-.8c.2-.3.3-.4.5-.4Z"/>
          <path class="cls-3" d="M244.7,223v-4.6a1.2,1.2,0,0,0-.3-.9.9.9,0,0,0-.7-.3,1,1,0,0,0-1.1,1.1v4.6c-.1.3-.1.5-.3.7l-.9.2h-3.6c-.4,0-.7,0-.9-.2a.8.8,0,0,1-.2-.6v-4.6a1.2,1.2,0,0,0-.3-.9.9.9,0,0,0-.7-.3,1.3,1.3,0,0,0-.8.3,1.1,1.1,0,0,0-.3.8v1.2a27.5,27.5,0,0,1-.1,3.4l-.3.6-1,.3h-3.5l-.8-.2-.3-.6a37.8,37.8,0,0,1-.1-3.8,28.4,28.4,0,0,1,.1-3.4,1.7,1.7,0,0,1,.3-1.2c.1-.2.4-.3.8-.3h3.7c.4,0,.7.1.8.3a1.2,1.2,0,0,1,.3.9h0a5,5,0,0,1,3.7-1.5,4.8,4.8,0,0,1,2.4.6,2.8,2.8,0,0,1,1.5,1.5,3.5,3.5,0,0,1,1.7-1.5,4.8,4.8,0,0,1,2.4-.6,4.5,4.5,0,0,1,3.1,1.1,3.4,3.4,0,0,1,1.2,2.8v5.1a1.4,1.4,0,0,1-.2.7,2.2,2.2,0,0,1-1,.2h-3.6c-.4,0-.7,0-.8-.2A.6.6,0,0,1,244.7,223Z"/>
          <path class="cls-3" d="M258.4,215v4.6a1.3,1.3,0,0,0,.2.8.9.9,0,0,0,.7.3,1.1,1.1,0,0,0,.7-.3,1.6,1.6,0,0,0,.5-.8v-1.1a27.5,27.5,0,0,1,.1-3.4.9.9,0,0,1,.3-.6l1-.3h3.5l.8.2.3.6c0,.8.1,2.1.1,3.7a29.4,29.4,0,0,1-.1,3.5,1.7,1.7,0,0,1-.3,1.2c-.1.2-.4.3-.8.3h-3.7a1.2,1.2,0,0,1-.9-.3,2,2,0,0,1-.2-.9h0a6.4,6.4,0,0,1-4,1.5,4,4,0,0,1-3-1,4,4,0,0,1-1.1-2.8v-5.1a.8.8,0,0,1,.3-.7l.9-.2h3.6a1.2,1.2,0,0,1,.9.3A.8.8,0,0,1,258.4,215Z"/>
          <path class="cls-3" d="M275.2,219v3.7a3.5,3.5,0,0,1-2.1,3.5,12.1,12.1,0,0,1-5.2.9.9.9,0,0,1-.8-.4,2.4,2.4,0,0,1-.2-1.3c0-.6.2-.9.7-.9a1.8,1.8,0,0,0,1.7-1.9v-7.1a2.5,2.5,0,0,1,.2-1,1.2,1.2,0,0,1,.9-.3H274a1.2,1.2,0,0,1,.9.3,2.2,2.2,0,0,1,.2,1C275.2,216.6,275.2,217.7,275.2,219Zm-2.9-9.2a3.1,3.1,0,0,1,1.9.5,1.7,1.7,0,0,1,.6,1.4c0,1.3-.9,2-2.7,2a3.5,3.5,0,0,1-1.8-.5,1.4,1.4,0,0,1-.8-1.4C269.5,210.5,270.4,209.8,272.3,209.8Z"/>
          <path class="cls-3" d="M280.1,214.8l1.7-.7h2.3a10.9,10.9,0,0,1,2.6.3,3.8,3.8,0,0,1,1.8.9,3.4,3.4,0,0,1,1.1,2.4c0,1.5-1.3,2.2-3.7,2.2l-2.7-.2a3.2,3.2,0,0,0,.4,1.7,2.1,2.1,0,0,0,1.5.5l1.7-.2,1.1-.5.7-.2c.2,0,.3.1.5.3a1.2,1.2,0,0,1,.3.9,1.3,1.3,0,0,1-.2.8l-.8.4a13.6,13.6,0,0,1-5.1.8,8,8,0,0,1-4.5-1.3,4.5,4.5,0,0,1-1.7-3.6,4.1,4.1,0,0,1,.4-1.9,4,4,0,0,1,1-1.5A5.4,5.4,0,0,1,280.1,214.8Zm4.3,1.3c-.7,0-1.2.6-1.2,1.9h.9c.9,0,1.3-.2,1.3-.8S285.1,216.1,284.4,216.1Z"/>
          <path class="cls-3" d="M292.6,214.2h3.7a1.1,1.1,0,0,1,.9.3c.2.1.3.4.3.8v.7a3.4,3.4,0,0,1,3.4-2,1.5,1.5,0,0,1,1.3.5,1.9,1.9,0,0,1,.5,1.3,3.4,3.4,0,0,1-.5,1.7,1.2,1.2,0,0,1-1.2.8l-1.1-.3a1.9,1.9,0,0,0-1.1-.4l-.8.3a1.1,1.1,0,0,0-.5,1,37.9,37.9,0,0,1-.1,4,.9.9,0,0,1-.3.6l-.9.3h-3.6l-.7-.2a.9.9,0,0,1-.3-.6,31.8,31.8,0,0,1-.2-3.8c0-1.6.1-2.8.1-3.4a5,5,0,0,1,.3-1.2C291.9,214.3,292.2,214.2,292.6,214.2Z"/>
          <path class="cls-3" d="M306.4,214.8l1.8-.7h2.3a11.5,11.5,0,0,1,2.6.3,3.8,3.8,0,0,1,1.8.9,3.3,3.3,0,0,1,1,2.4c0,1.5-1.2,2.2-3.7,2.2l-2.7-.2a3.1,3.1,0,0,0,.5,1.7,2.1,2.1,0,0,0,1.5.5l1.7-.2,1.1-.5.7-.2c.2,0,.3.1.5.3a1.2,1.2,0,0,1,.3.9,1.3,1.3,0,0,1-.2.8l-.8.4a13.6,13.6,0,0,1-5.1.8,8,8,0,0,1-4.5-1.3,4.2,4.2,0,0,1-1.7-3.6,4.1,4.1,0,0,1,.4-1.9,4,4,0,0,1,1-1.5A4.9,4.9,0,0,1,306.4,214.8Zm4.4,1.3c-.8,0-1.2.6-1.2,1.9h.9c.8,0,1.3-.2,1.3-.8A1,1,0,0,0,310.8,216.1Z"/>
          <path class="cls-3" d="M322,221.3a1,1,0,0,0-.5-.8l-1-.5-1.3-.4a2.6,2.6,0,0,1-1.1-.7,2.1,2.1,0,0,1-.4-1.4c0-2.4,1.8-3.5,5.4-3.5a8.3,8.3,0,0,1,3.8.7l.6.5a1.5,1.5,0,0,1,.2.8,1.9,1.9,0,0,1-.2.8c-.2.2-.3.3-.5.3l-.9-.5a4.2,4.2,0,0,0-1.5-.4.5.5,0,0,0-.6.6.8.8,0,0,0,.4.7l1.1.4,1.2.4a3.1,3.1,0,0,1,1.1.9,2.4,2.4,0,0,1,.4,1.5c0,2.3-1.8,3.5-5.5,3.5a10.6,10.6,0,0,1-4.3-.8l-.7-.4c-.2-.1-.3-.4-.3-.8s.1-.7.3-.8a.5.5,0,0,1,.4-.3l1.1.5a5.8,5.8,0,0,0,1.8.4C321.7,222,322,221.8,322,221.3Z"/>
          <path class="cls-3" d="M340.2,214.8l1.8-.7h2.3a10.1,10.1,0,0,1,2.5.3,3.7,3.7,0,0,1,1.9.9,3.3,3.3,0,0,1,1,2.4c0,1.5-1.2,2.2-3.7,2.2l-2.7-.2a3.1,3.1,0,0,0,.5,1.7,2,2,0,0,0,1.4.5l1.8-.2,1.1-.5.7-.2c.2,0,.3.1.5.3a1.2,1.2,0,0,1,.3.9c0,.4-.1.7-.3.8l-.7.4a13.6,13.6,0,0,1-5.1.8,8,8,0,0,1-4.5-1.3,4.3,4.3,0,0,1-1.8-3.6,4.5,4.5,0,0,1,1.5-3.4A4.9,4.9,0,0,1,340.2,214.8Zm4.4,1.3c-.8,0-1.2.6-1.2,1.9h.9c.8,0,1.2-.2,1.2-.8S345.2,216.1,344.6,216.1Z"/>
          <path class="cls-3" d="M359.8,223v-4.6a1.2,1.2,0,0,0-.3-.9.8.8,0,0,0-.7-.3,1.1,1.1,0,0,0-.7.3.9.9,0,0,0-.4.8v1.2a27.5,27.5,0,0,1-.1,3.4.9.9,0,0,1-.3.6l-1,.3h-3.5l-.7-.2a.9.9,0,0,1-.3-.6,31.8,31.8,0,0,1-.2-3.8,28.4,28.4,0,0,1,.1-3.4,1.7,1.7,0,0,1,.3-1.2c.1-.2.4-.3.8-.3h3.7a1.2,1.2,0,0,1,.9.3,2,2,0,0,1,.2.9h0a4.9,4.9,0,0,1,3.6-1.5,4.4,4.4,0,0,1,3.2,1.1,3.7,3.7,0,0,1,1.3,2.8v5.1a.9.9,0,0,1-.3.7,1.4,1.4,0,0,1-.9.2h-3.6c-.4,0-.7,0-.9-.2A.8.8,0,0,1,359.8,223Z"/>
          <path class="cls-3" d="M376.5,210h3.7a1,1,0,0,1,.8.3,2,2,0,0,1,.2.9c.1,1.5.2,3.6.2,6.3s-.1,4.5-.2,5.5a.5.5,0,0,1-.3.5,1.2,1.2,0,0,1-.9.3h-3.2c-.8,0-1.3-.3-1.3-.8s-.2-3.1-.2-5.8.1-4.8.2-6a2,2,0,0,1,.2-.9C375.8,210.1,376.1,210,376.5,210Z"/>
          <path class="cls-3" d="M390.3,213.9c4.1,0,6.1,1.3,6.2,4v5a.8.8,0,0,1-.3.7,1.4,1.4,0,0,1-.9.2h-4a1.3,1.3,0,0,1-.8-.2c-.2-.1-.2-.4-.3-.6h0a4.2,4.2,0,0,1-3.4,1.3,4.1,4.1,0,0,1-2.5-.8,2.3,2.3,0,0,1-1.1-2,2.9,2.9,0,0,1,.8-2.1,4.2,4.2,0,0,1,1.8-1.1,7.8,7.8,0,0,1,2.2-.3,9.1,9.1,0,0,1,2.3.3h0a2,2,0,0,0-.4-1.4,1.7,1.7,0,0,0-1.2-.4l-1.3.2-.9.3a2.2,2.2,0,0,1-1,.4l-.6-.3a2,2,0,0,1-.2-.9,1.5,1.5,0,0,1,.2-.8l.7-.4A9.9,9.9,0,0,1,390.3,213.9Zm-.9,7.7c.5,0,.8-.1.8-.3a8.1,8.1,0,0,0,.1-1.7c0-.2-.2-.4-.6-.4a1.5,1.5,0,0,0-1,.3,1,1,0,0,0-.4.9,1.2,1.2,0,0,0,.3.9A1.1,1.1,0,0,0,389.4,221.6Z"/>
          <path class="cls-3" d="M410.5,221.3a1,1,0,0,0-.5-.8,2.8,2.8,0,0,0-1.1-.5l-1.2-.4a2.1,2.1,0,0,1-1.1-.7,2.2,2.2,0,0,1-.5-1.4c0-2.4,1.9-3.5,5.5-3.5a7.6,7.6,0,0,1,3.7.7l.7.5a1.5,1.5,0,0,1,.2.8,1.9,1.9,0,0,1-.2.8c-.2.2-.3.3-.5.3l-.9-.5a4.2,4.2,0,0,0-1.5-.4.5.5,0,0,0-.6.6.8.8,0,0,0,.4.7l1.1.4,1.2.4a3.1,3.1,0,0,1,1.1.9,3.3,3.3,0,0,1,.4,1.5c0,2.3-1.8,3.5-5.5,3.5a10.6,10.6,0,0,1-4.3-.8l-.7-.4c-.2-.1-.3-.4-.3-.8s.1-.7.3-.8a.5.5,0,0,1,.4-.3l1.1.5a5.8,5.8,0,0,0,1.8.4C410.1,222,410.5,221.8,410.5,221.3Z"/>
          <path class="cls-3" d="M425.2,213.9c4.1,0,6.2,1.3,6.2,4,0,1.1.1,2.1.1,3.1s-.1,1.6-.1,1.9a1.2,1.2,0,0,1-.2.7l-.9.2h-4l-.9-.2a1.1,1.1,0,0,1-.2-.6h0a4.5,4.5,0,0,1-3.4,1.3,4.5,4.5,0,0,1-2.6-.8,2.2,2.2,0,0,1-1-2,2.8,2.8,0,0,1,.7-2.1,4.2,4.2,0,0,1,1.8-1.1,7.8,7.8,0,0,1,2.2-.3,8.5,8.5,0,0,1,2.3.3h0a2.6,2.6,0,0,0-.3-1.4,2.1,2.1,0,0,0-1.2-.4l-1.4.2-.8.3a2.4,2.4,0,0,1-1.1.4.5.5,0,0,1-.5-.3,1.2,1.2,0,0,1-.3-.9,1.5,1.5,0,0,1,.2-.8l.7-.4A10.2,10.2,0,0,1,425.2,213.9Zm-.9,7.7q.9,0,.9-.3v-1.7c0-.2-.2-.4-.6-.4a1.7,1.7,0,0,0-1,.3,1.2,1.2,0,0,0,0,1.8A.9.9,0,0,0,424.3,221.6Z"/>
          <path class="cls-3" d="M434.9,210h3.7c.4,0,.7.1.8.3a4.6,4.6,0,0,1,.3.9c0,1.5.1,3.6.1,6.3s-.1,4.5-.2,5.5a.5.5,0,0,1-.3.5,1.2,1.2,0,0,1-.9.3h-3.2c-.8,0-1.3-.3-1.3-.8s-.2-3.1-.2-5.8.1-4.8.2-6a2,2,0,0,1,.2-.9A1,1,0,0,1,434.9,210Z"/>
          <path class="cls-3" d="M447.7,215v4.6c0,.4.1.7.3.8a.6.6,0,0,0,.6.3,1.1,1.1,0,0,0,.7-.3,1.1,1.1,0,0,0,.5-.8v-1.1c0-1.7.1-2.8.1-3.4l.4-.6.9-.3h3.6l.7.2a.9.9,0,0,1,.3.6,36.6,36.6,0,0,1,.1,3.7,29.4,29.4,0,0,1-.1,3.5,2.9,2.9,0,0,1-.2,1.2,1.2,1.2,0,0,1-.9.3H451c-.4,0-.7-.1-.8-.3a1.2,1.2,0,0,1-.3-.9h0A6.4,6.4,0,0,1,446,224a4.1,4.1,0,0,1-3.1-1,3.6,3.6,0,0,1-1-2.8c0-1.2-.1-2.2-.1-3.2s.1-1.6.1-1.9a1.2,1.2,0,0,1,.2-.7l.9-.2h3.7a1,1,0,0,1,.8.3A.8.8,0,0,1,447.7,215Z"/>
          <path class="cls-3" d="M470.6,223.7h-3.5c-.8,0-1.2-.4-1.2-1.3a3.5,3.5,0,0,1-1.8,1.3,5.3,5.3,0,0,1-2,.5A4.3,4.3,0,0,1,459,223a5.7,5.7,0,0,1-1.2-3.9c0-2.2.7-3.7,2.2-4.5a5,5,0,0,1,2.7-.7,4.5,4.5,0,0,1,2.7.7c.2.1.4.1.4-.2v-2.7a1.9,1.9,0,0,1,.1-.8.8.8,0,0,1,.2-.7l.8-.2h3.6a1.1,1.1,0,0,1,.9.3,2,2,0,0,1,.2.9c.1,1.8.1,3.6.1,5.5v6.2a.9.9,0,0,1-.3.6A1,1,0,0,1,470.6,223.7Zm-6.2-6.6q-1.2,0-1.2,1.8t1.2,1.8l.7-.2a1,1,0,0,0,.4-.9v-1.4a.8.8,0,0,0-.4-.8A.9.9,0,0,0,464.4,217.1Z"/>
        </g>
        <g class="cls-4">
          <rect class="cls-5" y="148.8" width="484.2" height="36.77"/>
        </g>
        <g class="cls-4">
          <rect class="cls-5" y="199.3" width="484.2" height="36.77"/>
        </g>
        <g class="cls-4">
          <rect class="cls-5" y="83.7" width="484.2" height="36.77"/>
        </g>
        <g class="cls-4">
          <rect class="cls-5" y="18.7" width="484.2" height="36.77"/>
        </g>
      </g>
    </g>
  </g>
</svg>
