<svg xmlns="http://www.w3.org/2000/svg" width="679.1" height="123" viewBox="0 0 679.1 123">
  <defs>
    <style>
      .cls-1 {
        isolation: isolate;
      }

      .cls-2 {
        fill: #4f2fef;
      }

      .cls-3 {
        fill: #fff;
      }

      .cls-4 {
        mix-blend-mode: multiply;
      }

      .cls-5 {
        fill: #5af2ca;
      }

      .cls-6 {
        fill: #e743ff;
      }
    </style>
  </defs>
  <g class="cls-1">
    <g id="Layer_2" data-name="Layer 2">
      <g id="Layer_1-2" data-name="Layer 1">
        <g>
          <rect class="cls-2" y="86.2" width="679.1" height="36.77"/>
          <g>
            <path class="cls-3" d="M39.8,70c1.6,2,3.4,4.5,5.5,7.6s3.4,5.2,4.2,6.2,1.5,1.5,2,1.5a1.7,1.7,0,0,0,1.3-.8L57,78.1c2.5-3.7,4.5-6.5,6-8.5s2.9-2.9,3.8-3h8.9c2,.1,3.3.6,4,1.6a8.2,8.2,0,0,1,1.2,4c.2,4.5.4,10.5.4,17.8s-.2,13.3-.6,17.5a4.7,4.7,0,0,1-1.2,2.8,3.4,3.4,0,0,1-2.8,1.2H68.1l-7.6-.2a3,3,0,0,1-1.8-.8,2.5,2.5,0,0,1-.9-2l-.4-10.5c0-1.1-.3-1.6-.7-1.8s-.7.2-1.1.9c-2.2,4-5.1,8.5-8.4,13.4a3.8,3.8,0,0,1-3.2,1.9,4.1,4.1,0,0,1-3.3-1.9,135.9,135.9,0,0,1-7.6-13.6,1.5,1.5,0,0,0-.7-.7c-.3-.1-.5,0-.8.3a2.8,2.8,0,0,0-.3,1.5L31,108.7a2.4,2.4,0,0,1-1.1,2,4.9,4.9,0,0,1-2.4.8H21.2a4.5,4.5,0,0,1-2.8-1.2,4.7,4.7,0,0,1-1.2-2.7c-.4-3.8-.5-9.7-.5-17.6s.1-13.9.3-17.7a7.7,7.7,0,0,1,1.2-4.1c.7-1,1.9-1.5,3.7-1.5,8.9,0,13.7.1,14.5.2S38.2,68.1,39.8,70Z"/>
            <path class="cls-3" d="M90.6,110.3a7.1,7.1,0,0,1-1.6-3.9c-.2-1.8-.3-7.3-.3-16.3s.1-15,.4-17.8,1.9-5.4,4.6-5.5h38.1c2.6,0,3.8,1.6,3.8,4.8s-1.1,3.8-3.3,3.8H118.2a2.6,2.6,0,0,0-2.1.9,3,3,0,0,0-.8,2.3v4.6c0,1.3.6,1.9,1.7,1.9h11.6l1.6.2c.4.1.7.5,1,1.1a7.4,7.4,0,0,1,.4,3c0,1.5-.2,2.4-.7,2.9a3.8,3.8,0,0,1-2.4.7H118.1c-1.1,0-1.8.2-2.2.8a3.8,3.8,0,0,0-.6,2.4v3.2c0,1.8.9,2.7,2.6,2.7h15.9a3.1,3.1,0,0,1,2.1.7c.6.4.9,1.4.9,2.9a8.1,8.1,0,0,1-1.1,4.1,3.1,3.1,0,0,1-2.6,1.8H93.7A4.5,4.5,0,0,1,90.6,110.3Z"/>
            <path class="cls-3" d="M179.3,107.6a4.8,4.8,0,0,1-1.2,2.6,4.6,4.6,0,0,1-3.1,1.3l-8.8.2-9.4-.2a4.4,4.4,0,0,1-3-1.3,3.7,3.7,0,0,1-1.2-2.6c-.2-6.5-.2-12-.2-16.6V80.9q0-2.4-2.1-2.4h-5.8a3.2,3.2,0,0,1-2.2-.7,3,3,0,0,1-.9-2.2c-.1-1.1-.1-2.2-.1-3.3a26.3,26.3,0,0,1,.1-3,2.6,2.6,0,0,1,1-1.9,3.1,3.1,0,0,1,2-.7h42.9a4.8,4.8,0,0,1,2,.7,2.3,2.3,0,0,1,1,1.9,25.3,25.3,0,0,1,.1,2.9c0,1.1,0,2.2-.1,3.2a2.7,2.7,0,0,1-3.1,2.9h-5.7a1.9,1.9,0,0,0-2.2,2.2c.1,5.4.2,10.3.2,14.6S179.4,103.6,179.3,107.6Z"/>
            <path class="cls-3" d="M227.4,112.8a43.4,43.4,0,0,1-14-2.1,27.4,27.4,0,0,1-10.2-5.4,23,23,0,0,1-5.9-7.5,19.3,19.3,0,0,1,0-17.5,26.5,26.5,0,0,1,5.9-7.6,30.6,30.6,0,0,1,10.2-5.4,42.4,42.4,0,0,1,13.7-2.1,44.9,44.9,0,0,1,13.3,1.9,24.4,24.4,0,0,1,9.2,5c4.8,4.4,7.2,9.6,7.2,15.5a21.7,21.7,0,0,1-2,8.9,26.2,26.2,0,0,1-5.5,7.9,26.8,26.8,0,0,1-9.3,5.8A38.7,38.7,0,0,1,227.4,112.8ZM240,87.9a7.6,7.6,0,0,0-2.1-5.3c-1.5-1.5-3.7-2.3-6.7-2.3a9.9,9.9,0,0,0-7,2.4,7.3,7.3,0,0,0-2.6,5.8,6.5,6.5,0,0,0,2.7,5.4,10.4,10.4,0,0,0,6.6,2,8.8,8.8,0,0,0,6.5-2.5A7.2,7.2,0,0,0,240,87.9Z"/>
            <path class="cls-3" d="M292.6,111.3c-2.9.3-7,.4-12.3.4s-8.9,0-10.9-.2a9.7,9.7,0,0,1-4.4-1.1,3.2,3.2,0,0,1-1.6-2.6c-.2-4.6-.3-9.8-.3-15.7s0-12.2.2-18.8c.1-4.1,2-6.3,5.7-6.5s6.6-.3,12-.3l12.6.2a24.8,24.8,0,0,1,8.8,2.2,18.1,18.1,0,0,1,6.8,4.8,21.4,21.4,0,0,1,5.3,14.4,23.5,23.5,0,0,1-5.5,15.4,20.2,20.2,0,0,1-7,5.4A24.2,24.2,0,0,1,292.6,111.3Zm-2.9-30.8V96a1.4,1.4,0,0,0,.4,1,1.3,1.3,0,0,0,1,.4c2.8,0,4.9-.9,6.3-2.8a10.4,10.4,0,0,0,2.2-6.7,10.8,10.8,0,0,0-2-6.6,6.2,6.2,0,0,0-5.4-2.9h-1.3C290.1,78.7,289.7,79.4,289.7,80.5Z"/>
            <path class="cls-3" d="M351.6,112.8a44.4,44.4,0,0,1-14.1-2.1,27.7,27.7,0,0,1-10.1-5.4,24.8,24.8,0,0,1-6-7.5,20.6,20.6,0,0,1-2-8.8,19.2,19.2,0,0,1,2.1-8.7,24.8,24.8,0,0,1,5.9-7.6,31.1,31.1,0,0,1,10.1-5.4,46.6,46.6,0,0,1,27-.2,24.1,24.1,0,0,1,9.3,5c4.8,4.4,7.2,9.6,7.2,15.5a21.7,21.7,0,0,1-2,8.9,26.2,26.2,0,0,1-5.5,7.9,28.3,28.3,0,0,1-9.4,5.8A37.5,37.5,0,0,1,351.6,112.8Zm12.6-24.9a7.3,7.3,0,0,0-2.2-5.3c-1.4-1.5-3.6-2.3-6.6-2.3a9.9,9.9,0,0,0-7,2.4,7.4,7.4,0,0,0-2.7,5.8,6.4,6.4,0,0,0,2.8,5.4,10.4,10.4,0,0,0,6.6,2,9,9,0,0,0,6.5-2.5A7.5,7.5,0,0,0,364.2,87.9Z"/>
            <path class="cls-3" d="M414,82.1V94.9a7.8,7.8,0,0,0,.8,4.2c.6.9,1.8,1.4,3.6,1.4h16.2q3,0,3,4.5a10.1,10.1,0,0,1-.9,4.9c-.5,1-1.7,1.5-3.4,1.6l-17.8.2H393a6.6,6.6,0,0,1-3.8-1.1,4.5,4.5,0,0,1-1.6-3.1c-.3-3.7-.5-9.6-.5-17.6s.1-13.4.3-16.2.6-4.6,1.2-5.5,1.7-1.4,3.5-1.4h17.1c1.8,0,3,.5,3.6,1.4a10.1,10.1,0,0,1,1,4.6C414,74.7,414,77.9,414,82.1Z"/>
            <path class="cls-3" d="M473.1,112.8a44.2,44.2,0,0,1-14-2.1,27.4,27.4,0,0,1-10.2-5.4,24.5,24.5,0,0,1-5.9-7.5,19.3,19.3,0,0,1,0-17.5,25.2,25.2,0,0,1,6-7.6,29.1,29.1,0,0,1,10.1-5.4,43.4,43.4,0,0,1,13.8-2.1,44.2,44.2,0,0,1,13.2,1.9,25.7,25.7,0,0,1,9.3,5c4.7,4.4,7.1,9.6,7.1,15.5a21.6,21.6,0,0,1-1.9,8.9,26.6,26.6,0,0,1-5.6,7.9,26.8,26.8,0,0,1-9.3,5.8A38.7,38.7,0,0,1,473.1,112.8Zm12.7-24.9a7.7,7.7,0,0,0-2.2-5.3,9,9,0,0,0-6.6-2.3,10.2,10.2,0,0,0-7.1,2.4,7.7,7.7,0,0,0-2.6,5.8,6.5,6.5,0,0,0,2.7,5.4,10.9,10.9,0,0,0,6.7,2,8.7,8.7,0,0,0,6.4-2.5A7.3,7.3,0,0,0,485.8,87.9Z"/>
            <path class="cls-3" d="M545.4,77.1c-3.8,0-6.5,1-8.1,2.9s-2.3,5.2-2.3,9.5c0,6.8,2,10.1,6,10.1h1.6c-.6,0-1-.9-1.3-2.7a34.3,34.3,0,0,1-.5-5.6c0-2,.6-3.3,1.6-3.8a9.5,9.5,0,0,1,4.5-.9h3.9l2.6.3a5.2,5.2,0,0,1,2.2.7,3.2,3.2,0,0,1,1.8,3V100a15.2,15.2,0,0,1-1.8,7.9c-1.2,2-3.4,3.2-6.7,3.5s-11.7.7-21.1.7a24.2,24.2,0,0,1-9.8-1.8,14.4,14.4,0,0,1-6.3-5c-2.7-3.9-4.1-9-4.1-15.1a25,25,0,0,1,5.9-16.3,20.6,20.6,0,0,1,15.7-7.7c4.5-.3,7.7-.4,9.7-.4,7.3,0,12.5.5,15.5,1.4s3.2,2.2,3.2,5-1.1,5.6-3.3,5.6l-4.1-.4Z"/>
            <path class="cls-3" d="M570.2,66.7h17.2c1.8,0,3,.5,3.5,1.4s1,2.7,1.2,5.5.3,8.2.3,16.2-.2,14-.5,17.7a4.5,4.5,0,0,1-1.4,2.6,4.1,4.1,0,0,1-2.9,1.3c-2.5.2-5.3.3-8.5.3s-6.2-.1-9.1-.3a4.1,4.1,0,0,1-2.9-1.3,3.8,3.8,0,0,1-1.3-2.6c-.4-3.7-.5-9.6-.5-17.7s0-13.4.2-16.2.6-4.7,1.2-5.5S568.5,66.7,570.2,66.7ZM587.3,63H569.9a1.5,1.5,0,0,1-1.6-1.7c0-1.2.3-1.9,1-2.1l3.5-1.4,4.4-1.6c4.6-1.7,7.3-2.6,8.3-2.6a2.4,2.4,0,0,1,2.2,1.4c1.7,3.5,2.6,5.5,2.6,6.1S589.3,63,587.3,63Z"/>
            <path class="cls-3" d="M641.1,69.7,662,105.1a6.9,6.9,0,0,1,1.3,3.5,2.4,2.4,0,0,1-1.2,2.2,5.4,5.4,0,0,1-2.7.7H638.9c-2.1,0-3.5-.4-4.1-1.2l-.7-1.3-1.8-4q-.9-1.8-3.9-2.1H616.3a5.8,5.8,0,0,0-2.1.3,1.9,1.9,0,0,0-1.1,1.1l-2.5,5.2a3.8,3.8,0,0,1-1.4,1.6,6.3,6.3,0,0,1-2.3.4h-5.7q-2.6,0-2.7-1.8a4.3,4.3,0,0,0-.1-.5,5,5,0,0,1,1-2.8l20-35.3c1.9-3.4,5-5,9.4-5h5.1Q639,66.1,641.1,69.7ZM620.4,86.1l-3,5.8a4.4,4.4,0,0,0-.2,1c0,1.1.5,1.7,1.6,1.7h5.8c.9,0,1.5-.2,1.8-.7a1.7,1.7,0,0,0,.6-1.2,4.4,4.4,0,0,0-.2-1l-2.5-5.5c-.5-1.1-1.1-1.6-1.9-1.6A2.2,2.2,0,0,0,620.4,86.1Z"/>
          </g>
          <g class="cls-4">
            <rect class="cls-5" y="86.2" width="679.1" height="36.77"/>
          </g>
          <rect class="cls-6" x="205.3" width="268.5" height="36.77"/>
          <g>
            <path class="cls-3" d="M234.5,25.9a8.7,8.7,0,0,1-6.2-2,7.2,7.2,0,0,1-2.3-5.7,9.4,9.4,0,0,1,.7-3.9,7.1,7.1,0,0,1,2.1-2.7,11.6,11.6,0,0,1,7-2,18.7,18.7,0,0,1,5.7.8c.7.2,1,.8,1,1.7s-.4,1.9-1.2,1.9l-1.3-.2-1.5-.2a3,3,0,0,0-2.4,1.1,4,4,0,0,0-.8,2.6A5,5,0,0,0,236,20a3.2,3.2,0,0,0,2.2,1.2h3.3a1.1,1.1,0,0,1,1.2,1.1,1.9,1.9,0,0,1,.1.8,2.2,2.2,0,0,1-.1.8,1.8,1.8,0,0,1-1.2,1.2l-3.2.6A24.8,24.8,0,0,1,234.5,25.9Z"/>
            <path class="cls-3" d="M252.6,26c-5.4,0-8.2-2-8.2-6a5.1,5.1,0,0,1,2.1-4.4,10.3,10.3,0,0,1,6.1-1.6,10.1,10.1,0,0,1,6.1,1.6,5.1,5.1,0,0,1,2.1,4.4C260.8,24,258.1,26,252.6,26Zm0-3.5c.9,0,1.3-.9,1.3-2.5a6.5,6.5,0,0,0-.2-1.7,1.1,1.1,0,0,0-1.1-.6,1,1,0,0,0-1,.6,3.7,3.7,0,0,0-.3,1.7C251.3,21.6,251.8,22.5,252.6,22.5Z"/>
            <path class="cls-3" d="M272.6,24.5V19.2a1.3,1.3,0,0,0-.3-1,1.1,1.1,0,0,0-.8-.3,1.7,1.7,0,0,0-1,.3,1.3,1.3,0,0,0-.4,1v1.3a39,39,0,0,1-.1,4c0,.2-.2.4-.4.6a1.9,1.9,0,0,1-1.1.4h-4.1a1.2,1.2,0,0,1-.9-.3.9.9,0,0,1-.3-.6c-.1-1-.2-2.5-.2-4.4s.1-3.3.1-4.1a2.9,2.9,0,0,1,.4-1.4q.2-.3.9-.3h4.3c.5,0,.9.1,1,.3a2.3,2.3,0,0,1,.4,1.1h0a5.4,5.4,0,0,1,4.1-1.8,5.6,5.6,0,0,1,3.8,1.2,4.2,4.2,0,0,1,1.4,3.3v5.9a1.2,1.2,0,0,1-.3.9,2.2,2.2,0,0,1-1,.2h-4.3c-.4,0-.8-.1-.9-.3A1,1,0,0,1,272.6,24.5Z"/>
            <path class="cls-3" d="M289.6,26c-5.4,0-8.2-2-8.2-6a5.1,5.1,0,0,1,2.1-4.4,10.3,10.3,0,0,1,6.1-1.6,10.7,10.7,0,0,1,6.2,1.6,5.3,5.3,0,0,1,2,4.4C297.8,24,295.1,26,289.6,26Zm0-3.5c.9,0,1.3-.9,1.3-2.5a6.5,6.5,0,0,0-.2-1.7,1.1,1.1,0,0,0-1.1-.6,1,1,0,0,0-1,.6,3.7,3.7,0,0,0-.3,1.7C288.3,21.6,288.8,22.5,289.6,22.5Z"/>
            <path class="cls-3" d="M309.3,17.5a2.1,2.1,0,0,0-1.6.6,3.4,3.4,0,0,0-.5,1.7,2.8,2.8,0,0,0,.6,1.8,2.4,2.4,0,0,0,1.9.7l1.3-.2a2.8,2.8,0,0,1,1.1-.2c.5,0,.8.5.8,1.4v1.2a1.1,1.1,0,0,1-.9.8,11.5,11.5,0,0,1-3.9.7h-2.7l-2.2-.5a7.7,7.7,0,0,1-1.8-1,5.6,5.6,0,0,1-1.1-1.7,6.3,6.3,0,0,1-.5-2.6,6.9,6.9,0,0,1,.7-2.9,5.8,5.8,0,0,1,1.9-1.9,12,12,0,0,1,5.7-1.2,12.6,12.6,0,0,1,3.8.6c.5.2.8.8.8,1.8s-.2,1.5-.8,1.5l-1.2-.3A3.6,3.6,0,0,0,309.3,17.5Z"/>
            <path class="cls-3" d="M317.9,15a5.8,5.8,0,0,1,2.1-.7,10.1,10.1,0,0,1,2.7-.3,15.4,15.4,0,0,1,3,.4,5.2,5.2,0,0,1,2.1,1.1,3.8,3.8,0,0,1,1.2,2.8c0,1.7-1.4,2.6-4.3,2.6l-3.1-.3a3.4,3.4,0,0,0,.5,2,2.1,2.1,0,0,0,1.7.6,5.6,5.6,0,0,0,2-.3l1.3-.5.8-.3a.9.9,0,0,1,.6.3,2.1,2.1,0,0,1,.4,1.1,1.3,1.3,0,0,1-.3,1l-.9.5a15.8,15.8,0,0,1-5.9.8,8.8,8.8,0,0,1-5.3-1.5,5,5,0,0,1-2-4.1,5.9,5.9,0,0,1,.4-2.3,4.5,4.5,0,0,1,1.3-1.7A6.6,6.6,0,0,1,317.9,15Zm5.2,1.5c-.9,0-1.4.8-1.5,2.2h1.1c1,0,1.5-.3,1.5-1S323.8,16.5,323.1,16.5Z"/>
            <path class="cls-3" d="M349.6,24.5V19.2a1.3,1.3,0,0,0-.3-1,1.2,1.2,0,0,0-.9-.3l-.9.3a1.3,1.3,0,0,0-.4,1v1.3a39,39,0,0,1-.1,4c0,.2-.2.4-.4.6a1.9,1.9,0,0,1-1.1.4h-4.1a1.2,1.2,0,0,1-.9-.3.9.9,0,0,1-.3-.6c-.1-1-.2-2.5-.2-4.4s.1-3.3.1-4.1a2.9,2.9,0,0,1,.4-1.4q.2-.3.9-.3h4.3c.5,0,.9.1,1,.3a2.3,2.3,0,0,1,.4,1.1h0a5.4,5.4,0,0,1,4.1-1.8,5.6,5.6,0,0,1,3.8,1.2,4.2,4.2,0,0,1,1.4,3.3v5.9a1.2,1.2,0,0,1-.3.9,2.2,2.2,0,0,1-1,.2h-4.3c-.4,0-.8-.1-.9-.3A1,1,0,0,1,349.6,24.5Z"/>
            <path class="cls-3" d="M365.5,15.3v5.3a1.3,1.3,0,0,0,.3,1,.9.9,0,0,0,.7.3,1.6,1.6,0,0,0,.9-.3,3.5,3.5,0,0,0,.6-.9V19.3a36.8,36.8,0,0,1,.1-3.9,1,1,0,0,1,.4-.7,1.3,1.3,0,0,1,1-.3h4.2a1.4,1.4,0,0,1,.9.3.9.9,0,0,1,.3.7,41,41,0,0,1,.2,4.3c0,2-.1,3.4-.1,4.1a2.9,2.9,0,0,1-.4,1.4c-.1.2-.5.3-.9.3h-4.3c-.5,0-.9-.1-1-.3a2.3,2.3,0,0,1-.4-1.1h0a7.2,7.2,0,0,1-4.6,1.8,4.8,4.8,0,0,1-3.5-1.2,4.1,4.1,0,0,1-1.2-3.2c0-1.4-.1-2.7-.1-3.8s.1-1.8.1-2.2.1-.7.3-.8.5-.3,1-.3h4.3c.4,0,.8,0,.9.2A1,1,0,0,1,365.5,15.3Z"/>
            <path class="cls-3" d="M380.7,15a5.8,5.8,0,0,1,2.1-.7,10.1,10.1,0,0,1,2.7-.3,15.4,15.4,0,0,1,3,.4,5.2,5.2,0,0,1,2.1,1.1,3.8,3.8,0,0,1,1.2,2.8c0,1.7-1.4,2.6-4.3,2.6a16.3,16.3,0,0,1-3.1-.3,3.4,3.4,0,0,0,.5,2,2.1,2.1,0,0,0,1.7.6,5.6,5.6,0,0,0,2-.3l1.3-.5.8-.3a.9.9,0,0,1,.6.3,2,2,0,0,1,.3,1.1c0,.5,0,.8-.2,1l-.9.5a15.8,15.8,0,0,1-5.9.8,8.8,8.8,0,0,1-5.3-1.5,4.7,4.7,0,0,1-2-4.1,5.9,5.9,0,0,1,.4-2.3,3.7,3.7,0,0,1,1.3-1.7A6.6,6.6,0,0,1,380.7,15Zm5.1,1.5c-.9,0-1.3.8-1.4,2.2h1.1c1,0,1.4-.3,1.4-1S386.6,16.5,385.8,16.5Z"/>
            <path class="cls-3" d="M398.9,22.6a1.2,1.2,0,0,0-.6-1,3.3,3.3,0,0,0-1.2-.5l-1.5-.4a3.8,3.8,0,0,1-1.3-.9,2.9,2.9,0,0,1-.5-1.7c0-2.7,2.1-4.1,6.4-4.1a8.2,8.2,0,0,1,4.4,1,1.3,1.3,0,0,1,.7.5c.2.2.2.5.2.9a2,2,0,0,1-.2.9c-.2.3-.4.4-.5.4l-1.1-.5a3.1,3.1,0,0,0-1.8-.5c-.5,0-.7.2-.7.7a.8.8,0,0,0,.5.7,3.3,3.3,0,0,0,1.2.5l1.5.5a2.9,2.9,0,0,1,1.2,1,2.7,2.7,0,0,1,.5,1.8c0,2.7-2.1,4.1-6.3,4.1a12.3,12.3,0,0,1-5.1-.9l-.9-.5a2,2,0,0,1-.2-.9,1.3,1.3,0,0,1,.3-1,.5.5,0,0,1,.4-.3l1.3.5a5.4,5.4,0,0,0,2.2.5C398.5,23.4,398.9,23.1,398.9,22.6Z"/>
            <path class="cls-3" d="M409.2,17.5a.4.4,0,0,0-.4-.4c-.6,0-.9-.2-1-.5a2.2,2.2,0,0,1-.1-.9,2.2,2.2,0,0,1,.1-.9.9.9,0,0,1,.7-.3l.8-.5,1.6-1.3,1.7-1.3a2.1,2.1,0,0,1,1.2-.3h1.1l1,.2a.6.6,0,0,1,.3.6V14c0,.3.1.4.3.4h2.4c.4,0,.7.1.8.3s.3.5.3,1.1a1.4,1.4,0,0,1-.3,1.1c-.2.2-.4.2-.8.2h-2.3a.5.5,0,0,0-.4.2v3.1a1.7,1.7,0,0,0,.5,1.2,1.8,1.8,0,0,0,1.5.5l1.1-.2.9-.3q.6,0,.6,1.8t-.6,1.5a8.8,8.8,0,0,1-2,.4l-2.6.2-2.4-.2a6.6,6.6,0,0,1-2.1-.8c-1.2-.7-1.9-2.1-1.9-4.1Z"/>
            <path class="cls-3" d="M424.3,14.3h4.3a1.3,1.3,0,0,1,1,.3,1.3,1.3,0,0,1,.3,1v.8a4.1,4.1,0,0,1,4-2.4,2,2,0,0,1,1.5.6,2.3,2.3,0,0,1,.6,1.6,4.9,4.9,0,0,1-.5,2,1.9,1.9,0,0,1-1.5,1,2.8,2.8,0,0,1-1.2-.5,3,3,0,0,0-1.3-.4,1.9,1.9,0,0,0-1,.3c-.4.2-.5.6-.5,1.2a42.5,42.5,0,0,1-.2,4.7.9.9,0,0,1-.3.6,2.3,2.3,0,0,1-1.1.4h-4.2a1.1,1.1,0,0,1-.8-.3c-.2-.2-.4-.4-.4-.6s-.1-2.5-.1-4.4,0-3.3.1-4.1a2.2,2.2,0,0,1,.3-1.4C423.4,14.4,423.8,14.3,424.3,14.3Z"/>
            <path class="cls-3" d="M445.1,13.9c4.7,0,7.2,1.6,7.2,4.7v5.9a1.1,1.1,0,0,1-.3.8c-.2.2-.5.2-1,.2h-4.7c-.5,0-.8,0-1-.2s-.2-.4-.3-.8h0a5.6,5.6,0,0,1-3.9,1.4,4.8,4.8,0,0,1-3-.8,2.9,2.9,0,0,1-1.2-2.4,3.9,3.9,0,0,1,.8-2.5,4.5,4.5,0,0,1,2.1-1.2,10.9,10.9,0,0,1,2.6-.3l2.7.2h0a2.7,2.7,0,0,0-.4-1.5,1.6,1.6,0,0,0-1.4-.5h-1.6a3.4,3.4,0,0,0-1,.4l-1.2.5a.9.9,0,0,1-.7-.3,1.5,1.5,0,0,1-.3-1,1.3,1.3,0,0,1,.3-1,1.6,1.6,0,0,1,.8-.5A13.2,13.2,0,0,1,445.1,13.9Zm-1.1,9c.7,0,1-.1,1-.3s.1-1.2.1-1.9-.3-.5-.7-.5a2.1,2.1,0,0,0-1.2.3,1.3,1.3,0,0,0-.4,1,1.8,1.8,0,0,0,.3,1.1A1.6,1.6,0,0,0,444,22.9Z"/>
          </g>
        </g>
      </g>
    </g>
  </g>
</svg>
